<?xml version="1.0" encoding="UTF-8"?>
<svg xmlns="http://www.w3.org/2000/svg" width="1350" height="764.706" viewBox="0 0 1350 764.706">
<rect width="100%" height="100%" fill="white"/>
<text x="350" y="50" text-anchor="middle" font-family="Arial" font-size="18" font-weight="bold">Earcut (MapLibre Default)</text>
<g stroke="#ff0000" stroke-width="2" stroke-dasharray="5,5" fill="none" opacity="0.8">
<line x1="130.749" y1="100" x2="130.749" y2="664.706"/>
<line x1="568.824" y1="100" x2="568.824" y2="664.706"/>
<line x1="50" y1="606.952" x2="650" y2="606.952"/>
<line x1="50" y1="168.877" x2="650" y2="168.877"/>
</g>
<text x="130.749" y="121.39" font-family="Arial" font-size="12" fill="red">Tile Edge (0)</text>
<text x="568.824" y="121.39" font-family="Arial" font-size="12" fill="red">Tile Edge (4096)</text>
<polygon points="77.2727,639.037 612.032,628.342 622.727,136.364 87.9679,125.668 77.2727,639.037 " fill="#4CAF50" fill-opacity="0.2" stroke="#4CAF50" stroke-width="2"/>
<g fill="none" stroke="#FF5722" stroke-width="0.5" opacity="0.7">
<polygon points="87.9679,125.668 77.2727,639.037 612.032,628.342"/>
<polygon points="612.032,628.342 622.727,136.364 87.9679,125.668"/>
</g>
<text x="60" y="714.706" font-family="Arial" font-size="12" fill="#666">Earcut: 2 triangles</text>
<text x="1025" y="50" text-anchor="middle" font-family="Arial" font-size="18" font-weight="bold">MeshCut (Terrain-Aware)</text>
<g stroke="#ff0000" stroke-width="2" stroke-dasharray="5,5" fill="none" opacity="0.8">
<line x1="805.749" y1="100" x2="805.749" y2="664.706"/>
<line x1="1243.82" y1="100" x2="1243.82" y2="664.706"/>
<line x1="725" y1="606.952" x2="1325" y2="606.952"/>
<line x1="725" y1="168.877" x2="1325" y2="168.877"/>
</g>
<text x="805.749" y="121.39" font-family="Arial" font-size="12" fill="red">Tile Edge (0)</text>
<text x="1243.82" y="121.39" font-family="Arial" font-size="12" fill="red">Tile Edge (4096)</text>
<polygon points="752.273,639.037 1287.03,628.342 1297.73,136.364 762.968,125.668 752.273,639.037 " fill="#4CAF50" fill-opacity="0.2" stroke="#4CAF50" stroke-width="2"/>
<g fill="none" stroke="#2196F3" stroke-width="0.5" opacity="0.7">
<polygon points="752.941,606.952 752.273,639.037 805.749,637.968"/>
<polygon points="805.749,637.968 805.749,606.952 752.941,606.952"/>
<polygon points="860.508,636.873 860.508,606.952 805.749,606.952"/>
<polygon points="805.749,606.952 805.749,637.968 860.508,636.873"/>
<polygon points="915.267,635.778 915.267,606.952 860.508,606.952"/>
<polygon points="860.508,606.952 860.508,636.873 915.267,635.778"/>
<polygon points="970.027,634.682 970.027,606.952 915.267,606.952"/>
<polygon points="915.267,606.952 915.267,635.778 970.027,634.682"/>
<polygon points="1024.79,633.587 1024.79,606.952 970.027,606.952"/>
<polygon points="970.027,606.952 970.027,634.682 1024.79,633.587"/>
<polygon points="1079.55,632.492 1079.55,606.952 1024.79,606.952"/>
<polygon points="1024.79,606.952 1024.79,633.587 1079.55,632.492"/>
<polygon points="1134.3,631.397 1134.3,606.952 1079.55,606.952"/>
<polygon points="1079.55,606.952 1079.55,632.492 1134.3,631.397"/>
<polygon points="1189.06,630.302 1189.06,606.952 1134.3,606.952"/>
<polygon points="1134.3,606.952 1134.3,631.397 1189.06,630.302"/>
<polygon points="1243.82,629.206 1243.82,606.952 1189.06,606.952"/>
<polygon points="1189.06,606.952 1189.06,630.302 1243.82,629.206"/>
<polygon points="1287.03,628.342 1287.5,606.952 1243.82,606.952"/>
<polygon points="1243.82,606.952 1243.82,629.206 1287.03,628.342"/>
<polygon points="754.082,552.193 752.941,606.952 805.749,606.952"/>
<polygon points="805.749,606.952 805.749,552.193 754.082,552.193"/>
<polygon points="805.749,606.952 860.508,606.952 805.749,552.193"/>
<polygon points="860.508,606.952 860.508,552.193 805.749,552.193"/>
<polygon points="860.508,606.952 915.267,606.952 860.508,552.193"/>
<polygon points="915.267,606.952 915.267,552.193 860.508,552.193"/>
<polygon points="915.267,606.952 970.027,606.952 915.267,552.193"/>
<polygon points="970.027,606.952 970.027,552.193 915.267,552.193"/>
<polygon points="970.027,606.952 1024.79,606.952 970.027,552.193"/>
<polygon points="1024.79,606.952 1024.79,552.193 970.027,552.193"/>
<polygon points="1024.79,606.952 1079.55,606.952 1024.79,552.193"/>
<polygon points="1079.55,606.952 1079.55,552.193 1024.79,552.193"/>
<polygon points="1079.55,606.952 1134.3,606.952 1079.55,552.193"/>
<polygon points="1134.3,606.952 1134.3,552.193 1079.55,552.193"/>
<polygon points="1134.3,606.952 1189.06,606.952 1134.3,552.193"/>
<polygon points="1189.06,606.952 1189.06,552.193 1134.3,552.193"/>
<polygon points="1189.06,606.952 1243.82,606.952 1189.06,552.193"/>
<polygon points="1243.82,606.952 1243.82,552.193 1189.06,552.193"/>
<polygon points="1287.5,606.952 1288.69,552.193 1243.82,552.193"/>
<polygon points="1243.82,552.193 1243.82,606.952 1287.5,606.952"/>
<polygon points="755.223,497.433 754.082,552.193 805.749,552.193"/>
<polygon points="805.749,552.193 805.749,497.433 755.223,497.433"/>
<polygon points="805.749,552.193 860.508,552.193 805.749,497.433"/>
<polygon points="860.508,552.193 860.508,497.433 805.749,497.433"/>
<polygon points="860.508,552.193 915.267,552.193 860.508,497.433"/>
<polygon points="915.267,552.193 915.267,497.433 860.508,497.433"/>
<polygon points="915.267,552.193 970.027,552.193 915.267,497.433"/>
<polygon points="970.027,552.193 970.027,497.433 915.267,497.433"/>
<polygon points="970.027,552.193 1024.79,552.193 970.027,497.433"/>
<polygon points="1024.79,552.193 1024.79,497.433 970.027,497.433"/>
<polygon points="1024.79,552.193 1079.55,552.193 1024.79,497.433"/>
<polygon points="1079.55,552.193 1079.55,497.433 1024.79,497.433"/>
<polygon points="1079.55,552.193 1134.3,552.193 1079.55,497.433"/>
<polygon points="1134.3,552.193 1134.3,497.433 1079.55,497.433"/>
<polygon points="1134.3,552.193 1189.06,552.193 1134.3,497.433"/>
<polygon points="1189.06,552.193 1189.06,497.433 1134.3,497.433"/>
<polygon points="1189.06,552.193 1243.82,552.193 1189.06,497.433"/>
<polygon points="1243.82,552.193 1243.82,497.433 1189.06,497.433"/>
<polygon points="1288.69,552.193 1289.88,497.433 1243.82,497.433"/>
<polygon points="1243.82,497.433 1243.82,552.193 1288.69,552.193"/>
<polygon points="756.364,442.674 755.223,497.433 805.749,497.433"/>
<polygon points="805.749,497.433 805.749,442.674 756.364,442.674"/>
<polygon points="805.749,497.433 860.508,497.433 805.749,442.674"/>
<polygon points="860.508,497.433 860.508,442.674 805.749,442.674"/>
<polygon points="860.508,497.433 915.267,497.433 860.508,442.674"/>
<polygon points="915.267,497.433 915.267,442.674 860.508,442.674"/>
<polygon points="915.267,497.433 970.027,497.433 915.267,442.674"/>
<polygon points="970.027,497.433 970.027,442.674 915.267,442.674"/>
<polygon points="970.027,497.433 1024.79,497.433 970.027,442.674"/>
<polygon points="1024.79,497.433 1024.79,442.674 970.027,442.674"/>
<polygon points="1024.79,497.433 1079.55,497.433 1024.79,442.674"/>
<polygon points="1079.55,497.433 1079.55,442.674 1024.79,442.674"/>
<polygon points="1079.55,497.433 1134.3,497.433 1079.55,442.674"/>
<polygon points="1134.3,497.433 1134.3,442.674 1079.55,442.674"/>
<polygon points="1134.3,497.433 1189.06,497.433 1134.3,442.674"/>
<polygon points="1189.06,497.433 1189.06,442.674 1134.3,442.674"/>
<polygon points="1189.06,497.433 1243.82,497.433 1189.06,442.674"/>
<polygon points="1243.82,497.433 1243.82,442.674 1189.06,442.674"/>
<polygon points="1289.88,497.433 1291.07,442.674 1243.82,442.674"/>
<polygon points="1243.82,442.674 1243.82,497.433 1289.88,497.433"/>
<polygon points="757.504,387.914 756.364,442.674 805.749,442.674"/>
<polygon points="805.749,442.674 805.749,387.914 757.504,387.914"/>
<polygon points="805.749,442.674 860.508,442.674 805.749,387.914"/>
<polygon points="860.508,442.674 860.508,387.914 805.749,387.914"/>
<polygon points="860.508,442.674 915.267,442.674 860.508,387.914"/>
<polygon points="915.267,442.674 915.267,387.914 860.508,387.914"/>
<polygon points="915.267,442.674 970.027,442.674 915.267,387.914"/>
<polygon points="970.027,442.674 970.027,387.914 915.267,387.914"/>
<polygon points="970.027,442.674 1024.79,442.674 970.027,387.914"/>
<polygon points="1024.79,442.674 1024.79,387.914 970.027,387.914"/>
<polygon points="1024.79,442.674 1079.55,442.674 1024.79,387.914"/>
<polygon points="1079.55,442.674 1079.55,387.914 1024.79,387.914"/>
<polygon points="1079.55,442.674 1134.3,442.674 1079.55,387.914"/>
<polygon points="1134.3,442.674 1134.3,387.914 1079.55,387.914"/>
<polygon points="1134.3,442.674 1189.06,442.674 1134.3,387.914"/>
<polygon points="1189.06,442.674 1189.06,387.914 1134.3,387.914"/>
<polygon points="1189.06,442.674 1243.82,442.674 1189.06,387.914"/>
<polygon points="1243.82,442.674 1243.82,387.914 1189.06,387.914"/>
<polygon points="1291.07,442.674 1292.26,387.914 1243.82,387.914"/>
<polygon points="1243.82,387.914 1243.82,442.674 1291.07,442.674"/>
<polygon points="758.645,333.155 757.504,387.914 805.749,387.914"/>
<polygon points="805.749,387.914 805.749,333.155 758.645,333.155"/>
<polygon points="805.749,387.914 860.508,387.914 805.749,333.155"/>
<polygon points="860.508,387.914 860.508,333.155 805.749,333.155"/>
<polygon points="860.508,387.914 915.267,387.914 860.508,333.155"/>
<polygon points="915.267,387.914 915.267,333.155 860.508,333.155"/>
<polygon points="915.267,387.914 970.027,387.914 915.267,333.155"/>
<polygon points="970.027,387.914 970.027,333.155 915.267,333.155"/>
<polygon points="970.027,387.914 1024.79,387.914 970.027,333.155"/>
<polygon points="1024.79,387.914 1024.79,333.155 970.027,333.155"/>
<polygon points="1024.79,387.914 1079.55,387.914 1024.79,333.155"/>
<polygon points="1079.55,387.914 1079.55,333.155 1024.79,333.155"/>
<polygon points="1079.55,387.914 1134.3,387.914 1079.55,333.155"/>
<polygon points="1134.3,387.914 1134.3,333.155 1079.55,333.155"/>
<polygon points="1134.3,387.914 1189.06,387.914 1134.3,333.155"/>
<polygon points="1189.06,387.914 1189.06,333.155 1134.3,333.155"/>
<polygon points="1189.06,387.914 1243.82,387.914 1189.06,333.155"/>
<polygon points="1243.82,387.914 1243.82,333.155 1189.06,333.155"/>
<polygon points="1292.26,387.914 1293.45,333.155 1243.82,333.155"/>
<polygon points="1243.82,333.155 1243.82,387.914 1292.26,387.914"/>
<polygon points="759.786,278.396 758.645,333.155 805.749,333.155"/>
<polygon points="805.749,333.155 805.749,278.396 759.786,278.396"/>
<polygon points="805.749,333.155 860.508,333.155 805.749,278.396"/>
<polygon points="860.508,333.155 860.508,278.396 805.749,278.396"/>
<polygon points="860.508,333.155 915.267,333.155 860.508,278.396"/>
<polygon points="915.267,333.155 915.267,278.396 860.508,278.396"/>
<polygon points="915.267,333.155 970.027,333.155 915.267,278.396"/>
<polygon points="970.027,333.155 970.027,278.396 915.267,278.396"/>
<polygon points="970.027,333.155 1024.79,333.155 970.027,278.396"/>
<polygon points="1024.79,333.155 1024.79,278.396 970.027,278.396"/>
<polygon points="1024.79,333.155 1079.55,333.155 1024.79,278.396"/>
<polygon points="1079.55,333.155 1079.55,278.396 1024.79,278.396"/>
<polygon points="1079.55,333.155 1134.3,333.155 1079.55,278.396"/>
<polygon points="1134.3,333.155 1134.3,278.396 1079.55,278.396"/>
<polygon points="1134.3,333.155 1189.06,333.155 1134.3,278.396"/>
<polygon points="1189.06,333.155 1189.06,278.396 1134.3,278.396"/>
<polygon points="1189.06,333.155 1243.82,333.155 1189.06,278.396"/>
<polygon points="1243.82,333.155 1243.82,278.396 1189.06,278.396"/>
<polygon points="1293.45,333.155 1294.64,278.396 1243.82,278.396"/>
<polygon points="1243.82,278.396 1243.82,333.155 1293.45,333.155"/>
<polygon points="760.927,223.636 759.786,278.396 805.749,278.396"/>
<polygon points="805.749,278.396 805.749,223.636 760.927,223.636"/>
<polygon points="805.749,278.396 860.508,278.396 805.749,223.636"/>
<polygon points="860.508,278.396 860.508,223.636 805.749,223.636"/>
<polygon points="860.508,278.396 915.267,278.396 860.508,223.636"/>
<polygon points="915.267,278.396 915.267,223.636 860.508,223.636"/>
<polygon points="915.267,278.396 970.027,278.396 915.267,223.636"/>
<polygon points="970.027,278.396 970.027,223.636 915.267,223.636"/>
<polygon points="970.027,278.396 1024.79,278.396 970.027,223.636"/>
<polygon points="1024.79,278.396 1024.79,223.636 970.027,223.636"/>
<polygon points="1024.79,278.396 1079.55,278.396 1024.79,223.636"/>
<polygon points="1079.55,278.396 1079.55,223.636 1024.79,223.636"/>
<polygon points="1079.55,278.396 1134.3,278.396 1079.55,223.636"/>
<polygon points="1134.3,278.396 1134.3,223.636 1079.55,223.636"/>
<polygon points="1134.3,278.396 1189.06,278.396 1134.3,223.636"/>
<polygon points="1189.06,278.396 1189.06,223.636 1134.3,223.636"/>
<polygon points="1189.06,278.396 1243.82,278.396 1189.06,223.636"/>
<polygon points="1243.82,278.396 1243.82,223.636 1189.06,223.636"/>
<polygon points="1294.64,278.396 1295.83,223.636 1243.82,223.636"/>
<polygon points="1243.82,223.636 1243.82,278.396 1294.64,278.396"/>
<polygon points="762.068,168.877 760.927,223.636 805.749,223.636"/>
<polygon points="805.749,223.636 805.749,168.877 762.068,168.877"/>
<polygon points="805.749,223.636 860.508,223.636 805.749,168.877"/>
<polygon points="860.508,223.636 860.508,168.877 805.749,168.877"/>
<polygon points="860.508,223.636 915.267,223.636 860.508,168.877"/>
<polygon points="915.267,223.636 915.267,168.877 860.508,168.877"/>
<polygon points="915.267,223.636 970.027,223.636 915.267,168.877"/>
<polygon points="970.027,223.636 970.027,168.877 915.267,168.877"/>
<polygon points="970.027,223.636 1024.79,223.636 970.027,168.877"/>
<polygon points="1024.79,223.636 1024.79,168.877 970.027,168.877"/>
<polygon points="1024.79,223.636 1079.55,223.636 1024.79,168.877"/>
<polygon points="1079.55,223.636 1079.55,168.877 1024.79,168.877"/>
<polygon points="1079.55,223.636 1134.3,223.636 1079.55,168.877"/>
<polygon points="1134.3,223.636 1134.3,168.877 1079.55,168.877"/>
<polygon points="1134.3,223.636 1189.06,223.636 1134.3,168.877"/>
<polygon points="1189.06,223.636 1189.06,168.877 1134.3,168.877"/>
<polygon points="1189.06,223.636 1243.82,223.636 1189.06,168.877"/>
<polygon points="1243.82,223.636 1243.82,168.877 1189.06,168.877"/>
<polygon points="1295.83,223.636 1297.02,168.877 1243.82,168.877"/>
<polygon points="1243.82,168.877 1243.82,223.636 1295.83,223.636"/>
<polygon points="762.968,125.668 762.068,168.877 805.749,168.877"/>
<polygon points="805.749,168.877 805.749,126.524 762.968,125.668"/>
<polygon points="860.508,127.619 805.749,126.524 805.749,168.877"/>
<polygon points="805.749,168.877 860.508,168.877 860.508,127.619"/>
<polygon points="915.267,128.714 860.508,127.619 860.508,168.877"/>
<polygon points="860.508,168.877 915.267,168.877 915.267,128.714"/>
<polygon points="970.027,129.81 915.267,128.714 915.267,168.877"/>
<polygon points="915.267,168.877 970.027,168.877 970.027,129.81"/>
<polygon points="1024.79,130.905 970.027,129.81 970.027,168.877"/>
<polygon points="970.027,168.877 1024.79,168.877 1024.79,130.905"/>
<polygon points="1079.55,132 1024.79,130.905 1024.79,168.877"/>
<polygon points="1024.79,168.877 1079.55,168.877 1079.55,132"/>
<polygon points="1134.3,133.095 1079.55,132 1079.55,168.877"/>
<polygon points="1079.55,168.877 1134.3,168.877 1134.3,133.095"/>
<polygon points="1189.06,134.19 1134.3,133.095 1134.3,168.877"/>
<polygon points="1134.3,168.877 1189.06,168.877 1189.06,134.19"/>
<polygon points="1243.82,135.286 1189.06,134.19 1189.06,168.877"/>
<polygon points="1189.06,168.877 1243.82,168.877 1243.82,135.286"/>
<polygon points="1297.73,136.364 1243.82,135.286 1243.82,168.877"/>
<polygon points="1243.82,168.877 1297.02,168.877 1297.73,136.364"/>
</g>
<text x="735" y="714.706" font-family="Arial" font-size="12" fill="#666">MeshCut: 200 triangles</text>
</svg>
