<?xml version="1.0" encoding="UTF-8"?>
<svg xmlns="http://www.w3.org/2000/svg" width="850" height="450" viewBox="0 0 850 450">
<rect width="100%" height="100%" fill="white"/>
<text x="200" y="30" text-anchor="middle" font-size="16" font-weight="bold">Earcut</text>
<text x="625" y="30" text-anchor="middle" font-size="16" font-weight="bold">MeshCut</text>
<line x1="412.5" y1="50" x2="412.5" y2="400" stroke="#ccc" stroke-width="1"/>
<g class="left-grid" stroke="#e0e0e0" stroke-width="0.5" fill="none">
<line x1="50" y1="350" x2="50" y2="50"/>
<line x1="54.6875" y1="350" x2="54.6875" y2="50"/>
<line x1="59.375" y1="350" x2="59.375" y2="50"/>
<line x1="64.0625" y1="350" x2="64.0625" y2="50"/>
<line x1="68.75" y1="350" x2="68.75" y2="50"/>
<line x1="73.4375" y1="350" x2="73.4375" y2="50"/>
<line x1="78.125" y1="350" x2="78.125" y2="50"/>
<line x1="82.8125" y1="350" x2="82.8125" y2="50"/>
<line x1="87.5" y1="350" x2="87.5" y2="50"/>
<line x1="92.1875" y1="350" x2="92.1875" y2="50"/>
<line x1="96.875" y1="350" x2="96.875" y2="50"/>
<line x1="101.562" y1="350" x2="101.562" y2="50"/>
<line x1="106.25" y1="350" x2="106.25" y2="50"/>
<line x1="110.938" y1="350" x2="110.938" y2="50"/>
<line x1="115.625" y1="350" x2="115.625" y2="50"/>
<line x1="120.312" y1="350" x2="120.312" y2="50"/>
<line x1="125" y1="350" x2="125" y2="50"/>
<line x1="129.688" y1="350" x2="129.688" y2="50"/>
<line x1="134.375" y1="350" x2="134.375" y2="50"/>
<line x1="139.062" y1="350" x2="139.062" y2="50"/>
<line x1="143.75" y1="350" x2="143.75" y2="50"/>
<line x1="148.438" y1="350" x2="148.438" y2="50"/>
<line x1="153.125" y1="350" x2="153.125" y2="50"/>
<line x1="157.812" y1="350" x2="157.812" y2="50"/>
<line x1="162.5" y1="350" x2="162.5" y2="50"/>
<line x1="167.188" y1="350" x2="167.188" y2="50"/>
<line x1="171.875" y1="350" x2="171.875" y2="50"/>
<line x1="176.562" y1="350" x2="176.562" y2="50"/>
<line x1="181.25" y1="350" x2="181.25" y2="50"/>
<line x1="185.938" y1="350" x2="185.938" y2="50"/>
<line x1="190.625" y1="350" x2="190.625" y2="50"/>
<line x1="195.312" y1="350" x2="195.312" y2="50"/>
<line x1="200" y1="350" x2="200" y2="50"/>
<line x1="204.688" y1="350" x2="204.688" y2="50"/>
<line x1="209.375" y1="350" x2="209.375" y2="50"/>
<line x1="214.062" y1="350" x2="214.062" y2="50"/>
<line x1="218.75" y1="350" x2="218.75" y2="50"/>
<line x1="223.438" y1="350" x2="223.438" y2="50"/>
<line x1="228.125" y1="350" x2="228.125" y2="50"/>
<line x1="232.812" y1="350" x2="232.812" y2="50"/>
<line x1="237.5" y1="350" x2="237.5" y2="50"/>
<line x1="242.188" y1="350" x2="242.188" y2="50"/>
<line x1="246.875" y1="350" x2="246.875" y2="50"/>
<line x1="251.562" y1="350" x2="251.562" y2="50"/>
<line x1="256.25" y1="350" x2="256.25" y2="50"/>
<line x1="260.938" y1="350" x2="260.938" y2="50"/>
<line x1="265.625" y1="350" x2="265.625" y2="50"/>
<line x1="270.312" y1="350" x2="270.312" y2="50"/>
<line x1="275" y1="350" x2="275" y2="50"/>
<line x1="279.688" y1="350" x2="279.688" y2="50"/>
<line x1="284.375" y1="350" x2="284.375" y2="50"/>
<line x1="289.062" y1="350" x2="289.062" y2="50"/>
<line x1="293.75" y1="350" x2="293.75" y2="50"/>
<line x1="298.438" y1="350" x2="298.438" y2="50"/>
<line x1="303.125" y1="350" x2="303.125" y2="50"/>
<line x1="307.812" y1="350" x2="307.812" y2="50"/>
<line x1="312.5" y1="350" x2="312.5" y2="50"/>
<line x1="317.188" y1="350" x2="317.188" y2="50"/>
<line x1="321.875" y1="350" x2="321.875" y2="50"/>
<line x1="326.562" y1="350" x2="326.562" y2="50"/>
<line x1="331.25" y1="350" x2="331.25" y2="50"/>
<line x1="335.938" y1="350" x2="335.938" y2="50"/>
<line x1="340.625" y1="350" x2="340.625" y2="50"/>
<line x1="345.312" y1="350" x2="345.312" y2="50"/>
<line x1="350" y1="350" x2="350" y2="50"/>
<line x1="50" y1="350" x2="350" y2="350"/>
<line x1="50" y1="345.312" x2="350" y2="345.312"/>
<line x1="50" y1="340.625" x2="350" y2="340.625"/>
<line x1="50" y1="335.938" x2="350" y2="335.938"/>
<line x1="50" y1="331.25" x2="350" y2="331.25"/>
<line x1="50" y1="326.562" x2="350" y2="326.562"/>
<line x1="50" y1="321.875" x2="350" y2="321.875"/>
<line x1="50" y1="317.188" x2="350" y2="317.188"/>
<line x1="50" y1="312.5" x2="350" y2="312.5"/>
<line x1="50" y1="307.812" x2="350" y2="307.812"/>
<line x1="50" y1="303.125" x2="350" y2="303.125"/>
<line x1="50" y1="298.438" x2="350" y2="298.438"/>
<line x1="50" y1="293.75" x2="350" y2="293.75"/>
<line x1="50" y1="289.062" x2="350" y2="289.062"/>
<line x1="50" y1="284.375" x2="350" y2="284.375"/>
<line x1="50" y1="279.688" x2="350" y2="279.688"/>
<line x1="50" y1="275" x2="350" y2="275"/>
<line x1="50" y1="270.312" x2="350" y2="270.312"/>
<line x1="50" y1="265.625" x2="350" y2="265.625"/>
<line x1="50" y1="260.938" x2="350" y2="260.938"/>
<line x1="50" y1="256.25" x2="350" y2="256.25"/>
<line x1="50" y1="251.562" x2="350" y2="251.562"/>
<line x1="50" y1="246.875" x2="350" y2="246.875"/>
<line x1="50" y1="242.188" x2="350" y2="242.188"/>
<line x1="50" y1="237.5" x2="350" y2="237.5"/>
<line x1="50" y1="232.812" x2="350" y2="232.812"/>
<line x1="50" y1="228.125" x2="350" y2="228.125"/>
<line x1="50" y1="223.438" x2="350" y2="223.438"/>
<line x1="50" y1="218.75" x2="350" y2="218.75"/>
<line x1="50" y1="214.062" x2="350" y2="214.062"/>
<line x1="50" y1="209.375" x2="350" y2="209.375"/>
<line x1="50" y1="204.688" x2="350" y2="204.688"/>
<line x1="50" y1="200" x2="350" y2="200"/>
<line x1="50" y1="195.312" x2="350" y2="195.312"/>
<line x1="50" y1="190.625" x2="350" y2="190.625"/>
<line x1="50" y1="185.938" x2="350" y2="185.938"/>
<line x1="50" y1="181.25" x2="350" y2="181.25"/>
<line x1="50" y1="176.562" x2="350" y2="176.562"/>
<line x1="50" y1="171.875" x2="350" y2="171.875"/>
<line x1="50" y1="167.188" x2="350" y2="167.188"/>
<line x1="50" y1="162.5" x2="350" y2="162.5"/>
<line x1="50" y1="157.812" x2="350" y2="157.812"/>
<line x1="50" y1="153.125" x2="350" y2="153.125"/>
<line x1="50" y1="148.438" x2="350" y2="148.438"/>
<line x1="50" y1="143.75" x2="350" y2="143.75"/>
<line x1="50" y1="139.062" x2="350" y2="139.062"/>
<line x1="50" y1="134.375" x2="350" y2="134.375"/>
<line x1="50" y1="129.688" x2="350" y2="129.688"/>
<line x1="50" y1="125" x2="350" y2="125"/>
<line x1="50" y1="120.312" x2="350" y2="120.312"/>
<line x1="50" y1="115.625" x2="350" y2="115.625"/>
<line x1="50" y1="110.938" x2="350" y2="110.938"/>
<line x1="50" y1="106.25" x2="350" y2="106.25"/>
<line x1="50" y1="101.562" x2="350" y2="101.562"/>
<line x1="50" y1="96.875" x2="350" y2="96.875"/>
<line x1="50" y1="92.1875" x2="350" y2="92.1875"/>
<line x1="50" y1="87.5" x2="350" y2="87.5"/>
<line x1="50" y1="82.8125" x2="350" y2="82.8125"/>
<line x1="50" y1="78.125" x2="350" y2="78.125"/>
<line x1="50" y1="73.4375" x2="350" y2="73.4375"/>
<line x1="50" y1="68.75" x2="350" y2="68.75"/>
<line x1="50" y1="64.0625" x2="350" y2="64.0625"/>
<line x1="50" y1="59.375" x2="350" y2="59.375"/>
<line x1="50" y1="54.6875" x2="350" y2="54.6875"/>
<line x1="50" y1="50" x2="350" y2="50"/>
</g>
<polygon points="176.562,235.625 273.125,236.562 274.062,186.875 230,185.938 230.938,136.25 175.625,135.313 176.562,235.625 " fill="#4CAF50" fill-opacity="0.3" stroke="#4CAF50" stroke-width="2"/>
<g fill="#FF5722" fill-opacity="0.2" stroke="#FF5722" stroke-width="0.5">
<polygon points="175.625,135.313 176.562,235.625 273.125,236.562"/>
<polygon points="273.125,236.562 274.062,186.875 230,185.938"/>
<polygon points="230,185.938 230.938,136.25 175.625,135.313"/>
<polygon points="175.625,135.313 273.125,236.562 230,185.938"/>
</g>
<text x="200" y="370" text-anchor="middle" font-size="12">Triangles: 4, Vertices: 7</text>
<g class="right-grid" stroke="#e0e0e0" stroke-width="0.5" fill="none">
<line x1="475" y1="350" x2="475" y2="50"/>
<line x1="479.688" y1="350" x2="479.688" y2="50"/>
<line x1="484.375" y1="350" x2="484.375" y2="50"/>
<line x1="489.062" y1="350" x2="489.062" y2="50"/>
<line x1="493.75" y1="350" x2="493.75" y2="50"/>
<line x1="498.438" y1="350" x2="498.438" y2="50"/>
<line x1="503.125" y1="350" x2="503.125" y2="50"/>
<line x1="507.812" y1="350" x2="507.812" y2="50"/>
<line x1="512.5" y1="350" x2="512.5" y2="50"/>
<line x1="517.188" y1="350" x2="517.188" y2="50"/>
<line x1="521.875" y1="350" x2="521.875" y2="50"/>
<line x1="526.562" y1="350" x2="526.562" y2="50"/>
<line x1="531.25" y1="350" x2="531.25" y2="50"/>
<line x1="535.938" y1="350" x2="535.938" y2="50"/>
<line x1="540.625" y1="350" x2="540.625" y2="50"/>
<line x1="545.312" y1="350" x2="545.312" y2="50"/>
<line x1="550" y1="350" x2="550" y2="50"/>
<line x1="554.688" y1="350" x2="554.688" y2="50"/>
<line x1="559.375" y1="350" x2="559.375" y2="50"/>
<line x1="564.062" y1="350" x2="564.062" y2="50"/>
<line x1="568.75" y1="350" x2="568.75" y2="50"/>
<line x1="573.438" y1="350" x2="573.438" y2="50"/>
<line x1="578.125" y1="350" x2="578.125" y2="50"/>
<line x1="582.812" y1="350" x2="582.812" y2="50"/>
<line x1="587.5" y1="350" x2="587.5" y2="50"/>
<line x1="592.188" y1="350" x2="592.188" y2="50"/>
<line x1="596.875" y1="350" x2="596.875" y2="50"/>
<line x1="601.562" y1="350" x2="601.562" y2="50"/>
<line x1="606.25" y1="350" x2="606.25" y2="50"/>
<line x1="610.938" y1="350" x2="610.938" y2="50"/>
<line x1="615.625" y1="350" x2="615.625" y2="50"/>
<line x1="620.312" y1="350" x2="620.312" y2="50"/>
<line x1="625" y1="350" x2="625" y2="50"/>
<line x1="629.688" y1="350" x2="629.688" y2="50"/>
<line x1="634.375" y1="350" x2="634.375" y2="50"/>
<line x1="639.062" y1="350" x2="639.062" y2="50"/>
<line x1="643.75" y1="350" x2="643.75" y2="50"/>
<line x1="648.438" y1="350" x2="648.438" y2="50"/>
<line x1="653.125" y1="350" x2="653.125" y2="50"/>
<line x1="657.812" y1="350" x2="657.812" y2="50"/>
<line x1="662.5" y1="350" x2="662.5" y2="50"/>
<line x1="667.188" y1="350" x2="667.188" y2="50"/>
<line x1="671.875" y1="350" x2="671.875" y2="50"/>
<line x1="676.562" y1="350" x2="676.562" y2="50"/>
<line x1="681.25" y1="350" x2="681.25" y2="50"/>
<line x1="685.938" y1="350" x2="685.938" y2="50"/>
<line x1="690.625" y1="350" x2="690.625" y2="50"/>
<line x1="695.312" y1="350" x2="695.312" y2="50"/>
<line x1="700" y1="350" x2="700" y2="50"/>
<line x1="704.688" y1="350" x2="704.688" y2="50"/>
<line x1="709.375" y1="350" x2="709.375" y2="50"/>
<line x1="714.062" y1="350" x2="714.062" y2="50"/>
<line x1="718.75" y1="350" x2="718.75" y2="50"/>
<line x1="723.438" y1="350" x2="723.438" y2="50"/>
<line x1="728.125" y1="350" x2="728.125" y2="50"/>
<line x1="732.812" y1="350" x2="732.812" y2="50"/>
<line x1="737.5" y1="350" x2="737.5" y2="50"/>
<line x1="742.188" y1="350" x2="742.188" y2="50"/>
<line x1="746.875" y1="350" x2="746.875" y2="50"/>
<line x1="751.562" y1="350" x2="751.562" y2="50"/>
<line x1="756.25" y1="350" x2="756.25" y2="50"/>
<line x1="760.938" y1="350" x2="760.938" y2="50"/>
<line x1="765.625" y1="350" x2="765.625" y2="50"/>
<line x1="770.312" y1="350" x2="770.312" y2="50"/>
<line x1="775" y1="350" x2="775" y2="50"/>
<line x1="475" y1="350" x2="775" y2="350"/>
<line x1="475" y1="345.312" x2="775" y2="345.312"/>
<line x1="475" y1="340.625" x2="775" y2="340.625"/>
<line x1="475" y1="335.938" x2="775" y2="335.938"/>
<line x1="475" y1="331.25" x2="775" y2="331.25"/>
<line x1="475" y1="326.562" x2="775" y2="326.562"/>
<line x1="475" y1="321.875" x2="775" y2="321.875"/>
<line x1="475" y1="317.188" x2="775" y2="317.188"/>
<line x1="475" y1="312.5" x2="775" y2="312.5"/>
<line x1="475" y1="307.812" x2="775" y2="307.812"/>
<line x1="475" y1="303.125" x2="775" y2="303.125"/>
<line x1="475" y1="298.438" x2="775" y2="298.438"/>
<line x1="475" y1="293.75" x2="775" y2="293.75"/>
<line x1="475" y1="289.062" x2="775" y2="289.062"/>
<line x1="475" y1="284.375" x2="775" y2="284.375"/>
<line x1="475" y1="279.688" x2="775" y2="279.688"/>
<line x1="475" y1="275" x2="775" y2="275"/>
<line x1="475" y1="270.312" x2="775" y2="270.312"/>
<line x1="475" y1="265.625" x2="775" y2="265.625"/>
<line x1="475" y1="260.938" x2="775" y2="260.938"/>
<line x1="475" y1="256.25" x2="775" y2="256.25"/>
<line x1="475" y1="251.562" x2="775" y2="251.562"/>
<line x1="475" y1="246.875" x2="775" y2="246.875"/>
<line x1="475" y1="242.188" x2="775" y2="242.188"/>
<line x1="475" y1="237.5" x2="775" y2="237.5"/>
<line x1="475" y1="232.812" x2="775" y2="232.812"/>
<line x1="475" y1="228.125" x2="775" y2="228.125"/>
<line x1="475" y1="223.438" x2="775" y2="223.438"/>
<line x1="475" y1="218.75" x2="775" y2="218.75"/>
<line x1="475" y1="214.062" x2="775" y2="214.062"/>
<line x1="475" y1="209.375" x2="775" y2="209.375"/>
<line x1="475" y1="204.688" x2="775" y2="204.688"/>
<line x1="475" y1="200" x2="775" y2="200"/>
<line x1="475" y1="195.312" x2="775" y2="195.312"/>
<line x1="475" y1="190.625" x2="775" y2="190.625"/>
<line x1="475" y1="185.938" x2="775" y2="185.938"/>
<line x1="475" y1="181.25" x2="775" y2="181.25"/>
<line x1="475" y1="176.562" x2="775" y2="176.562"/>
<line x1="475" y1="171.875" x2="775" y2="171.875"/>
<line x1="475" y1="167.188" x2="775" y2="167.188"/>
<line x1="475" y1="162.5" x2="775" y2="162.5"/>
<line x1="475" y1="157.812" x2="775" y2="157.812"/>
<line x1="475" y1="153.125" x2="775" y2="153.125"/>
<line x1="475" y1="148.438" x2="775" y2="148.438"/>
<line x1="475" y1="143.75" x2="775" y2="143.75"/>
<line x1="475" y1="139.062" x2="775" y2="139.062"/>
<line x1="475" y1="134.375" x2="775" y2="134.375"/>
<line x1="475" y1="129.688" x2="775" y2="129.688"/>
<line x1="475" y1="125" x2="775" y2="125"/>
<line x1="475" y1="120.312" x2="775" y2="120.312"/>
<line x1="475" y1="115.625" x2="775" y2="115.625"/>
<line x1="475" y1="110.938" x2="775" y2="110.938"/>
<line x1="475" y1="106.25" x2="775" y2="106.25"/>
<line x1="475" y1="101.562" x2="775" y2="101.562"/>
<line x1="475" y1="96.875" x2="775" y2="96.875"/>
<line x1="475" y1="92.1875" x2="775" y2="92.1875"/>
<line x1="475" y1="87.5" x2="775" y2="87.5"/>
<line x1="475" y1="82.8125" x2="775" y2="82.8125"/>
<line x1="475" y1="78.125" x2="775" y2="78.125"/>
<line x1="475" y1="73.4375" x2="775" y2="73.4375"/>
<line x1="475" y1="68.75" x2="775" y2="68.75"/>
<line x1="475" y1="64.0625" x2="775" y2="64.0625"/>
<line x1="475" y1="59.375" x2="775" y2="59.375"/>
<line x1="475" y1="54.6875" x2="775" y2="54.6875"/>
<line x1="475" y1="50" x2="775" y2="50"/>
</g>
<polygon points="601.562,235.625 698.125,236.562 699.062,186.875 655,185.938 655.938,136.25 600.625,135.313 601.562,235.625 " fill="#4CAF50" fill-opacity="0.3" stroke="#4CAF50" stroke-width="2"/>
<g fill="#2196F3" fill-opacity="0.2" stroke="#2196F3" stroke-width="0.5">
<polygon points="601.562,232.812 601.536,232.812 601.562,235.625"/>
<polygon points="606.25,235.671 606.25,232.812 601.562,232.812"/>
<polygon points="606.25,235.671 601.562,232.812 601.562,235.625"/>
<polygon points="610.938,235.716 610.938,232.812 606.25,232.812"/>
<polygon points="606.25,232.812 606.25,235.671 610.938,235.716"/>
<polygon points="615.625,235.762 615.625,232.812 610.938,232.812"/>
<polygon points="610.938,232.812 610.938,235.716 615.625,235.762"/>
<polygon points="620.312,235.807 620.312,232.812 615.625,232.812"/>
<polygon points="615.625,232.812 615.625,235.762 620.312,235.807"/>
<polygon points="625,235.853 625,232.812 620.312,232.812"/>
<polygon points="620.312,232.812 620.312,235.807 625,235.853"/>
<polygon points="629.688,235.898 629.688,232.812 625,232.812"/>
<polygon points="625,232.812 625,235.853 629.688,235.898"/>
<polygon points="634.375,235.944 634.375,232.812 629.688,232.812"/>
<polygon points="629.688,232.812 629.688,235.898 634.375,235.944"/>
<polygon points="639.062,235.989 639.062,232.812 634.375,232.812"/>
<polygon points="634.375,232.812 634.375,235.944 639.062,235.989"/>
<polygon points="643.75,236.035 643.75,232.812 639.062,232.812"/>
<polygon points="639.062,232.812 639.062,235.989 643.75,236.035"/>
<polygon points="648.438,236.08 648.438,232.812 643.75,232.812"/>
<polygon points="643.75,232.812 643.75,236.035 648.438,236.08"/>
<polygon points="653.125,236.126 653.125,232.812 648.438,232.812"/>
<polygon points="648.438,232.812 648.438,236.08 653.125,236.126"/>
<polygon points="657.812,236.171 657.812,232.812 653.125,232.812"/>
<polygon points="653.125,232.812 653.125,236.126 657.812,236.171"/>
<polygon points="662.5,236.217 662.5,232.812 657.812,232.812"/>
<polygon points="657.812,232.812 657.812,236.171 662.5,236.217"/>
<polygon points="667.188,236.262 667.188,232.812 662.5,232.812"/>
<polygon points="662.5,232.812 662.5,236.217 667.188,236.262"/>
<polygon points="671.875,236.308 671.875,232.812 667.188,232.812"/>
<polygon points="667.188,232.812 667.188,236.262 671.875,236.308"/>
<polygon points="676.562,236.353 676.562,232.812 671.875,232.812"/>
<polygon points="671.875,232.812 671.875,236.308 676.562,236.353"/>
<polygon points="681.25,236.399 681.25,232.812 676.562,232.812"/>
<polygon points="676.562,232.812 676.562,236.353 681.25,236.399"/>
<polygon points="685.938,236.444 685.938,232.812 681.25,232.812"/>
<polygon points="681.25,232.812 681.25,236.399 685.938,236.444"/>
<polygon points="690.625,236.49 690.625,232.812 685.938,232.812"/>
<polygon points="685.938,232.812 685.938,236.444 690.625,236.49"/>
<polygon points="695.312,236.535 695.312,232.812 690.625,232.812"/>
<polygon points="690.625,232.812 690.625,236.49 695.312,236.535"/>
<polygon points="698.125,236.562 698.196,232.812 695.312,232.812"/>
<polygon points="695.312,232.812 695.312,236.535 698.125,236.562"/>
<polygon points="601.492,228.125 601.536,232.812 601.562,232.812"/>
<polygon points="601.562,232.812 601.562,228.125 601.492,228.125"/>
<polygon points="601.562,232.812 606.25,232.812 601.562,228.125"/>
<polygon points="606.25,232.812 606.25,228.125 601.562,228.125"/>
<polygon points="606.25,232.812 610.938,232.812 606.25,228.125"/>
<polygon points="610.938,232.812 610.938,228.125 606.25,228.125"/>
<polygon points="610.938,232.812 615.625,232.812 610.938,228.125"/>
<polygon points="615.625,232.812 615.625,228.125 610.938,228.125"/>
<polygon points="615.625,232.812 620.312,232.812 615.625,228.125"/>
<polygon points="620.312,232.812 620.312,228.125 615.625,228.125"/>
<polygon points="620.312,232.812 625,232.812 620.312,228.125"/>
<polygon points="625,232.812 625,228.125 620.312,228.125"/>
<polygon points="625,232.812 629.688,232.812 625,228.125"/>
<polygon points="629.688,232.812 629.688,228.125 625,228.125"/>
<polygon points="629.688,232.812 634.375,232.812 629.688,228.125"/>
<polygon points="634.375,232.812 634.375,228.125 629.688,228.125"/>
<polygon points="634.375,232.812 639.062,232.812 634.375,228.125"/>
<polygon points="639.062,232.812 639.062,228.125 634.375,228.125"/>
<polygon points="639.062,232.812 643.75,232.812 639.062,228.125"/>
<polygon points="643.75,232.812 643.75,228.125 639.062,228.125"/>
<polygon points="643.75,232.812 648.438,232.812 643.75,228.125"/>
<polygon points="648.438,232.812 648.438,228.125 643.75,228.125"/>
<polygon points="648.438,232.812 653.125,232.812 648.438,228.125"/>
<polygon points="653.125,232.812 653.125,228.125 648.438,228.125"/>
<polygon points="653.125,232.812 657.812,232.812 653.125,228.125"/>
<polygon points="657.812,232.812 657.812,228.125 653.125,228.125"/>
<polygon points="657.812,232.812 662.5,232.812 657.812,228.125"/>
<polygon points="662.5,232.812 662.5,228.125 657.812,228.125"/>
<polygon points="662.5,232.812 667.188,232.812 662.5,228.125"/>
<polygon points="667.188,232.812 667.188,228.125 662.5,228.125"/>
<polygon points="667.188,232.812 671.875,232.812 667.188,228.125"/>
<polygon points="671.875,232.812 671.875,228.125 667.188,228.125"/>
<polygon points="671.875,232.812 676.562,232.812 671.875,228.125"/>
<polygon points="676.562,232.812 676.562,228.125 671.875,228.125"/>
<polygon points="676.562,232.812 681.25,232.812 676.562,228.125"/>
<polygon points="681.25,232.812 681.25,228.125 676.562,228.125"/>
<polygon points="681.25,232.812 685.938,232.812 681.25,228.125"/>
<polygon points="685.938,232.812 685.938,228.125 681.25,228.125"/>
<polygon points="685.938,232.812 690.625,232.812 685.938,228.125"/>
<polygon points="690.625,232.812 690.625,228.125 685.938,228.125"/>
<polygon points="690.625,232.812 695.312,232.812 690.625,228.125"/>
<polygon points="695.312,232.812 695.312,228.125 690.625,228.125"/>
<polygon points="698.196,232.812 698.284,228.125 695.312,228.125"/>
<polygon points="695.312,228.125 695.312,232.812 698.196,232.812"/>
<polygon points="601.449,223.438 601.492,228.125 601.562,228.125"/>
<polygon points="601.562,228.125 601.562,223.438 601.449,223.438"/>
<polygon points="601.562,228.125 606.25,228.125 601.562,223.438"/>
<polygon points="606.25,228.125 606.25,223.438 601.562,223.438"/>
<polygon points="606.25,228.125 610.938,228.125 606.25,223.438"/>
<polygon points="610.938,228.125 610.938,223.438 606.25,223.438"/>
<polygon points="610.938,228.125 615.625,228.125 610.938,223.438"/>
<polygon points="615.625,228.125 615.625,223.438 610.938,223.438"/>
<polygon points="615.625,228.125 620.312,228.125 615.625,223.438"/>
<polygon points="620.312,228.125 620.312,223.438 615.625,223.438"/>
<polygon points="620.312,228.125 625,228.125 620.312,223.438"/>
<polygon points="625,228.125 625,223.438 620.312,223.438"/>
<polygon points="625,228.125 629.688,228.125 625,223.438"/>
<polygon points="629.688,228.125 629.688,223.438 625,223.438"/>
<polygon points="629.688,228.125 634.375,228.125 629.688,223.438"/>
<polygon points="634.375,228.125 634.375,223.438 629.688,223.438"/>
<polygon points="634.375,228.125 639.062,228.125 634.375,223.438"/>
<polygon points="639.062,228.125 639.062,223.438 634.375,223.438"/>
<polygon points="639.062,228.125 643.75,228.125 639.062,223.438"/>
<polygon points="643.75,228.125 643.75,223.438 639.062,223.438"/>
<polygon points="643.75,228.125 648.438,228.125 643.75,223.438"/>
<polygon points="648.438,228.125 648.438,223.438 643.75,223.438"/>
<polygon points="648.438,228.125 653.125,228.125 648.438,223.438"/>
<polygon points="653.125,228.125 653.125,223.438 648.438,223.438"/>
<polygon points="653.125,228.125 657.812,228.125 653.125,223.438"/>
<polygon points="657.812,228.125 657.812,223.438 653.125,223.438"/>
<polygon points="657.812,228.125 662.5,228.125 657.812,223.438"/>
<polygon points="662.5,228.125 662.5,223.438 657.812,223.438"/>
<polygon points="662.5,228.125 667.188,228.125 662.5,223.438"/>
<polygon points="667.188,228.125 667.188,223.438 662.5,223.438"/>
<polygon points="667.188,228.125 671.875,228.125 667.188,223.438"/>
<polygon points="671.875,228.125 671.875,223.438 667.188,223.438"/>
<polygon points="671.875,228.125 676.562,228.125 671.875,223.438"/>
<polygon points="676.562,228.125 676.562,223.438 671.875,223.438"/>
<polygon points="676.562,228.125 681.25,228.125 676.562,223.438"/>
<polygon points="681.25,228.125 681.25,223.438 676.562,223.438"/>
<polygon points="681.25,228.125 685.938,228.125 681.25,223.438"/>
<polygon points="685.938,228.125 685.938,223.438 681.25,223.438"/>
<polygon points="685.938,228.125 690.625,228.125 685.938,223.438"/>
<polygon points="690.625,228.125 690.625,223.438 685.938,223.438"/>
<polygon points="690.625,228.125 695.312,228.125 690.625,223.438"/>
<polygon points="695.312,228.125 695.312,223.438 690.625,223.438"/>
<polygon points="698.284,228.125 698.373,223.438 695.312,223.438"/>
<polygon points="695.312,223.438 695.312,228.125 698.284,228.125"/>
<polygon points="601.405,218.75 601.449,223.438 601.562,223.438"/>
<polygon points="601.562,223.438 601.562,218.75 601.405,218.75"/>
<polygon points="601.562,223.438 606.25,223.438 601.562,218.75"/>
<polygon points="606.25,223.438 606.25,218.75 601.562,218.75"/>
<polygon points="606.25,223.438 610.938,223.438 606.25,218.75"/>
<polygon points="610.938,223.438 610.938,218.75 606.25,218.75"/>
<polygon points="610.938,223.438 615.625,223.438 610.938,218.75"/>
<polygon points="615.625,223.438 615.625,218.75 610.938,218.75"/>
<polygon points="615.625,223.438 620.312,223.438 615.625,218.75"/>
<polygon points="620.312,223.438 620.312,218.75 615.625,218.75"/>
<polygon points="620.312,223.438 625,223.438 620.312,218.75"/>
<polygon points="625,223.438 625,218.75 620.312,218.75"/>
<polygon points="625,223.438 629.688,223.438 625,218.75"/>
<polygon points="629.688,223.438 629.688,218.75 625,218.75"/>
<polygon points="629.688,223.438 634.375,223.438 629.688,218.75"/>
<polygon points="634.375,223.438 634.375,218.75 629.688,218.75"/>
<polygon points="634.375,223.438 639.062,223.438 634.375,218.75"/>
<polygon points="639.062,223.438 639.062,218.75 634.375,218.75"/>
<polygon points="639.062,223.438 643.75,223.438 639.062,218.75"/>
<polygon points="643.75,223.438 643.75,218.75 639.062,218.75"/>
<polygon points="643.75,223.438 648.438,223.438 643.75,218.75"/>
<polygon points="648.438,223.438 648.438,218.75 643.75,218.75"/>
<polygon points="648.438,223.438 653.125,223.438 648.438,218.75"/>
<polygon points="653.125,223.438 653.125,218.75 648.438,218.75"/>
<polygon points="653.125,223.438 657.812,223.438 653.125,218.75"/>
<polygon points="657.812,223.438 657.812,218.75 653.125,218.75"/>
<polygon points="657.812,223.438 662.5,223.438 657.812,218.75"/>
<polygon points="662.5,223.438 662.5,218.75 657.812,218.75"/>
<polygon points="662.5,223.438 667.188,223.438 662.5,218.75"/>
<polygon points="667.188,223.438 667.188,218.75 662.5,218.75"/>
<polygon points="667.188,223.438 671.875,223.438 667.188,218.75"/>
<polygon points="671.875,223.438 671.875,218.75 667.188,218.75"/>
<polygon points="671.875,223.438 676.562,223.438 671.875,218.75"/>
<polygon points="676.562,223.438 676.562,218.75 671.875,218.75"/>
<polygon points="676.562,223.438 681.25,223.438 676.562,218.75"/>
<polygon points="681.25,223.438 681.25,218.75 676.562,218.75"/>
<polygon points="681.25,223.438 685.938,223.438 681.25,218.75"/>
<polygon points="685.938,223.438 685.938,218.75 681.25,218.75"/>
<polygon points="685.938,223.438 690.625,223.438 685.938,218.75"/>
<polygon points="690.625,223.438 690.625,218.75 685.938,218.75"/>
<polygon points="690.625,223.438 695.312,223.438 690.625,218.75"/>
<polygon points="695.312,223.438 695.312,218.75 690.625,218.75"/>
<polygon points="698.373,223.438 698.461,218.75 695.312,218.75"/>
<polygon points="695.312,218.75 695.312,223.438 698.373,223.438"/>
<polygon points="601.361,214.062 601.405,218.75 601.562,218.75"/>
<polygon points="601.562,218.75 601.562,214.062 601.361,214.062"/>
<polygon points="601.562,218.75 606.25,218.75 601.562,214.062"/>
<polygon points="606.25,218.75 606.25,214.062 601.562,214.062"/>
<polygon points="606.25,218.75 610.938,218.75 606.25,214.062"/>
<polygon points="610.938,218.75 610.938,214.062 606.25,214.062"/>
<polygon points="610.938,218.75 615.625,218.75 610.938,214.062"/>
<polygon points="615.625,218.75 615.625,214.062 610.938,214.062"/>
<polygon points="615.625,218.75 620.312,218.75 615.625,214.062"/>
<polygon points="620.312,218.75 620.312,214.062 615.625,214.062"/>
<polygon points="620.312,218.75 625,218.75 620.312,214.062"/>
<polygon points="625,218.75 625,214.062 620.312,214.062"/>
<polygon points="625,218.75 629.688,218.75 625,214.062"/>
<polygon points="629.688,218.75 629.688,214.062 625,214.062"/>
<polygon points="629.688,218.75 634.375,218.75 629.688,214.062"/>
<polygon points="634.375,218.75 634.375,214.062 629.688,214.062"/>
<polygon points="634.375,218.75 639.062,218.75 634.375,214.062"/>
<polygon points="639.062,218.75 639.062,214.062 634.375,214.062"/>
<polygon points="639.062,218.75 643.75,218.75 639.062,214.062"/>
<polygon points="643.75,218.75 643.75,214.062 639.062,214.062"/>
<polygon points="643.75,218.75 648.438,218.75 643.75,214.062"/>
<polygon points="648.438,218.75 648.438,214.062 643.75,214.062"/>
<polygon points="648.438,218.75 653.125,218.75 648.438,214.062"/>
<polygon points="653.125,218.75 653.125,214.062 648.438,214.062"/>
<polygon points="653.125,218.75 657.812,218.75 653.125,214.062"/>
<polygon points="657.812,218.75 657.812,214.062 653.125,214.062"/>
<polygon points="657.812,218.75 662.5,218.75 657.812,214.062"/>
<polygon points="662.5,218.75 662.5,214.062 657.812,214.062"/>
<polygon points="662.5,218.75 667.188,218.75 662.5,214.062"/>
<polygon points="667.188,218.75 667.188,214.062 662.5,214.062"/>
<polygon points="667.188,218.75 671.875,218.75 667.188,214.062"/>
<polygon points="671.875,218.75 671.875,214.062 667.188,214.062"/>
<polygon points="671.875,218.75 676.562,218.75 671.875,214.062"/>
<polygon points="676.562,218.75 676.562,214.062 671.875,214.062"/>
<polygon points="676.562,218.75 681.25,218.75 676.562,214.062"/>
<polygon points="681.25,218.75 681.25,214.062 676.562,214.062"/>
<polygon points="681.25,218.75 685.938,218.75 681.25,214.062"/>
<polygon points="685.938,218.75 685.938,214.062 681.25,214.062"/>
<polygon points="685.938,218.75 690.625,218.75 685.938,214.062"/>
<polygon points="690.625,218.75 690.625,214.062 685.938,214.062"/>
<polygon points="690.625,218.75 695.312,218.75 690.625,214.062"/>
<polygon points="695.312,218.75 695.312,214.062 690.625,214.062"/>
<polygon points="698.461,218.75 698.55,214.062 695.312,214.062"/>
<polygon points="695.312,214.062 695.312,218.75 698.461,218.75"/>
<polygon points="601.317,209.375 601.361,214.062 601.562,214.062"/>
<polygon points="601.562,214.062 601.562,209.375 601.317,209.375"/>
<polygon points="601.562,214.062 606.25,214.062 601.562,209.375"/>
<polygon points="606.25,214.062 606.25,209.375 601.562,209.375"/>
<polygon points="606.25,214.062 610.938,214.062 606.25,209.375"/>
<polygon points="610.938,214.062 610.938,209.375 606.25,209.375"/>
<polygon points="610.938,214.062 615.625,214.062 610.938,209.375"/>
<polygon points="615.625,214.062 615.625,209.375 610.938,209.375"/>
<polygon points="615.625,214.062 620.312,214.062 615.625,209.375"/>
<polygon points="620.312,214.062 620.312,209.375 615.625,209.375"/>
<polygon points="620.312,214.062 625,214.062 620.312,209.375"/>
<polygon points="625,214.062 625,209.375 620.312,209.375"/>
<polygon points="625,214.062 629.688,214.062 625,209.375"/>
<polygon points="629.688,214.062 629.688,209.375 625,209.375"/>
<polygon points="629.688,214.062 634.375,214.062 629.688,209.375"/>
<polygon points="634.375,214.062 634.375,209.375 629.688,209.375"/>
<polygon points="634.375,214.062 639.062,214.062 634.375,209.375"/>
<polygon points="639.062,214.062 639.062,209.375 634.375,209.375"/>
<polygon points="639.062,214.062 643.75,214.062 639.062,209.375"/>
<polygon points="643.75,214.062 643.75,209.375 639.062,209.375"/>
<polygon points="643.75,214.062 648.438,214.062 643.75,209.375"/>
<polygon points="648.438,214.062 648.438,209.375 643.75,209.375"/>
<polygon points="648.438,214.062 653.125,214.062 648.438,209.375"/>
<polygon points="653.125,214.062 653.125,209.375 648.438,209.375"/>
<polygon points="653.125,214.062 657.812,214.062 653.125,209.375"/>
<polygon points="657.812,214.062 657.812,209.375 653.125,209.375"/>
<polygon points="657.812,214.062 662.5,214.062 657.812,209.375"/>
<polygon points="662.5,214.062 662.5,209.375 657.812,209.375"/>
<polygon points="662.5,214.062 667.188,214.062 662.5,209.375"/>
<polygon points="667.188,214.062 667.188,209.375 662.5,209.375"/>
<polygon points="667.188,214.062 671.875,214.062 667.188,209.375"/>
<polygon points="671.875,214.062 671.875,209.375 667.188,209.375"/>
<polygon points="671.875,214.062 676.562,214.062 671.875,209.375"/>
<polygon points="676.562,214.062 676.562,209.375 671.875,209.375"/>
<polygon points="676.562,214.062 681.25,214.062 676.562,209.375"/>
<polygon points="681.25,214.062 681.25,209.375 676.562,209.375"/>
<polygon points="681.25,214.062 685.938,214.062 681.25,209.375"/>
<polygon points="685.938,214.062 685.938,209.375 681.25,209.375"/>
<polygon points="685.938,214.062 690.625,214.062 685.938,209.375"/>
<polygon points="690.625,214.062 690.625,209.375 685.938,209.375"/>
<polygon points="690.625,214.062 695.312,214.062 690.625,209.375"/>
<polygon points="695.312,214.062 695.312,209.375 690.625,209.375"/>
<polygon points="698.55,214.062 698.638,209.375 695.312,209.375"/>
<polygon points="695.312,209.375 695.312,214.062 698.55,214.062"/>
<polygon points="601.273,204.688 601.317,209.375 601.562,209.375"/>
<polygon points="601.562,209.375 601.562,204.688 601.273,204.688"/>
<polygon points="601.562,209.375 606.25,209.375 601.562,204.688"/>
<polygon points="606.25,209.375 606.25,204.688 601.562,204.688"/>
<polygon points="606.25,209.375 610.938,209.375 606.25,204.688"/>
<polygon points="610.938,209.375 610.938,204.688 606.25,204.688"/>
<polygon points="610.938,209.375 615.625,209.375 610.938,204.688"/>
<polygon points="615.625,209.375 615.625,204.688 610.938,204.688"/>
<polygon points="615.625,209.375 620.312,209.375 615.625,204.688"/>
<polygon points="620.312,209.375 620.312,204.688 615.625,204.688"/>
<polygon points="620.312,209.375 625,209.375 620.312,204.688"/>
<polygon points="625,209.375 625,204.688 620.312,204.688"/>
<polygon points="625,209.375 629.688,209.375 625,204.688"/>
<polygon points="629.688,209.375 629.688,204.688 625,204.688"/>
<polygon points="629.688,209.375 634.375,209.375 629.688,204.688"/>
<polygon points="634.375,209.375 634.375,204.688 629.688,204.688"/>
<polygon points="634.375,209.375 639.062,209.375 634.375,204.688"/>
<polygon points="639.062,209.375 639.062,204.688 634.375,204.688"/>
<polygon points="639.062,209.375 643.75,209.375 639.062,204.688"/>
<polygon points="643.75,209.375 643.75,204.688 639.062,204.688"/>
<polygon points="643.75,209.375 648.438,209.375 643.75,204.688"/>
<polygon points="648.438,209.375 648.438,204.688 643.75,204.688"/>
<polygon points="648.438,209.375 653.125,209.375 648.438,204.688"/>
<polygon points="653.125,209.375 653.125,204.688 648.438,204.688"/>
<polygon points="653.125,209.375 657.812,209.375 653.125,204.688"/>
<polygon points="657.812,209.375 657.812,204.688 653.125,204.688"/>
<polygon points="657.812,209.375 662.5,209.375 657.812,204.688"/>
<polygon points="662.5,209.375 662.5,204.688 657.812,204.688"/>
<polygon points="662.5,209.375 667.188,209.375 662.5,204.688"/>
<polygon points="667.188,209.375 667.188,204.688 662.5,204.688"/>
<polygon points="667.188,209.375 671.875,209.375 667.188,204.688"/>
<polygon points="671.875,209.375 671.875,204.688 667.188,204.688"/>
<polygon points="671.875,209.375 676.562,209.375 671.875,204.688"/>
<polygon points="676.562,209.375 676.562,204.688 671.875,204.688"/>
<polygon points="676.562,209.375 681.25,209.375 676.562,204.688"/>
<polygon points="681.25,209.375 681.25,204.688 676.562,204.688"/>
<polygon points="681.25,209.375 685.938,209.375 681.25,204.688"/>
<polygon points="685.938,209.375 685.938,204.688 681.25,204.688"/>
<polygon points="685.938,209.375 690.625,209.375 685.938,204.688"/>
<polygon points="690.625,209.375 690.625,204.688 685.938,204.688"/>
<polygon points="690.625,209.375 695.312,209.375 690.625,204.688"/>
<polygon points="695.312,209.375 695.312,204.688 690.625,204.688"/>
<polygon points="698.638,209.375 698.726,204.688 695.312,204.688"/>
<polygon points="695.312,204.688 695.312,209.375 698.638,209.375"/>
<polygon points="601.23,200 601.273,204.688 601.562,204.688"/>
<polygon points="601.562,204.688 601.562,200 601.23,200"/>
<polygon points="601.562,204.688 606.25,204.688 601.562,200"/>
<polygon points="606.25,204.688 606.25,200 601.562,200"/>
<polygon points="606.25,204.688 610.938,204.688 606.25,200"/>
<polygon points="610.938,204.688 610.938,200 606.25,200"/>
<polygon points="610.938,204.688 615.625,204.688 610.938,200"/>
<polygon points="615.625,204.688 615.625,200 610.938,200"/>
<polygon points="615.625,204.688 620.312,204.688 615.625,200"/>
<polygon points="620.312,204.688 620.312,200 615.625,200"/>
<polygon points="620.312,204.688 625,204.688 620.312,200"/>
<polygon points="625,204.688 625,200 620.312,200"/>
<polygon points="625,204.688 629.688,204.688 625,200"/>
<polygon points="629.688,204.688 629.688,200 625,200"/>
<polygon points="629.688,204.688 634.375,204.688 629.688,200"/>
<polygon points="634.375,204.688 634.375,200 629.688,200"/>
<polygon points="634.375,204.688 639.062,204.688 634.375,200"/>
<polygon points="639.062,204.688 639.062,200 634.375,200"/>
<polygon points="639.062,204.688 643.75,204.688 639.062,200"/>
<polygon points="643.75,204.688 643.75,200 639.062,200"/>
<polygon points="643.75,204.688 648.438,204.688 643.75,200"/>
<polygon points="648.438,204.688 648.438,200 643.75,200"/>
<polygon points="648.438,204.688 653.125,204.688 648.438,200"/>
<polygon points="653.125,204.688 653.125,200 648.438,200"/>
<polygon points="653.125,204.688 657.812,204.688 653.125,200"/>
<polygon points="657.812,204.688 657.812,200 653.125,200"/>
<polygon points="657.812,204.688 662.5,204.688 657.812,200"/>
<polygon points="662.5,204.688 662.5,200 657.812,200"/>
<polygon points="662.5,204.688 667.188,204.688 662.5,200"/>
<polygon points="667.188,204.688 667.188,200 662.5,200"/>
<polygon points="667.188,204.688 671.875,204.688 667.188,200"/>
<polygon points="671.875,204.688 671.875,200 667.188,200"/>
<polygon points="671.875,204.688 676.562,204.688 671.875,200"/>
<polygon points="676.562,204.688 676.562,200 671.875,200"/>
<polygon points="676.562,204.688 681.25,204.688 676.562,200"/>
<polygon points="681.25,204.688 681.25,200 676.562,200"/>
<polygon points="681.25,204.688 685.938,204.688 681.25,200"/>
<polygon points="685.938,204.688 685.938,200 681.25,200"/>
<polygon points="685.938,204.688 690.625,204.688 685.938,200"/>
<polygon points="690.625,204.688 690.625,200 685.938,200"/>
<polygon points="690.625,204.688 695.312,204.688 690.625,200"/>
<polygon points="695.312,204.688 695.312,200 690.625,200"/>
<polygon points="698.726,204.688 698.815,200 695.312,200"/>
<polygon points="695.312,200 695.312,204.688 698.726,204.688"/>
<polygon points="601.186,195.312 601.23,200 601.562,200"/>
<polygon points="601.562,200 601.562,195.312 601.186,195.312"/>
<polygon points="601.562,200 606.25,200 601.562,195.312"/>
<polygon points="606.25,200 606.25,195.312 601.562,195.312"/>
<polygon points="606.25,200 610.938,200 606.25,195.312"/>
<polygon points="610.938,200 610.938,195.312 606.25,195.312"/>
<polygon points="610.938,200 615.625,200 610.938,195.312"/>
<polygon points="615.625,200 615.625,195.312 610.938,195.312"/>
<polygon points="615.625,200 620.312,200 615.625,195.312"/>
<polygon points="620.312,200 620.312,195.312 615.625,195.312"/>
<polygon points="620.312,200 625,200 620.312,195.312"/>
<polygon points="625,200 625,195.312 620.312,195.312"/>
<polygon points="625,200 629.688,200 625,195.312"/>
<polygon points="629.688,200 629.688,195.312 625,195.312"/>
<polygon points="629.688,200 634.375,200 629.688,195.312"/>
<polygon points="634.375,200 634.375,195.312 629.688,195.312"/>
<polygon points="634.375,200 639.062,200 634.375,195.312"/>
<polygon points="639.062,200 639.062,195.312 634.375,195.312"/>
<polygon points="639.062,200 643.75,200 639.062,195.312"/>
<polygon points="643.75,200 643.75,195.312 639.062,195.312"/>
<polygon points="643.75,200 648.438,200 643.75,195.312"/>
<polygon points="648.438,200 648.438,195.312 643.75,195.312"/>
<polygon points="648.438,200 653.125,200 648.438,195.312"/>
<polygon points="653.125,200 653.125,195.312 648.438,195.312"/>
<polygon points="653.125,200 657.812,200 653.125,195.312"/>
<polygon points="657.812,200 657.812,195.312 653.125,195.312"/>
<polygon points="657.812,200 662.5,200 657.812,195.312"/>
<polygon points="662.5,200 662.5,195.312 657.812,195.312"/>
<polygon points="662.5,200 667.188,200 662.5,195.312"/>
<polygon points="667.188,200 667.188,195.312 662.5,195.312"/>
<polygon points="667.188,200 671.875,200 667.188,195.312"/>
<polygon points="671.875,200 671.875,195.312 667.188,195.312"/>
<polygon points="671.875,200 676.562,200 671.875,195.312"/>
<polygon points="676.562,200 676.562,195.312 671.875,195.312"/>
<polygon points="676.562,200 681.25,200 676.562,195.312"/>
<polygon points="681.25,200 681.25,195.312 676.562,195.312"/>
<polygon points="681.25,200 685.938,200 681.25,195.312"/>
<polygon points="685.938,200 685.938,195.312 681.25,195.312"/>
<polygon points="685.938,200 690.625,200 685.938,195.312"/>
<polygon points="690.625,200 690.625,195.312 685.938,195.312"/>
<polygon points="690.625,200 695.312,200 690.625,195.312"/>
<polygon points="695.312,200 695.312,195.312 690.625,195.312"/>
<polygon points="698.815,200 698.903,195.312 695.312,195.312"/>
<polygon points="695.312,195.312 695.312,200 698.815,200"/>
<polygon points="601.142,190.625 601.186,195.312 601.562,195.312"/>
<polygon points="601.562,195.312 601.562,190.625 601.142,190.625"/>
<polygon points="601.562,195.312 606.25,195.312 601.562,190.625"/>
<polygon points="606.25,195.312 606.25,190.625 601.562,190.625"/>
<polygon points="606.25,195.312 610.938,195.312 606.25,190.625"/>
<polygon points="610.938,195.312 610.938,190.625 606.25,190.625"/>
<polygon points="610.938,195.312 615.625,195.312 610.938,190.625"/>
<polygon points="615.625,195.312 615.625,190.625 610.938,190.625"/>
<polygon points="615.625,195.312 620.312,195.312 615.625,190.625"/>
<polygon points="620.312,195.312 620.312,190.625 615.625,190.625"/>
<polygon points="620.312,195.312 625,195.312 620.312,190.625"/>
<polygon points="625,195.312 625,190.625 620.312,190.625"/>
<polygon points="625,195.312 629.688,195.312 625,190.625"/>
<polygon points="629.688,195.312 629.688,190.625 625,190.625"/>
<polygon points="629.688,195.312 634.375,195.312 629.688,190.625"/>
<polygon points="634.375,195.312 634.375,190.625 629.688,190.625"/>
<polygon points="634.375,195.312 639.062,195.312 634.375,190.625"/>
<polygon points="639.062,195.312 639.062,190.625 634.375,190.625"/>
<polygon points="639.062,195.312 643.75,195.312 639.062,190.625"/>
<polygon points="643.75,195.312 643.75,190.625 639.062,190.625"/>
<polygon points="643.75,195.312 648.438,195.312 643.75,190.625"/>
<polygon points="648.438,195.312 648.438,190.625 643.75,190.625"/>
<polygon points="648.438,195.312 653.125,195.312 648.438,190.625"/>
<polygon points="653.125,195.312 653.125,190.625 648.438,190.625"/>
<polygon points="653.125,195.312 657.812,195.312 653.125,190.625"/>
<polygon points="657.812,195.312 657.812,190.625 653.125,190.625"/>
<polygon points="657.812,195.312 662.5,195.312 657.812,190.625"/>
<polygon points="662.5,195.312 662.5,190.625 657.812,190.625"/>
<polygon points="662.5,195.312 667.188,195.312 662.5,190.625"/>
<polygon points="667.188,195.312 667.188,190.625 662.5,190.625"/>
<polygon points="667.188,195.312 671.875,195.312 667.188,190.625"/>
<polygon points="671.875,195.312 671.875,190.625 667.188,190.625"/>
<polygon points="671.875,195.312 676.562,195.312 671.875,190.625"/>
<polygon points="676.562,195.312 676.562,190.625 671.875,190.625"/>
<polygon points="676.562,195.312 681.25,195.312 676.562,190.625"/>
<polygon points="681.25,195.312 681.25,190.625 676.562,190.625"/>
<polygon points="681.25,195.312 685.938,195.312 681.25,190.625"/>
<polygon points="685.938,195.312 685.938,190.625 681.25,190.625"/>
<polygon points="685.938,195.312 690.625,195.312 685.938,190.625"/>
<polygon points="690.625,195.312 690.625,190.625 685.938,190.625"/>
<polygon points="690.625,195.312 695.312,195.312 690.625,190.625"/>
<polygon points="695.312,195.312 695.312,190.625 690.625,190.625"/>
<polygon points="698.903,195.312 698.992,190.625 695.312,190.625"/>
<polygon points="695.312,190.625 695.312,195.312 698.903,195.312"/>
<polygon points="601.098,185.938 601.142,190.625 601.562,190.625"/>
<polygon points="601.562,190.625 601.562,185.938 601.098,185.938"/>
<polygon points="601.562,190.625 606.25,190.625 601.562,185.938"/>
<polygon points="606.25,190.625 606.25,185.938 601.562,185.938"/>
<polygon points="606.25,190.625 610.938,190.625 606.25,185.938"/>
<polygon points="610.938,190.625 610.938,185.938 606.25,185.938"/>
<polygon points="610.938,190.625 615.625,190.625 610.938,185.938"/>
<polygon points="615.625,190.625 615.625,185.938 610.938,185.938"/>
<polygon points="615.625,190.625 620.312,190.625 615.625,185.938"/>
<polygon points="620.312,190.625 620.312,185.938 615.625,185.938"/>
<polygon points="620.312,190.625 625,190.625 620.312,185.938"/>
<polygon points="625,190.625 625,185.938 620.312,185.938"/>
<polygon points="625,190.625 629.688,190.625 625,185.938"/>
<polygon points="629.688,190.625 629.688,185.938 625,185.938"/>
<polygon points="629.688,190.625 634.375,190.625 629.688,185.938"/>
<polygon points="634.375,190.625 634.375,185.938 629.688,185.938"/>
<polygon points="634.375,190.625 639.062,190.625 634.375,185.938"/>
<polygon points="639.062,190.625 639.062,185.938 634.375,185.938"/>
<polygon points="639.062,190.625 643.75,190.625 639.062,185.938"/>
<polygon points="643.75,190.625 643.75,185.938 639.062,185.938"/>
<polygon points="643.75,190.625 648.438,190.625 643.75,185.938"/>
<polygon points="648.438,190.625 648.438,185.938 643.75,185.938"/>
<polygon points="648.438,190.625 653.125,190.625 648.438,185.938"/>
<polygon points="653.125,190.625 653.125,185.938 648.438,185.938"/>
<polygon points="653.125,185.938 653.125,190.625 657.812,190.625"/>
<polygon points="653.125,185.938 657.812,190.625 657.812,185.997"/>
<polygon points="653.125,185.938 657.812,185.997 655,185.938"/>
<polygon points="662.5,186.097 657.812,185.997 657.812,190.625"/>
<polygon points="657.812,190.625 662.5,190.625 662.5,186.097"/>
<polygon points="667.188,186.197 662.5,186.097 662.5,190.625"/>
<polygon points="662.5,190.625 667.188,190.625 667.188,186.197"/>
<polygon points="671.875,186.297 667.188,186.197 667.188,190.625"/>
<polygon points="667.188,190.625 671.875,190.625 671.875,186.297"/>
<polygon points="676.562,186.396 671.875,186.297 671.875,190.625"/>
<polygon points="671.875,190.625 676.562,190.625 676.562,186.396"/>
<polygon points="681.25,186.496 676.562,186.396 676.562,190.625"/>
<polygon points="676.562,190.625 681.25,190.625 681.25,186.496"/>
<polygon points="685.938,186.596 681.25,186.496 681.25,190.625"/>
<polygon points="681.25,190.625 685.938,190.625 685.938,186.596"/>
<polygon points="690.625,186.695 685.938,186.596 685.938,190.625"/>
<polygon points="685.938,190.625 690.625,190.625 690.625,186.695"/>
<polygon points="695.312,186.795 690.625,186.695 690.625,190.625"/>
<polygon points="690.625,190.625 695.312,190.625 695.312,186.795"/>
<polygon points="699.062,186.875 695.312,186.795 695.312,190.625"/>
<polygon points="695.312,190.625 698.992,190.625 699.062,186.875"/>
<polygon points="601.054,181.25 601.098,185.938 601.562,185.938"/>
<polygon points="601.562,185.938 601.562,181.25 601.054,181.25"/>
<polygon points="601.562,185.938 606.25,185.938 601.562,181.25"/>
<polygon points="606.25,185.938 606.25,181.25 601.562,181.25"/>
<polygon points="606.25,185.938 610.938,185.938 606.25,181.25"/>
<polygon points="610.938,185.938 610.938,181.25 606.25,181.25"/>
<polygon points="610.938,185.938 615.625,185.938 610.938,181.25"/>
<polygon points="615.625,185.938 615.625,181.25 610.938,181.25"/>
<polygon points="615.625,185.938 620.312,185.938 615.625,181.25"/>
<polygon points="620.312,185.938 620.312,181.25 615.625,181.25"/>
<polygon points="620.312,185.938 625,185.938 620.312,181.25"/>
<polygon points="625,185.938 625,181.25 620.312,181.25"/>
<polygon points="625,185.938 629.688,185.938 625,181.25"/>
<polygon points="629.688,185.938 629.688,181.25 625,181.25"/>
<polygon points="629.688,185.938 634.375,185.938 629.688,181.25"/>
<polygon points="634.375,185.938 634.375,181.25 629.688,181.25"/>
<polygon points="634.375,185.938 639.062,185.938 634.375,181.25"/>
<polygon points="639.062,185.938 639.062,181.25 634.375,181.25"/>
<polygon points="639.062,185.938 643.75,185.938 639.062,181.25"/>
<polygon points="643.75,185.938 643.75,181.25 639.062,181.25"/>
<polygon points="643.75,185.938 648.438,185.938 643.75,181.25"/>
<polygon points="648.438,185.938 648.438,181.25 643.75,181.25"/>
<polygon points="648.438,185.938 653.125,185.938 648.438,181.25"/>
<polygon points="653.125,185.938 653.125,181.25 648.438,181.25"/>
<polygon points="655.088,181.25 653.125,181.25 653.125,185.938"/>
<polygon points="655.088,181.25 653.125,185.938 655,185.938"/>
<polygon points="601.011,176.562 601.054,181.25 601.562,181.25"/>
<polygon points="601.562,181.25 601.562,176.562 601.011,176.562"/>
<polygon points="601.562,181.25 606.25,181.25 601.562,176.562"/>
<polygon points="606.25,181.25 606.25,176.562 601.562,176.562"/>
<polygon points="606.25,181.25 610.938,181.25 606.25,176.562"/>
<polygon points="610.938,181.25 610.938,176.562 606.25,176.562"/>
<polygon points="610.938,181.25 615.625,181.25 610.938,176.562"/>
<polygon points="615.625,181.25 615.625,176.562 610.938,176.562"/>
<polygon points="615.625,181.25 620.312,181.25 615.625,176.562"/>
<polygon points="620.312,181.25 620.312,176.562 615.625,176.562"/>
<polygon points="620.312,181.25 625,181.25 620.312,176.562"/>
<polygon points="625,181.25 625,176.562 620.312,176.562"/>
<polygon points="625,181.25 629.688,181.25 625,176.562"/>
<polygon points="629.688,181.25 629.688,176.562 625,176.562"/>
<polygon points="629.688,181.25 634.375,181.25 629.688,176.562"/>
<polygon points="634.375,181.25 634.375,176.562 629.688,176.562"/>
<polygon points="634.375,181.25 639.062,181.25 634.375,176.562"/>
<polygon points="639.062,181.25 639.062,176.562 634.375,176.562"/>
<polygon points="639.062,181.25 643.75,181.25 639.062,176.562"/>
<polygon points="643.75,181.25 643.75,176.562 639.062,176.562"/>
<polygon points="643.75,181.25 648.438,181.25 643.75,176.562"/>
<polygon points="648.438,181.25 648.438,176.562 643.75,176.562"/>
<polygon points="648.438,181.25 653.125,181.25 648.438,176.562"/>
<polygon points="653.125,181.25 653.125,176.562 648.438,176.562"/>
<polygon points="655.088,181.25 655.177,176.562 653.125,176.562"/>
<polygon points="653.125,176.562 653.125,181.25 655.088,181.25"/>
<polygon points="600.967,171.875 601.011,176.562 601.562,176.562"/>
<polygon points="601.562,176.562 601.562,171.875 600.967,171.875"/>
<polygon points="601.562,176.562 606.25,176.562 601.562,171.875"/>
<polygon points="606.25,176.562 606.25,171.875 601.562,171.875"/>
<polygon points="606.25,176.562 610.938,176.562 606.25,171.875"/>
<polygon points="610.938,176.562 610.938,171.875 606.25,171.875"/>
<polygon points="610.938,176.562 615.625,176.562 610.938,171.875"/>
<polygon points="615.625,176.562 615.625,171.875 610.938,171.875"/>
<polygon points="615.625,176.562 620.312,176.562 615.625,171.875"/>
<polygon points="620.312,176.562 620.312,171.875 615.625,171.875"/>
<polygon points="620.312,176.562 625,176.562 620.312,171.875"/>
<polygon points="625,176.562 625,171.875 620.312,171.875"/>
<polygon points="625,176.562 629.688,176.562 625,171.875"/>
<polygon points="629.688,176.562 629.688,171.875 625,171.875"/>
<polygon points="629.688,176.562 634.375,176.562 629.688,171.875"/>
<polygon points="634.375,176.562 634.375,171.875 629.688,171.875"/>
<polygon points="634.375,176.562 639.062,176.562 634.375,171.875"/>
<polygon points="639.062,176.562 639.062,171.875 634.375,171.875"/>
<polygon points="639.062,176.562 643.75,176.562 639.062,171.875"/>
<polygon points="643.75,176.562 643.75,171.875 639.062,171.875"/>
<polygon points="643.75,176.562 648.438,176.562 643.75,171.875"/>
<polygon points="648.438,176.562 648.438,171.875 643.75,171.875"/>
<polygon points="648.438,176.562 653.125,176.562 648.438,171.875"/>
<polygon points="653.125,176.562 653.125,171.875 648.438,171.875"/>
<polygon points="655.177,176.562 655.265,171.875 653.125,171.875"/>
<polygon points="653.125,171.875 653.125,176.562 655.177,176.562"/>
<polygon points="600.923,167.188 600.967,171.875 601.562,171.875"/>
<polygon points="601.562,171.875 601.562,167.188 600.923,167.188"/>
<polygon points="601.562,171.875 606.25,171.875 601.562,167.188"/>
<polygon points="606.25,171.875 606.25,167.188 601.562,167.188"/>
<polygon points="606.25,171.875 610.938,171.875 606.25,167.188"/>
<polygon points="610.938,171.875 610.938,167.188 606.25,167.188"/>
<polygon points="610.938,171.875 615.625,171.875 610.938,167.188"/>
<polygon points="615.625,171.875 615.625,167.188 610.938,167.188"/>
<polygon points="615.625,171.875 620.312,171.875 615.625,167.188"/>
<polygon points="620.312,171.875 620.312,167.188 615.625,167.188"/>
<polygon points="620.312,171.875 625,171.875 620.312,167.188"/>
<polygon points="625,171.875 625,167.188 620.312,167.188"/>
<polygon points="625,171.875 629.688,171.875 625,167.188"/>
<polygon points="629.688,171.875 629.688,167.188 625,167.188"/>
<polygon points="629.688,171.875 634.375,171.875 629.688,167.188"/>
<polygon points="634.375,171.875 634.375,167.188 629.688,167.188"/>
<polygon points="634.375,171.875 639.062,171.875 634.375,167.188"/>
<polygon points="639.062,171.875 639.062,167.188 634.375,167.188"/>
<polygon points="639.062,171.875 643.75,171.875 639.062,167.188"/>
<polygon points="643.75,171.875 643.75,167.188 639.062,167.188"/>
<polygon points="643.75,171.875 648.438,171.875 643.75,167.188"/>
<polygon points="648.438,171.875 648.438,167.188 643.75,167.188"/>
<polygon points="648.438,171.875 653.125,171.875 648.438,167.188"/>
<polygon points="653.125,171.875 653.125,167.188 648.438,167.188"/>
<polygon points="655.265,171.875 655.354,167.188 653.125,167.188"/>
<polygon points="653.125,167.188 653.125,171.875 655.265,171.875"/>
<polygon points="600.879,162.5 600.923,167.188 601.562,167.188"/>
<polygon points="601.562,167.188 601.562,162.5 600.879,162.5"/>
<polygon points="601.562,167.188 606.25,167.188 601.562,162.5"/>
<polygon points="606.25,167.188 606.25,162.5 601.562,162.5"/>
<polygon points="606.25,167.188 610.938,167.188 606.25,162.5"/>
<polygon points="610.938,167.188 610.938,162.5 606.25,162.5"/>
<polygon points="610.938,167.188 615.625,167.188 610.938,162.5"/>
<polygon points="615.625,167.188 615.625,162.5 610.938,162.5"/>
<polygon points="615.625,167.188 620.312,167.188 615.625,162.5"/>
<polygon points="620.312,167.188 620.312,162.5 615.625,162.5"/>
<polygon points="620.312,167.188 625,167.188 620.312,162.5"/>
<polygon points="625,167.188 625,162.5 620.312,162.5"/>
<polygon points="625,167.188 629.688,167.188 625,162.5"/>
<polygon points="629.688,167.188 629.688,162.5 625,162.5"/>
<polygon points="629.688,167.188 634.375,167.188 629.688,162.5"/>
<polygon points="634.375,167.188 634.375,162.5 629.688,162.5"/>
<polygon points="634.375,167.188 639.062,167.188 634.375,162.5"/>
<polygon points="639.062,167.188 639.062,162.5 634.375,162.5"/>
<polygon points="639.062,167.188 643.75,167.188 639.062,162.5"/>
<polygon points="643.75,167.188 643.75,162.5 639.062,162.5"/>
<polygon points="643.75,167.188 648.438,167.188 643.75,162.5"/>
<polygon points="648.438,167.188 648.438,162.5 643.75,162.5"/>
<polygon points="648.438,167.188 653.125,167.188 648.438,162.5"/>
<polygon points="653.125,167.188 653.125,162.5 648.438,162.5"/>
<polygon points="655.354,167.188 655.442,162.5 653.125,162.5"/>
<polygon points="653.125,162.5 653.125,167.188 655.354,167.188"/>
<polygon points="600.835,157.812 600.879,162.5 601.562,162.5"/>
<polygon points="601.562,162.5 601.562,157.812 600.835,157.812"/>
<polygon points="601.562,162.5 606.25,162.5 601.562,157.812"/>
<polygon points="606.25,162.5 606.25,157.812 601.562,157.812"/>
<polygon points="606.25,162.5 610.938,162.5 606.25,157.812"/>
<polygon points="610.938,162.5 610.938,157.812 606.25,157.812"/>
<polygon points="610.938,162.5 615.625,162.5 610.938,157.812"/>
<polygon points="615.625,162.5 615.625,157.812 610.938,157.812"/>
<polygon points="615.625,162.5 620.312,162.5 615.625,157.812"/>
<polygon points="620.312,162.5 620.312,157.812 615.625,157.812"/>
<polygon points="620.312,162.5 625,162.5 620.312,157.812"/>
<polygon points="625,162.5 625,157.812 620.312,157.812"/>
<polygon points="625,162.5 629.688,162.5 625,157.812"/>
<polygon points="629.688,162.5 629.688,157.812 625,157.812"/>
<polygon points="629.688,162.5 634.375,162.5 629.688,157.812"/>
<polygon points="634.375,162.5 634.375,157.812 629.688,157.812"/>
<polygon points="634.375,162.5 639.062,162.5 634.375,157.812"/>
<polygon points="639.062,162.5 639.062,157.812 634.375,157.812"/>
<polygon points="639.062,162.5 643.75,162.5 639.062,157.812"/>
<polygon points="643.75,162.5 643.75,157.812 639.062,157.812"/>
<polygon points="643.75,162.5 648.438,162.5 643.75,157.812"/>
<polygon points="648.438,162.5 648.438,157.812 643.75,157.812"/>
<polygon points="648.438,162.5 653.125,162.5 648.438,157.812"/>
<polygon points="653.125,162.5 653.125,157.812 648.438,157.812"/>
<polygon points="655.442,162.5 655.531,157.812 653.125,157.812"/>
<polygon points="653.125,157.812 653.125,162.5 655.442,162.5"/>
<polygon points="600.791,153.125 600.835,157.812 601.562,157.812"/>
<polygon points="601.562,157.812 601.562,153.125 600.791,153.125"/>
<polygon points="601.562,157.812 606.25,157.812 601.562,153.125"/>
<polygon points="606.25,157.812 606.25,153.125 601.562,153.125"/>
<polygon points="606.25,157.812 610.938,157.812 606.25,153.125"/>
<polygon points="610.938,157.812 610.938,153.125 606.25,153.125"/>
<polygon points="610.938,157.812 615.625,157.812 610.938,153.125"/>
<polygon points="615.625,157.812 615.625,153.125 610.938,153.125"/>
<polygon points="615.625,157.812 620.312,157.812 615.625,153.125"/>
<polygon points="620.312,157.812 620.312,153.125 615.625,153.125"/>
<polygon points="620.312,157.812 625,157.812 620.312,153.125"/>
<polygon points="625,157.812 625,153.125 620.312,153.125"/>
<polygon points="625,157.812 629.688,157.812 625,153.125"/>
<polygon points="629.688,157.812 629.688,153.125 625,153.125"/>
<polygon points="629.688,157.812 634.375,157.812 629.688,153.125"/>
<polygon points="634.375,157.812 634.375,153.125 629.688,153.125"/>
<polygon points="634.375,157.812 639.062,157.812 634.375,153.125"/>
<polygon points="639.062,157.812 639.062,153.125 634.375,153.125"/>
<polygon points="639.062,157.812 643.75,157.812 639.062,153.125"/>
<polygon points="643.75,157.812 643.75,153.125 639.062,153.125"/>
<polygon points="643.75,157.812 648.438,157.812 643.75,153.125"/>
<polygon points="648.438,157.812 648.438,153.125 643.75,153.125"/>
<polygon points="648.438,157.812 653.125,157.812 648.438,153.125"/>
<polygon points="653.125,157.812 653.125,153.125 648.438,153.125"/>
<polygon points="655.531,157.812 655.619,153.125 653.125,153.125"/>
<polygon points="653.125,153.125 653.125,157.812 655.531,157.812"/>
<polygon points="600.748,148.438 600.791,153.125 601.562,153.125"/>
<polygon points="601.562,153.125 601.562,148.438 600.748,148.438"/>
<polygon points="601.562,153.125 606.25,153.125 601.562,148.438"/>
<polygon points="606.25,153.125 606.25,148.438 601.562,148.438"/>
<polygon points="606.25,153.125 610.938,153.125 606.25,148.438"/>
<polygon points="610.938,153.125 610.938,148.438 606.25,148.438"/>
<polygon points="610.938,153.125 615.625,153.125 610.938,148.438"/>
<polygon points="615.625,153.125 615.625,148.438 610.938,148.438"/>
<polygon points="615.625,153.125 620.312,153.125 615.625,148.438"/>
<polygon points="620.312,153.125 620.312,148.438 615.625,148.438"/>
<polygon points="620.312,153.125 625,153.125 620.312,148.438"/>
<polygon points="625,153.125 625,148.438 620.312,148.438"/>
<polygon points="625,153.125 629.688,153.125 625,148.438"/>
<polygon points="629.688,153.125 629.688,148.438 625,148.438"/>
<polygon points="629.688,153.125 634.375,153.125 629.688,148.438"/>
<polygon points="634.375,153.125 634.375,148.438 629.688,148.438"/>
<polygon points="634.375,153.125 639.062,153.125 634.375,148.438"/>
<polygon points="639.062,153.125 639.062,148.438 634.375,148.438"/>
<polygon points="639.062,153.125 643.75,153.125 639.062,148.438"/>
<polygon points="643.75,153.125 643.75,148.438 639.062,148.438"/>
<polygon points="643.75,153.125 648.438,153.125 643.75,148.438"/>
<polygon points="648.438,153.125 648.438,148.438 643.75,148.438"/>
<polygon points="648.438,153.125 653.125,153.125 648.438,148.438"/>
<polygon points="653.125,153.125 653.125,148.438 648.438,148.438"/>
<polygon points="655.619,153.125 655.708,148.438 653.125,148.438"/>
<polygon points="653.125,148.438 653.125,153.125 655.619,153.125"/>
<polygon points="600.704,143.75 600.748,148.438 601.562,148.438"/>
<polygon points="601.562,148.438 601.562,143.75 600.704,143.75"/>
<polygon points="601.562,148.438 606.25,148.438 601.562,143.75"/>
<polygon points="606.25,148.438 606.25,143.75 601.562,143.75"/>
<polygon points="606.25,148.438 610.938,148.438 606.25,143.75"/>
<polygon points="610.938,148.438 610.938,143.75 606.25,143.75"/>
<polygon points="610.938,148.438 615.625,148.438 610.938,143.75"/>
<polygon points="615.625,148.438 615.625,143.75 610.938,143.75"/>
<polygon points="615.625,148.438 620.312,148.438 615.625,143.75"/>
<polygon points="620.312,148.438 620.312,143.75 615.625,143.75"/>
<polygon points="620.312,148.438 625,148.438 620.312,143.75"/>
<polygon points="625,148.438 625,143.75 620.312,143.75"/>
<polygon points="625,148.438 629.688,148.438 625,143.75"/>
<polygon points="629.688,148.438 629.688,143.75 625,143.75"/>
<polygon points="629.688,148.438 634.375,148.438 629.688,143.75"/>
<polygon points="634.375,148.438 634.375,143.75 629.688,143.75"/>
<polygon points="634.375,148.438 639.062,148.438 634.375,143.75"/>
<polygon points="639.062,148.438 639.062,143.75 634.375,143.75"/>
<polygon points="639.062,148.438 643.75,148.438 639.062,143.75"/>
<polygon points="643.75,148.438 643.75,143.75 639.062,143.75"/>
<polygon points="643.75,148.438 648.438,148.438 643.75,143.75"/>
<polygon points="648.438,148.438 648.438,143.75 643.75,143.75"/>
<polygon points="648.438,148.438 653.125,148.438 648.438,143.75"/>
<polygon points="653.125,148.438 653.125,143.75 648.438,143.75"/>
<polygon points="655.708,148.438 655.796,143.75 653.125,143.75"/>
<polygon points="653.125,143.75 653.125,148.438 655.708,148.438"/>
<polygon points="600.66,139.062 600.704,143.75 601.562,143.75"/>
<polygon points="601.562,143.75 601.562,139.062 600.66,139.062"/>
<polygon points="601.562,143.75 606.25,143.75 601.562,139.062"/>
<polygon points="606.25,143.75 606.25,139.062 601.562,139.062"/>
<polygon points="606.25,143.75 610.938,143.75 606.25,139.062"/>
<polygon points="610.938,143.75 610.938,139.062 606.25,139.062"/>
<polygon points="610.938,143.75 615.625,143.75 610.938,139.062"/>
<polygon points="615.625,143.75 615.625,139.062 610.938,139.062"/>
<polygon points="615.625,143.75 620.312,143.75 615.625,139.062"/>
<polygon points="620.312,143.75 620.312,139.062 615.625,139.062"/>
<polygon points="620.312,143.75 625,143.75 620.312,139.062"/>
<polygon points="625,143.75 625,139.062 620.312,139.062"/>
<polygon points="625,143.75 629.688,143.75 625,139.062"/>
<polygon points="629.688,143.75 629.688,139.062 625,139.062"/>
<polygon points="629.688,143.75 634.375,143.75 629.688,139.062"/>
<polygon points="634.375,143.75 634.375,139.062 629.688,139.062"/>
<polygon points="634.375,143.75 639.062,143.75 634.375,139.062"/>
<polygon points="639.062,143.75 639.062,139.062 634.375,139.062"/>
<polygon points="639.062,143.75 643.75,143.75 639.062,139.062"/>
<polygon points="643.75,143.75 643.75,139.062 639.062,139.062"/>
<polygon points="643.75,143.75 648.438,143.75 643.75,139.062"/>
<polygon points="648.438,143.75 648.438,139.062 643.75,139.062"/>
<polygon points="648.438,143.75 653.125,143.75 648.438,139.062"/>
<polygon points="653.125,143.75 653.125,139.062 648.438,139.062"/>
<polygon points="655.796,143.75 655.884,139.062 653.125,139.062"/>
<polygon points="653.125,139.062 653.125,143.75 655.796,143.75"/>
<polygon points="600.625,135.313 600.66,139.062 601.562,139.062"/>
<polygon points="601.562,139.062 601.562,135.328 600.625,135.313"/>
<polygon points="601.562,135.328 601.562,139.062 606.25,139.062"/>
<polygon points="606.25,139.062 606.25,135.408 601.562,135.328"/>
<polygon points="610.938,135.487 606.25,135.408 606.25,139.062"/>
<polygon points="606.25,139.062 610.938,139.062 610.938,135.487"/>
<polygon points="615.625,135.567 610.938,135.487 610.938,139.062"/>
<polygon points="610.938,139.062 615.625,139.062 615.625,135.567"/>
<polygon points="620.312,135.646 615.625,135.567 615.625,139.062"/>
<polygon points="615.625,139.062 620.312,139.062 620.312,135.646"/>
<polygon points="625,135.726 620.312,135.646 620.312,139.062"/>
<polygon points="620.312,139.062 625,139.062 625,135.726"/>
<polygon points="629.688,135.805 625,135.726 625,139.062"/>
<polygon points="625,139.062 629.688,139.062 629.688,135.805"/>
<polygon points="634.375,135.885 629.688,135.805 629.688,139.062"/>
<polygon points="629.688,139.062 634.375,139.062 634.375,135.885"/>
<polygon points="639.062,135.964 634.375,135.885 634.375,139.062"/>
<polygon points="634.375,139.062 639.062,139.062 639.062,135.964"/>
<polygon points="643.75,136.043 639.062,135.964 639.062,139.062"/>
<polygon points="639.062,139.062 643.75,139.062 643.75,136.043"/>
<polygon points="648.438,136.123 643.75,136.043 643.75,139.062"/>
<polygon points="643.75,139.062 648.438,139.062 648.438,136.123"/>
<polygon points="653.125,136.202 648.438,136.123 648.438,139.062"/>
<polygon points="648.438,139.062 653.125,139.062 653.125,136.202"/>
<polygon points="655.938,136.25 653.125,136.202 653.125,139.062"/>
<polygon points="653.125,139.062 655.884,139.062 655.938,136.25"/>
</g>
<text x="625" y="370" text-anchor="middle" font-size="12">Triangles: 770, Vertices: 430</text>
</svg>
