<?xml version="1.0" encoding="UTF-8"?>
<svg xmlns="http://www.w3.org/2000/svg" width="850" height="450" viewBox="0 0 850 450">
<rect width="100%" height="100%" fill="white"/>
<text x="200" y="30" text-anchor="middle" font-size="16" font-weight="bold">Earcut</text>
<text x="625" y="30" text-anchor="middle" font-size="16" font-weight="bold">MeshCut</text>
<line x1="412.5" y1="50" x2="412.5" y2="400" stroke="#ccc" stroke-width="1"/>
<g class="left-grid" stroke="#e0e0e0" stroke-width="0.5" fill="none">
<line x1="50" y1="350" x2="50" y2="50"/>
<line x1="59.375" y1="350" x2="59.375" y2="50"/>
<line x1="68.75" y1="350" x2="68.75" y2="50"/>
<line x1="78.125" y1="350" x2="78.125" y2="50"/>
<line x1="87.5" y1="350" x2="87.5" y2="50"/>
<line x1="96.875" y1="350" x2="96.875" y2="50"/>
<line x1="106.25" y1="350" x2="106.25" y2="50"/>
<line x1="115.625" y1="350" x2="115.625" y2="50"/>
<line x1="125" y1="350" x2="125" y2="50"/>
<line x1="134.375" y1="350" x2="134.375" y2="50"/>
<line x1="143.75" y1="350" x2="143.75" y2="50"/>
<line x1="153.125" y1="350" x2="153.125" y2="50"/>
<line x1="162.5" y1="350" x2="162.5" y2="50"/>
<line x1="171.875" y1="350" x2="171.875" y2="50"/>
<line x1="181.25" y1="350" x2="181.25" y2="50"/>
<line x1="190.625" y1="350" x2="190.625" y2="50"/>
<line x1="200" y1="350" x2="200" y2="50"/>
<line x1="209.375" y1="350" x2="209.375" y2="50"/>
<line x1="218.75" y1="350" x2="218.75" y2="50"/>
<line x1="228.125" y1="350" x2="228.125" y2="50"/>
<line x1="237.5" y1="350" x2="237.5" y2="50"/>
<line x1="246.875" y1="350" x2="246.875" y2="50"/>
<line x1="256.25" y1="350" x2="256.25" y2="50"/>
<line x1="265.625" y1="350" x2="265.625" y2="50"/>
<line x1="275" y1="350" x2="275" y2="50"/>
<line x1="284.375" y1="350" x2="284.375" y2="50"/>
<line x1="293.75" y1="350" x2="293.75" y2="50"/>
<line x1="303.125" y1="350" x2="303.125" y2="50"/>
<line x1="312.5" y1="350" x2="312.5" y2="50"/>
<line x1="321.875" y1="350" x2="321.875" y2="50"/>
<line x1="331.25" y1="350" x2="331.25" y2="50"/>
<line x1="340.625" y1="350" x2="340.625" y2="50"/>
<line x1="350" y1="350" x2="350" y2="50"/>
<line x1="50" y1="350" x2="350" y2="350"/>
<line x1="50" y1="340.625" x2="350" y2="340.625"/>
<line x1="50" y1="331.25" x2="350" y2="331.25"/>
<line x1="50" y1="321.875" x2="350" y2="321.875"/>
<line x1="50" y1="312.5" x2="350" y2="312.5"/>
<line x1="50" y1="303.125" x2="350" y2="303.125"/>
<line x1="50" y1="293.75" x2="350" y2="293.75"/>
<line x1="50" y1="284.375" x2="350" y2="284.375"/>
<line x1="50" y1="275" x2="350" y2="275"/>
<line x1="50" y1="265.625" x2="350" y2="265.625"/>
<line x1="50" y1="256.25" x2="350" y2="256.25"/>
<line x1="50" y1="246.875" x2="350" y2="246.875"/>
<line x1="50" y1="237.5" x2="350" y2="237.5"/>
<line x1="50" y1="228.125" x2="350" y2="228.125"/>
<line x1="50" y1="218.75" x2="350" y2="218.75"/>
<line x1="50" y1="209.375" x2="350" y2="209.375"/>
<line x1="50" y1="200" x2="350" y2="200"/>
<line x1="50" y1="190.625" x2="350" y2="190.625"/>
<line x1="50" y1="181.25" x2="350" y2="181.25"/>
<line x1="50" y1="171.875" x2="350" y2="171.875"/>
<line x1="50" y1="162.5" x2="350" y2="162.5"/>
<line x1="50" y1="153.125" x2="350" y2="153.125"/>
<line x1="50" y1="143.75" x2="350" y2="143.75"/>
<line x1="50" y1="134.375" x2="350" y2="134.375"/>
<line x1="50" y1="125" x2="350" y2="125"/>
<line x1="50" y1="115.625" x2="350" y2="115.625"/>
<line x1="50" y1="106.25" x2="350" y2="106.25"/>
<line x1="50" y1="96.875" x2="350" y2="96.875"/>
<line x1="50" y1="87.5" x2="350" y2="87.5"/>
<line x1="50" y1="78.125" x2="350" y2="78.125"/>
<line x1="50" y1="68.75" x2="350" y2="68.75"/>
<line x1="50" y1="59.375" x2="350" y2="59.375"/>
<line x1="50" y1="50" x2="350" y2="50"/>
</g>
<polygon points="176.562,235.625 273.125,236.562 274.062,186.875 230,185.938 230.938,136.25 175.625,135.313 176.562,235.625 " fill="#4CAF50" fill-opacity="0.3" stroke="#4CAF50" stroke-width="2"/>
<g fill="#FF5722" fill-opacity="0.2" stroke="#FF5722" stroke-width="0.5">
<polygon points="175.625,135.313 176.562,235.625 273.125,236.562"/>
<polygon points="273.125,236.562 274.062,186.875 230,185.938"/>
<polygon points="230,185.938 230.938,136.25 175.625,135.313"/>
<polygon points="175.625,135.313 273.125,236.562 230,185.938"/>
</g>
<text x="200" y="370" text-anchor="middle" font-size="12">Triangles: 4, Vertices: 7</text>
<g class="right-grid" stroke="#e0e0e0" stroke-width="0.5" fill="none">
<line x1="475" y1="350" x2="475" y2="50"/>
<line x1="484.375" y1="350" x2="484.375" y2="50"/>
<line x1="493.75" y1="350" x2="493.75" y2="50"/>
<line x1="503.125" y1="350" x2="503.125" y2="50"/>
<line x1="512.5" y1="350" x2="512.5" y2="50"/>
<line x1="521.875" y1="350" x2="521.875" y2="50"/>
<line x1="531.25" y1="350" x2="531.25" y2="50"/>
<line x1="540.625" y1="350" x2="540.625" y2="50"/>
<line x1="550" y1="350" x2="550" y2="50"/>
<line x1="559.375" y1="350" x2="559.375" y2="50"/>
<line x1="568.75" y1="350" x2="568.75" y2="50"/>
<line x1="578.125" y1="350" x2="578.125" y2="50"/>
<line x1="587.5" y1="350" x2="587.5" y2="50"/>
<line x1="596.875" y1="350" x2="596.875" y2="50"/>
<line x1="606.25" y1="350" x2="606.25" y2="50"/>
<line x1="615.625" y1="350" x2="615.625" y2="50"/>
<line x1="625" y1="350" x2="625" y2="50"/>
<line x1="634.375" y1="350" x2="634.375" y2="50"/>
<line x1="643.75" y1="350" x2="643.75" y2="50"/>
<line x1="653.125" y1="350" x2="653.125" y2="50"/>
<line x1="662.5" y1="350" x2="662.5" y2="50"/>
<line x1="671.875" y1="350" x2="671.875" y2="50"/>
<line x1="681.25" y1="350" x2="681.25" y2="50"/>
<line x1="690.625" y1="350" x2="690.625" y2="50"/>
<line x1="700" y1="350" x2="700" y2="50"/>
<line x1="709.375" y1="350" x2="709.375" y2="50"/>
<line x1="718.75" y1="350" x2="718.75" y2="50"/>
<line x1="728.125" y1="350" x2="728.125" y2="50"/>
<line x1="737.5" y1="350" x2="737.5" y2="50"/>
<line x1="746.875" y1="350" x2="746.875" y2="50"/>
<line x1="756.25" y1="350" x2="756.25" y2="50"/>
<line x1="765.625" y1="350" x2="765.625" y2="50"/>
<line x1="775" y1="350" x2="775" y2="50"/>
<line x1="475" y1="350" x2="775" y2="350"/>
<line x1="475" y1="340.625" x2="775" y2="340.625"/>
<line x1="475" y1="331.25" x2="775" y2="331.25"/>
<line x1="475" y1="321.875" x2="775" y2="321.875"/>
<line x1="475" y1="312.5" x2="775" y2="312.5"/>
<line x1="475" y1="303.125" x2="775" y2="303.125"/>
<line x1="475" y1="293.75" x2="775" y2="293.75"/>
<line x1="475" y1="284.375" x2="775" y2="284.375"/>
<line x1="475" y1="275" x2="775" y2="275"/>
<line x1="475" y1="265.625" x2="775" y2="265.625"/>
<line x1="475" y1="256.25" x2="775" y2="256.25"/>
<line x1="475" y1="246.875" x2="775" y2="246.875"/>
<line x1="475" y1="237.5" x2="775" y2="237.5"/>
<line x1="475" y1="228.125" x2="775" y2="228.125"/>
<line x1="475" y1="218.75" x2="775" y2="218.75"/>
<line x1="475" y1="209.375" x2="775" y2="209.375"/>
<line x1="475" y1="200" x2="775" y2="200"/>
<line x1="475" y1="190.625" x2="775" y2="190.625"/>
<line x1="475" y1="181.25" x2="775" y2="181.25"/>
<line x1="475" y1="171.875" x2="775" y2="171.875"/>
<line x1="475" y1="162.5" x2="775" y2="162.5"/>
<line x1="475" y1="153.125" x2="775" y2="153.125"/>
<line x1="475" y1="143.75" x2="775" y2="143.75"/>
<line x1="475" y1="134.375" x2="775" y2="134.375"/>
<line x1="475" y1="125" x2="775" y2="125"/>
<line x1="475" y1="115.625" x2="775" y2="115.625"/>
<line x1="475" y1="106.25" x2="775" y2="106.25"/>
<line x1="475" y1="96.875" x2="775" y2="96.875"/>
<line x1="475" y1="87.5" x2="775" y2="87.5"/>
<line x1="475" y1="78.125" x2="775" y2="78.125"/>
<line x1="475" y1="68.75" x2="775" y2="68.75"/>
<line x1="475" y1="59.375" x2="775" y2="59.375"/>
<line x1="475" y1="50" x2="775" y2="50"/>
</g>
<polygon points="601.562,235.625 698.125,236.562 699.062,186.875 655,185.938 655.938,136.25 600.625,135.313 601.562,235.625 " fill="#4CAF50" fill-opacity="0.3" stroke="#4CAF50" stroke-width="2"/>
<g fill="#2196F3" fill-opacity="0.2" stroke="#2196F3" stroke-width="0.5">
<polygon points="601.492,228.125 601.562,235.625 606.25,235.671"/>
<polygon points="606.25,235.671 606.25,228.125 601.492,228.125"/>
<polygon points="615.625,235.762 615.625,228.125 606.25,228.125"/>
<polygon points="606.25,228.125 606.25,235.671 615.625,235.762"/>
<polygon points="625,235.853 625,228.125 615.625,228.125"/>
<polygon points="615.625,228.125 615.625,235.762 625,235.853"/>
<polygon points="634.375,235.944 634.375,228.125 625,228.125"/>
<polygon points="625,228.125 625,235.853 634.375,235.944"/>
<polygon points="643.75,236.035 643.75,228.125 634.375,228.125"/>
<polygon points="634.375,228.125 634.375,235.944 643.75,236.035"/>
<polygon points="653.125,236.126 653.125,228.125 643.75,228.125"/>
<polygon points="643.75,228.125 643.75,236.035 653.125,236.126"/>
<polygon points="662.5,236.217 662.5,228.125 653.125,228.125"/>
<polygon points="653.125,228.125 653.125,236.126 662.5,236.217"/>
<polygon points="671.875,236.308 671.875,228.125 662.5,228.125"/>
<polygon points="662.5,228.125 662.5,236.217 671.875,236.308"/>
<polygon points="681.25,236.399 681.25,228.125 671.875,228.125"/>
<polygon points="671.875,228.125 671.875,236.308 681.25,236.399"/>
<polygon points="690.625,236.49 690.625,228.125 681.25,228.125"/>
<polygon points="681.25,228.125 681.25,236.399 690.625,236.49"/>
<polygon points="698.125,236.562 698.284,228.125 690.625,228.125"/>
<polygon points="690.625,228.125 690.625,236.49 698.125,236.562"/>
<polygon points="601.405,218.75 601.492,228.125 606.25,228.125"/>
<polygon points="606.25,228.125 606.25,218.75 601.405,218.75"/>
<polygon points="606.25,228.125 615.625,228.125 606.25,218.75"/>
<polygon points="615.625,228.125 615.625,218.75 606.25,218.75"/>
<polygon points="615.625,228.125 625,228.125 615.625,218.75"/>
<polygon points="625,228.125 625,218.75 615.625,218.75"/>
<polygon points="625,228.125 634.375,228.125 625,218.75"/>
<polygon points="634.375,228.125 634.375,218.75 625,218.75"/>
<polygon points="634.375,228.125 643.75,228.125 634.375,218.75"/>
<polygon points="643.75,228.125 643.75,218.75 634.375,218.75"/>
<polygon points="643.75,228.125 653.125,228.125 643.75,218.75"/>
<polygon points="653.125,228.125 653.125,218.75 643.75,218.75"/>
<polygon points="653.125,228.125 662.5,228.125 653.125,218.75"/>
<polygon points="662.5,228.125 662.5,218.75 653.125,218.75"/>
<polygon points="662.5,228.125 671.875,228.125 662.5,218.75"/>
<polygon points="671.875,228.125 671.875,218.75 662.5,218.75"/>
<polygon points="671.875,228.125 681.25,228.125 671.875,218.75"/>
<polygon points="681.25,228.125 681.25,218.75 671.875,218.75"/>
<polygon points="681.25,228.125 690.625,228.125 681.25,218.75"/>
<polygon points="690.625,228.125 690.625,218.75 681.25,218.75"/>
<polygon points="698.284,228.125 698.461,218.75 690.625,218.75"/>
<polygon points="690.625,218.75 690.625,228.125 698.284,228.125"/>
<polygon points="601.317,209.375 601.405,218.75 606.25,218.75"/>
<polygon points="606.25,218.75 606.25,209.375 601.317,209.375"/>
<polygon points="606.25,218.75 615.625,218.75 606.25,209.375"/>
<polygon points="615.625,218.75 615.625,209.375 606.25,209.375"/>
<polygon points="615.625,218.75 625,218.75 615.625,209.375"/>
<polygon points="625,218.75 625,209.375 615.625,209.375"/>
<polygon points="625,218.75 634.375,218.75 625,209.375"/>
<polygon points="634.375,218.75 634.375,209.375 625,209.375"/>
<polygon points="634.375,218.75 643.75,218.75 634.375,209.375"/>
<polygon points="643.75,218.75 643.75,209.375 634.375,209.375"/>
<polygon points="643.75,218.75 653.125,218.75 643.75,209.375"/>
<polygon points="653.125,218.75 653.125,209.375 643.75,209.375"/>
<polygon points="653.125,218.75 662.5,218.75 653.125,209.375"/>
<polygon points="662.5,218.75 662.5,209.375 653.125,209.375"/>
<polygon points="662.5,218.75 671.875,218.75 662.5,209.375"/>
<polygon points="671.875,218.75 671.875,209.375 662.5,209.375"/>
<polygon points="671.875,218.75 681.25,218.75 671.875,209.375"/>
<polygon points="681.25,218.75 681.25,209.375 671.875,209.375"/>
<polygon points="681.25,218.75 690.625,218.75 681.25,209.375"/>
<polygon points="690.625,218.75 690.625,209.375 681.25,209.375"/>
<polygon points="698.461,218.75 698.638,209.375 690.625,209.375"/>
<polygon points="690.625,209.375 690.625,218.75 698.461,218.75"/>
<polygon points="601.23,200 601.317,209.375 606.25,209.375"/>
<polygon points="606.25,209.375 606.25,200 601.23,200"/>
<polygon points="606.25,209.375 615.625,209.375 606.25,200"/>
<polygon points="615.625,209.375 615.625,200 606.25,200"/>
<polygon points="615.625,209.375 625,209.375 615.625,200"/>
<polygon points="625,209.375 625,200 615.625,200"/>
<polygon points="625,209.375 634.375,209.375 625,200"/>
<polygon points="634.375,209.375 634.375,200 625,200"/>
<polygon points="634.375,209.375 643.75,209.375 634.375,200"/>
<polygon points="643.75,209.375 643.75,200 634.375,200"/>
<polygon points="643.75,209.375 653.125,209.375 643.75,200"/>
<polygon points="653.125,209.375 653.125,200 643.75,200"/>
<polygon points="653.125,209.375 662.5,209.375 653.125,200"/>
<polygon points="662.5,209.375 662.5,200 653.125,200"/>
<polygon points="662.5,209.375 671.875,209.375 662.5,200"/>
<polygon points="671.875,209.375 671.875,200 662.5,200"/>
<polygon points="671.875,209.375 681.25,209.375 671.875,200"/>
<polygon points="681.25,209.375 681.25,200 671.875,200"/>
<polygon points="681.25,209.375 690.625,209.375 681.25,200"/>
<polygon points="690.625,209.375 690.625,200 681.25,200"/>
<polygon points="698.638,209.375 698.815,200 690.625,200"/>
<polygon points="690.625,200 690.625,209.375 698.638,209.375"/>
<polygon points="601.142,190.625 601.23,200 606.25,200"/>
<polygon points="606.25,200 606.25,190.625 601.142,190.625"/>
<polygon points="606.25,200 615.625,200 606.25,190.625"/>
<polygon points="615.625,200 615.625,190.625 606.25,190.625"/>
<polygon points="615.625,200 625,200 615.625,190.625"/>
<polygon points="625,200 625,190.625 615.625,190.625"/>
<polygon points="625,200 634.375,200 625,190.625"/>
<polygon points="634.375,200 634.375,190.625 625,190.625"/>
<polygon points="634.375,200 643.75,200 634.375,190.625"/>
<polygon points="643.75,200 643.75,190.625 634.375,190.625"/>
<polygon points="643.75,200 653.125,200 643.75,190.625"/>
<polygon points="653.125,200 653.125,190.625 643.75,190.625"/>
<polygon points="653.125,200 662.5,200 653.125,190.625"/>
<polygon points="662.5,200 662.5,190.625 653.125,190.625"/>
<polygon points="662.5,200 671.875,200 662.5,190.625"/>
<polygon points="671.875,200 671.875,190.625 662.5,190.625"/>
<polygon points="671.875,200 681.25,200 671.875,190.625"/>
<polygon points="681.25,200 681.25,190.625 671.875,190.625"/>
<polygon points="681.25,200 690.625,200 681.25,190.625"/>
<polygon points="690.625,200 690.625,190.625 681.25,190.625"/>
<polygon points="698.815,200 698.992,190.625 690.625,190.625"/>
<polygon points="690.625,190.625 690.625,200 698.815,200"/>
<polygon points="601.054,181.25 601.142,190.625 606.25,190.625"/>
<polygon points="606.25,190.625 606.25,181.25 601.054,181.25"/>
<polygon points="606.25,190.625 615.625,190.625 606.25,181.25"/>
<polygon points="615.625,190.625 615.625,181.25 606.25,181.25"/>
<polygon points="615.625,190.625 625,190.625 615.625,181.25"/>
<polygon points="625,190.625 625,181.25 615.625,181.25"/>
<polygon points="625,190.625 634.375,190.625 625,181.25"/>
<polygon points="634.375,190.625 634.375,181.25 625,181.25"/>
<polygon points="634.375,190.625 643.75,190.625 634.375,181.25"/>
<polygon points="643.75,190.625 643.75,181.25 634.375,181.25"/>
<polygon points="643.75,190.625 653.125,190.625 643.75,181.25"/>
<polygon points="653.125,190.625 653.125,181.25 643.75,181.25"/>
<polygon points="655,185.938 655.088,181.25 653.125,181.25"/>
<polygon points="653.125,190.625 662.5,190.625 662.5,186.097"/>
<polygon points="655,185.938 653.125,181.25 653.125,190.625"/>
<polygon points="653.125,190.625 662.5,186.097 655,185.938"/>
<polygon points="671.875,186.297 662.5,186.097 662.5,190.625"/>
<polygon points="662.5,190.625 671.875,190.625 671.875,186.297"/>
<polygon points="681.25,186.496 671.875,186.297 671.875,190.625"/>
<polygon points="671.875,190.625 681.25,190.625 681.25,186.496"/>
<polygon points="690.625,186.695 681.25,186.496 681.25,190.625"/>
<polygon points="681.25,190.625 690.625,190.625 690.625,186.695"/>
<polygon points="699.062,186.875 690.625,186.695 690.625,190.625"/>
<polygon points="690.625,190.625 698.992,190.625 699.062,186.875"/>
<polygon points="600.967,171.875 601.054,181.25 606.25,181.25"/>
<polygon points="606.25,181.25 606.25,171.875 600.967,171.875"/>
<polygon points="606.25,181.25 615.625,181.25 606.25,171.875"/>
<polygon points="615.625,181.25 615.625,171.875 606.25,171.875"/>
<polygon points="615.625,181.25 625,181.25 615.625,171.875"/>
<polygon points="625,181.25 625,171.875 615.625,171.875"/>
<polygon points="625,181.25 634.375,181.25 625,171.875"/>
<polygon points="634.375,181.25 634.375,171.875 625,171.875"/>
<polygon points="634.375,181.25 643.75,181.25 634.375,171.875"/>
<polygon points="643.75,181.25 643.75,171.875 634.375,171.875"/>
<polygon points="643.75,181.25 653.125,181.25 643.75,171.875"/>
<polygon points="653.125,181.25 653.125,171.875 643.75,171.875"/>
<polygon points="655.088,181.25 655.265,171.875 653.125,171.875"/>
<polygon points="653.125,171.875 653.125,181.25 655.088,181.25"/>
<polygon points="600.879,162.5 600.967,171.875 606.25,171.875"/>
<polygon points="606.25,171.875 606.25,162.5 600.879,162.5"/>
<polygon points="606.25,171.875 615.625,171.875 606.25,162.5"/>
<polygon points="615.625,171.875 615.625,162.5 606.25,162.5"/>
<polygon points="615.625,171.875 625,171.875 615.625,162.5"/>
<polygon points="625,171.875 625,162.5 615.625,162.5"/>
<polygon points="625,171.875 634.375,171.875 625,162.5"/>
<polygon points="634.375,171.875 634.375,162.5 625,162.5"/>
<polygon points="634.375,171.875 643.75,171.875 634.375,162.5"/>
<polygon points="643.75,171.875 643.75,162.5 634.375,162.5"/>
<polygon points="643.75,171.875 653.125,171.875 643.75,162.5"/>
<polygon points="653.125,171.875 653.125,162.5 643.75,162.5"/>
<polygon points="655.265,171.875 655.442,162.5 653.125,162.5"/>
<polygon points="653.125,162.5 653.125,171.875 655.265,171.875"/>
<polygon points="600.791,153.125 600.879,162.5 606.25,162.5"/>
<polygon points="606.25,162.5 606.25,153.125 600.791,153.125"/>
<polygon points="606.25,162.5 615.625,162.5 606.25,153.125"/>
<polygon points="615.625,162.5 615.625,153.125 606.25,153.125"/>
<polygon points="615.625,162.5 625,162.5 615.625,153.125"/>
<polygon points="625,162.5 625,153.125 615.625,153.125"/>
<polygon points="625,162.5 634.375,162.5 625,153.125"/>
<polygon points="634.375,162.5 634.375,153.125 625,153.125"/>
<polygon points="634.375,162.5 643.75,162.5 634.375,153.125"/>
<polygon points="643.75,162.5 643.75,153.125 634.375,153.125"/>
<polygon points="643.75,162.5 653.125,162.5 643.75,153.125"/>
<polygon points="653.125,162.5 653.125,153.125 643.75,153.125"/>
<polygon points="655.442,162.5 655.619,153.125 653.125,153.125"/>
<polygon points="653.125,153.125 653.125,162.5 655.442,162.5"/>
<polygon points="600.704,143.75 600.791,153.125 606.25,153.125"/>
<polygon points="606.25,153.125 606.25,143.75 600.704,143.75"/>
<polygon points="606.25,153.125 615.625,153.125 606.25,143.75"/>
<polygon points="615.625,153.125 615.625,143.75 606.25,143.75"/>
<polygon points="615.625,153.125 625,153.125 615.625,143.75"/>
<polygon points="625,153.125 625,143.75 615.625,143.75"/>
<polygon points="625,153.125 634.375,153.125 625,143.75"/>
<polygon points="634.375,153.125 634.375,143.75 625,143.75"/>
<polygon points="634.375,153.125 643.75,153.125 634.375,143.75"/>
<polygon points="643.75,153.125 643.75,143.75 634.375,143.75"/>
<polygon points="643.75,153.125 653.125,153.125 643.75,143.75"/>
<polygon points="653.125,153.125 653.125,143.75 643.75,143.75"/>
<polygon points="655.619,153.125 655.796,143.75 653.125,143.75"/>
<polygon points="653.125,143.75 653.125,153.125 655.619,153.125"/>
<polygon points="600.625,135.313 600.704,143.75 606.25,143.75"/>
<polygon points="606.25,143.75 606.25,135.408 600.625,135.313"/>
<polygon points="615.625,135.567 606.25,135.408 606.25,143.75"/>
<polygon points="606.25,143.75 615.625,143.75 615.625,135.567"/>
<polygon points="625,135.726 615.625,135.567 615.625,143.75"/>
<polygon points="615.625,143.75 625,143.75 625,135.726"/>
<polygon points="634.375,135.885 625,135.726 625,143.75"/>
<polygon points="625,143.75 634.375,143.75 634.375,135.885"/>
<polygon points="643.75,136.043 634.375,135.885 634.375,143.75"/>
<polygon points="634.375,143.75 643.75,143.75 643.75,136.043"/>
<polygon points="653.125,136.202 643.75,136.043 643.75,143.75"/>
<polygon points="643.75,143.75 653.125,143.75 653.125,136.202"/>
<polygon points="655.938,136.25 653.125,136.202 653.125,143.75"/>
<polygon points="653.125,143.75 655.796,143.75 655.938,136.25"/>
</g>
<text x="625" y="370" text-anchor="middle" font-size="12">Triangles: 204, Vertices: 126</text>
</svg>
