<?xml version="1.0" encoding="UTF-8"?>
<svg xmlns="http://www.w3.org/2000/svg" width="850" height="450" viewBox="0 0 850 450">
<rect width="100%" height="100%" fill="white"/>
<text x="200" y="30" text-anchor="middle" font-size="16" font-weight="bold">Earcut</text>
<text x="625" y="30" text-anchor="middle" font-size="16" font-weight="bold">MeshCut</text>
<line x1="412.5" y1="50" x2="412.5" y2="400" stroke="#ccc" stroke-width="1"/>
<g class="left-grid" stroke="#e0e0e0" stroke-width="0.5" fill="none">
<line x1="50" y1="350" x2="50" y2="50"/>
<line x1="59.375" y1="350" x2="59.375" y2="50"/>
<line x1="68.75" y1="350" x2="68.75" y2="50"/>
<line x1="78.125" y1="350" x2="78.125" y2="50"/>
<line x1="87.5" y1="350" x2="87.5" y2="50"/>
<line x1="96.875" y1="350" x2="96.875" y2="50"/>
<line x1="106.25" y1="350" x2="106.25" y2="50"/>
<line x1="115.625" y1="350" x2="115.625" y2="50"/>
<line x1="125" y1="350" x2="125" y2="50"/>
<line x1="134.375" y1="350" x2="134.375" y2="50"/>
<line x1="143.75" y1="350" x2="143.75" y2="50"/>
<line x1="153.125" y1="350" x2="153.125" y2="50"/>
<line x1="162.5" y1="350" x2="162.5" y2="50"/>
<line x1="171.875" y1="350" x2="171.875" y2="50"/>
<line x1="181.25" y1="350" x2="181.25" y2="50"/>
<line x1="190.625" y1="350" x2="190.625" y2="50"/>
<line x1="200" y1="350" x2="200" y2="50"/>
<line x1="209.375" y1="350" x2="209.375" y2="50"/>
<line x1="218.75" y1="350" x2="218.75" y2="50"/>
<line x1="228.125" y1="350" x2="228.125" y2="50"/>
<line x1="237.5" y1="350" x2="237.5" y2="50"/>
<line x1="246.875" y1="350" x2="246.875" y2="50"/>
<line x1="256.25" y1="350" x2="256.25" y2="50"/>
<line x1="265.625" y1="350" x2="265.625" y2="50"/>
<line x1="275" y1="350" x2="275" y2="50"/>
<line x1="284.375" y1="350" x2="284.375" y2="50"/>
<line x1="293.75" y1="350" x2="293.75" y2="50"/>
<line x1="303.125" y1="350" x2="303.125" y2="50"/>
<line x1="312.5" y1="350" x2="312.5" y2="50"/>
<line x1="321.875" y1="350" x2="321.875" y2="50"/>
<line x1="331.25" y1="350" x2="331.25" y2="50"/>
<line x1="340.625" y1="350" x2="340.625" y2="50"/>
<line x1="350" y1="350" x2="350" y2="50"/>
<line x1="50" y1="350" x2="350" y2="350"/>
<line x1="50" y1="340.625" x2="350" y2="340.625"/>
<line x1="50" y1="331.25" x2="350" y2="331.25"/>
<line x1="50" y1="321.875" x2="350" y2="321.875"/>
<line x1="50" y1="312.5" x2="350" y2="312.5"/>
<line x1="50" y1="303.125" x2="350" y2="303.125"/>
<line x1="50" y1="293.75" x2="350" y2="293.75"/>
<line x1="50" y1="284.375" x2="350" y2="284.375"/>
<line x1="50" y1="275" x2="350" y2="275"/>
<line x1="50" y1="265.625" x2="350" y2="265.625"/>
<line x1="50" y1="256.25" x2="350" y2="256.25"/>
<line x1="50" y1="246.875" x2="350" y2="246.875"/>
<line x1="50" y1="237.5" x2="350" y2="237.5"/>
<line x1="50" y1="228.125" x2="350" y2="228.125"/>
<line x1="50" y1="218.75" x2="350" y2="218.75"/>
<line x1="50" y1="209.375" x2="350" y2="209.375"/>
<line x1="50" y1="200" x2="350" y2="200"/>
<line x1="50" y1="190.625" x2="350" y2="190.625"/>
<line x1="50" y1="181.25" x2="350" y2="181.25"/>
<line x1="50" y1="171.875" x2="350" y2="171.875"/>
<line x1="50" y1="162.5" x2="350" y2="162.5"/>
<line x1="50" y1="153.125" x2="350" y2="153.125"/>
<line x1="50" y1="143.75" x2="350" y2="143.75"/>
<line x1="50" y1="134.375" x2="350" y2="134.375"/>
<line x1="50" y1="125" x2="350" y2="125"/>
<line x1="50" y1="115.625" x2="350" y2="115.625"/>
<line x1="50" y1="106.25" x2="350" y2="106.25"/>
<line x1="50" y1="96.875" x2="350" y2="96.875"/>
<line x1="50" y1="87.5" x2="350" y2="87.5"/>
<line x1="50" y1="78.125" x2="350" y2="78.125"/>
<line x1="50" y1="68.75" x2="350" y2="68.75"/>
<line x1="50" y1="59.375" x2="350" y2="59.375"/>
<line x1="50" y1="50" x2="350" y2="50"/>
</g>
<polygon points="293.75,190.625 286.668,154.726 257.721,132.904 231.212,115.274 200,143.75 182.047,147.282 123.529,114.154 100.074,149.234 143.75,190.625 148.086,212.128 151.654,238.971 173.809,253.856 200,293.75 239.449,285.864 229.596,220.221 238.656,206.637 " fill="#4CAF50" fill-opacity="0.3" stroke="#4CAF50" stroke-width="2"/>
<g fill="#FF5722" fill-opacity="0.2" stroke="#FF5722" stroke-width="0.5">
<polygon points="238.656,206.637 293.75,190.625 286.668,154.726"/>
<polygon points="286.668,154.726 257.721,132.904 231.212,115.274"/>
<polygon points="182.047,147.282 123.529,114.154 100.074,149.234"/>
<polygon points="148.086,212.128 151.654,238.971 173.809,253.856"/>
<polygon points="173.809,253.856 200,293.75 239.449,285.864"/>
<polygon points="238.656,206.637 286.668,154.726 231.212,115.274"/>
<polygon points="182.047,147.282 100.074,149.234 143.75,190.625"/>
<polygon points="143.75,190.625 148.086,212.128 173.809,253.856"/>
<polygon points="173.809,253.856 239.449,285.864 229.596,220.221"/>
<polygon points="229.596,220.221 238.656,206.637 231.212,115.274"/>
<polygon points="200,143.75 182.047,147.282 143.75,190.625"/>
<polygon points="143.75,190.625 173.809,253.856 229.596,220.221"/>
<polygon points="229.596,220.221 231.212,115.274 200,143.75"/>
<polygon points="200,143.75 143.75,190.625 229.596,220.221"/>
</g>
<text x="200" y="370" text-anchor="middle" font-size="12">Triangles: 14, Vertices: 16</text>
<g class="right-grid" stroke="#e0e0e0" stroke-width="0.5" fill="none">
<line x1="475" y1="350" x2="475" y2="50"/>
<line x1="484.375" y1="350" x2="484.375" y2="50"/>
<line x1="493.75" y1="350" x2="493.75" y2="50"/>
<line x1="503.125" y1="350" x2="503.125" y2="50"/>
<line x1="512.5" y1="350" x2="512.5" y2="50"/>
<line x1="521.875" y1="350" x2="521.875" y2="50"/>
<line x1="531.25" y1="350" x2="531.25" y2="50"/>
<line x1="540.625" y1="350" x2="540.625" y2="50"/>
<line x1="550" y1="350" x2="550" y2="50"/>
<line x1="559.375" y1="350" x2="559.375" y2="50"/>
<line x1="568.75" y1="350" x2="568.75" y2="50"/>
<line x1="578.125" y1="350" x2="578.125" y2="50"/>
<line x1="587.5" y1="350" x2="587.5" y2="50"/>
<line x1="596.875" y1="350" x2="596.875" y2="50"/>
<line x1="606.25" y1="350" x2="606.25" y2="50"/>
<line x1="615.625" y1="350" x2="615.625" y2="50"/>
<line x1="625" y1="350" x2="625" y2="50"/>
<line x1="634.375" y1="350" x2="634.375" y2="50"/>
<line x1="643.75" y1="350" x2="643.75" y2="50"/>
<line x1="653.125" y1="350" x2="653.125" y2="50"/>
<line x1="662.5" y1="350" x2="662.5" y2="50"/>
<line x1="671.875" y1="350" x2="671.875" y2="50"/>
<line x1="681.25" y1="350" x2="681.25" y2="50"/>
<line x1="690.625" y1="350" x2="690.625" y2="50"/>
<line x1="700" y1="350" x2="700" y2="50"/>
<line x1="709.375" y1="350" x2="709.375" y2="50"/>
<line x1="718.75" y1="350" x2="718.75" y2="50"/>
<line x1="728.125" y1="350" x2="728.125" y2="50"/>
<line x1="737.5" y1="350" x2="737.5" y2="50"/>
<line x1="746.875" y1="350" x2="746.875" y2="50"/>
<line x1="756.25" y1="350" x2="756.25" y2="50"/>
<line x1="765.625" y1="350" x2="765.625" y2="50"/>
<line x1="775" y1="350" x2="775" y2="50"/>
<line x1="475" y1="350" x2="775" y2="350"/>
<line x1="475" y1="340.625" x2="775" y2="340.625"/>
<line x1="475" y1="331.25" x2="775" y2="331.25"/>
<line x1="475" y1="321.875" x2="775" y2="321.875"/>
<line x1="475" y1="312.5" x2="775" y2="312.5"/>
<line x1="475" y1="303.125" x2="775" y2="303.125"/>
<line x1="475" y1="293.75" x2="775" y2="293.75"/>
<line x1="475" y1="284.375" x2="775" y2="284.375"/>
<line x1="475" y1="275" x2="775" y2="275"/>
<line x1="475" y1="265.625" x2="775" y2="265.625"/>
<line x1="475" y1="256.25" x2="775" y2="256.25"/>
<line x1="475" y1="246.875" x2="775" y2="246.875"/>
<line x1="475" y1="237.5" x2="775" y2="237.5"/>
<line x1="475" y1="228.125" x2="775" y2="228.125"/>
<line x1="475" y1="218.75" x2="775" y2="218.75"/>
<line x1="475" y1="209.375" x2="775" y2="209.375"/>
<line x1="475" y1="200" x2="775" y2="200"/>
<line x1="475" y1="190.625" x2="775" y2="190.625"/>
<line x1="475" y1="181.25" x2="775" y2="181.25"/>
<line x1="475" y1="171.875" x2="775" y2="171.875"/>
<line x1="475" y1="162.5" x2="775" y2="162.5"/>
<line x1="475" y1="153.125" x2="775" y2="153.125"/>
<line x1="475" y1="143.75" x2="775" y2="143.75"/>
<line x1="475" y1="134.375" x2="775" y2="134.375"/>
<line x1="475" y1="125" x2="775" y2="125"/>
<line x1="475" y1="115.625" x2="775" y2="115.625"/>
<line x1="475" y1="106.25" x2="775" y2="106.25"/>
<line x1="475" y1="96.875" x2="775" y2="96.875"/>
<line x1="475" y1="87.5" x2="775" y2="87.5"/>
<line x1="475" y1="78.125" x2="775" y2="78.125"/>
<line x1="475" y1="68.75" x2="775" y2="68.75"/>
<line x1="475" y1="59.375" x2="775" y2="59.375"/>
<line x1="475" y1="50" x2="775" y2="50"/>
</g>
<polygon points="718.75,190.625 711.668,154.726 682.721,132.904 656.212,115.274 625,143.75 607.047,147.282 548.529,114.154 525.074,149.234 568.75,190.625 573.086,212.128 576.654,238.971 598.809,253.856 625,293.75 664.449,285.864 654.596,220.221 663.656,206.637 " fill="#4CAF50" fill-opacity="0.3" stroke="#4CAF50" stroke-width="2"/>
<g fill="#2196F3" fill-opacity="0.2" stroke="#2196F3" stroke-width="0.5">
<polygon points="618.845,284.375 625,293.75 625,284.375"/>
<polygon points="634.375,291.876 634.375,284.375 625,284.375"/>
<polygon points="634.375,291.876 625,284.375 625,293.75"/>
<polygon points="634.375,291.876 643.75,290.002 643.75,284.375"/>
<polygon points="643.75,284.375 634.375,284.375 634.375,291.876"/>
<polygon points="643.75,290.002 653.125,288.128 653.125,284.375"/>
<polygon points="653.125,284.375 643.75,284.375 643.75,290.002"/>
<polygon points="662.5,286.253 662.5,284.375 653.125,284.375"/>
<polygon points="653.125,284.375 653.125,288.128 662.5,286.253"/>
<polygon points="664.449,285.864 664.226,284.375 662.5,284.375"/>
<polygon points="662.5,284.375 662.5,286.253 664.449,285.864"/>
<polygon points="612.691,275 615.625,279.47 615.625,275"/>
<polygon points="615.625,279.47 618.845,284.375 625,284.375"/>
<polygon points="625,284.375 625,275 615.625,275"/>
<polygon points="615.625,275 615.625,279.47 625,284.375"/>
<polygon points="625,284.375 634.375,284.375 625,275"/>
<polygon points="634.375,284.375 634.375,275 625,275"/>
<polygon points="634.375,284.375 643.75,284.375 634.375,275"/>
<polygon points="643.75,284.375 643.75,275 634.375,275"/>
<polygon points="643.75,284.375 653.125,284.375 643.75,275"/>
<polygon points="653.125,284.375 653.125,275 643.75,275"/>
<polygon points="653.125,284.375 662.5,284.375 653.125,275"/>
<polygon points="662.5,284.375 662.5,275 653.125,275"/>
<polygon points="664.226,284.375 662.818,275 662.5,275"/>
<polygon points="662.5,275 662.5,284.375 664.226,284.375"/>
<polygon points="606.536,265.625 612.691,275 615.625,275"/>
<polygon points="615.625,275 615.625,265.625 606.536,265.625"/>
<polygon points="615.625,275 625,275 615.625,265.625"/>
<polygon points="625,275 625,265.625 615.625,265.625"/>
<polygon points="625,275 634.375,275 625,265.625"/>
<polygon points="634.375,275 634.375,265.625 625,265.625"/>
<polygon points="634.375,275 643.75,275 634.375,265.625"/>
<polygon points="643.75,275 643.75,265.625 634.375,265.625"/>
<polygon points="643.75,275 653.125,275 643.75,265.625"/>
<polygon points="653.125,275 653.125,265.625 643.75,265.625"/>
<polygon points="662.5,272.879 661.411,265.625 653.125,265.625"/>
<polygon points="653.125,265.625 653.125,275 662.5,275"/>
<polygon points="662.5,275 662.5,272.879 653.125,265.625"/>
<polygon points="662.5,275 662.818,275 662.5,272.879"/>
<polygon points="600.381,256.25 606.25,265.19 606.25,256.25"/>
<polygon points="606.25,265.19 606.536,265.625 615.625,265.625"/>
<polygon points="615.625,265.625 615.625,256.25 606.25,256.25"/>
<polygon points="606.25,256.25 606.25,265.19 615.625,265.625"/>
<polygon points="615.625,265.625 625,265.625 615.625,256.25"/>
<polygon points="625,265.625 625,256.25 615.625,256.25"/>
<polygon points="625,265.625 634.375,265.625 625,256.25"/>
<polygon points="634.375,265.625 634.375,256.25 625,256.25"/>
<polygon points="634.375,265.625 643.75,265.625 634.375,256.25"/>
<polygon points="643.75,265.625 643.75,256.25 634.375,256.25"/>
<polygon points="643.75,265.625 653.125,265.625 643.75,256.25"/>
<polygon points="653.125,265.625 653.125,256.25 643.75,256.25"/>
<polygon points="661.411,265.625 660.004,256.25 653.125,256.25"/>
<polygon points="653.125,256.25 653.125,265.625 661.411,265.625"/>
<polygon points="588.419,246.875 596.875,252.556 596.875,246.875"/>
<polygon points="598.809,253.856 600.381,256.25 606.25,256.25"/>
<polygon points="606.25,256.25 606.25,246.875 596.875,246.875"/>
<polygon points="596.875,246.875 596.875,252.556 598.809,253.856"/>
<polygon points="598.809,253.856 606.25,256.25 596.875,246.875"/>
<polygon points="606.25,256.25 615.625,256.25 606.25,246.875"/>
<polygon points="615.625,256.25 615.625,246.875 606.25,246.875"/>
<polygon points="615.625,256.25 625,256.25 615.625,246.875"/>
<polygon points="625,256.25 625,246.875 615.625,246.875"/>
<polygon points="625,256.25 634.375,256.25 625,246.875"/>
<polygon points="634.375,256.25 634.375,246.875 625,246.875"/>
<polygon points="634.375,256.25 643.75,256.25 634.375,246.875"/>
<polygon points="643.75,256.25 643.75,246.875 634.375,246.875"/>
<polygon points="643.75,256.25 653.125,256.25 643.75,246.875"/>
<polygon points="653.125,256.25 653.125,246.875 643.75,246.875"/>
<polygon points="660.004,256.25 658.597,246.875 653.125,246.875"/>
<polygon points="653.125,246.875 653.125,256.25 660.004,256.25"/>
<polygon points="576.654,238.971 578.125,239.959 578.125,237.5"/>
<polygon points="578.125,237.5 576.459,237.5 576.654,238.971"/>
<polygon points="578.125,239.959 587.5,246.257 587.5,237.5"/>
<polygon points="587.5,237.5 578.125,237.5 578.125,239.959"/>
<polygon points="587.5,246.257 588.419,246.875 596.875,246.875"/>
<polygon points="596.875,246.875 596.875,237.5 587.5,237.5"/>
<polygon points="587.5,237.5 587.5,246.257 596.875,246.875"/>
<polygon points="596.875,246.875 606.25,246.875 596.875,237.5"/>
<polygon points="606.25,246.875 606.25,237.5 596.875,237.5"/>
<polygon points="606.25,246.875 615.625,246.875 606.25,237.5"/>
<polygon points="615.625,246.875 615.625,237.5 606.25,237.5"/>
<polygon points="615.625,246.875 625,246.875 615.625,237.5"/>
<polygon points="625,246.875 625,237.5 615.625,237.5"/>
<polygon points="625,246.875 634.375,246.875 625,237.5"/>
<polygon points="634.375,246.875 634.375,237.5 625,237.5"/>
<polygon points="634.375,246.875 643.75,246.875 634.375,237.5"/>
<polygon points="643.75,246.875 643.75,237.5 634.375,237.5"/>
<polygon points="643.75,246.875 653.125,246.875 643.75,237.5"/>
<polygon points="653.125,246.875 653.125,237.5 643.75,237.5"/>
<polygon points="658.597,246.875 657.189,237.5 653.125,237.5"/>
<polygon points="653.125,237.5 653.125,246.875 658.597,246.875"/>
<polygon points="575.213,228.125 576.459,237.5 578.125,237.5"/>
<polygon points="578.125,237.5 578.125,228.125 575.213,228.125"/>
<polygon points="578.125,237.5 587.5,237.5 578.125,228.125"/>
<polygon points="587.5,237.5 587.5,228.125 578.125,228.125"/>
<polygon points="587.5,237.5 596.875,237.5 587.5,228.125"/>
<polygon points="596.875,237.5 596.875,228.125 587.5,228.125"/>
<polygon points="596.875,237.5 606.25,237.5 596.875,228.125"/>
<polygon points="606.25,237.5 606.25,228.125 596.875,228.125"/>
<polygon points="606.25,237.5 615.625,237.5 606.25,228.125"/>
<polygon points="615.625,237.5 615.625,228.125 606.25,228.125"/>
<polygon points="615.625,237.5 625,237.5 615.625,228.125"/>
<polygon points="625,237.5 625,228.125 615.625,228.125"/>
<polygon points="625,237.5 634.375,237.5 625,228.125"/>
<polygon points="634.375,237.5 634.375,228.125 625,228.125"/>
<polygon points="634.375,237.5 643.75,237.5 634.375,228.125"/>
<polygon points="643.75,237.5 643.75,228.125 634.375,228.125"/>
<polygon points="643.75,237.5 653.125,237.5 643.75,228.125"/>
<polygon points="653.125,237.5 653.125,228.125 643.75,228.125"/>
<polygon points="657.189,237.5 655.782,228.125 653.125,228.125"/>
<polygon points="653.125,228.125 653.125,237.5 657.189,237.5"/>
<polygon points="573.966,218.75 575.213,228.125 578.125,228.125"/>
<polygon points="578.125,228.125 578.125,218.75 573.966,218.75"/>
<polygon points="578.125,228.125 587.5,228.125 578.125,218.75"/>
<polygon points="587.5,228.125 587.5,218.75 578.125,218.75"/>
<polygon points="587.5,228.125 596.875,228.125 587.5,218.75"/>
<polygon points="596.875,228.125 596.875,218.75 587.5,218.75"/>
<polygon points="596.875,228.125 606.25,228.125 596.875,218.75"/>
<polygon points="606.25,228.125 606.25,218.75 596.875,218.75"/>
<polygon points="606.25,228.125 615.625,228.125 606.25,218.75"/>
<polygon points="615.625,228.125 615.625,218.75 606.25,218.75"/>
<polygon points="615.625,228.125 625,228.125 615.625,218.75"/>
<polygon points="625,228.125 625,218.75 615.625,218.75"/>
<polygon points="625,228.125 634.375,228.125 625,218.75"/>
<polygon points="634.375,228.125 634.375,218.75 625,218.75"/>
<polygon points="634.375,228.125 643.75,228.125 634.375,218.75"/>
<polygon points="643.75,228.125 643.75,218.75 634.375,218.75"/>
<polygon points="643.75,228.125 653.125,228.125 643.75,218.75"/>
<polygon points="653.125,228.125 653.125,218.75 643.75,218.75"/>
<polygon points="654.596,220.221 655.576,218.75 653.125,218.75"/>
<polygon points="653.125,218.75 653.125,228.125 655.782,228.125"/>
<polygon points="655.782,228.125 654.596,220.221 653.125,218.75"/>
<polygon points="573.086,212.128 573.966,218.75 578.125,218.75"/>
<polygon points="578.125,218.75 578.125,209.375 572.531,209.375"/>
<polygon points="572.531,209.375 573.086,212.128 578.125,218.75"/>
<polygon points="578.125,218.75 587.5,218.75 578.125,209.375"/>
<polygon points="587.5,218.75 587.5,209.375 578.125,209.375"/>
<polygon points="587.5,218.75 596.875,218.75 587.5,209.375"/>
<polygon points="596.875,218.75 596.875,209.375 587.5,209.375"/>
<polygon points="596.875,218.75 606.25,218.75 596.875,209.375"/>
<polygon points="606.25,218.75 606.25,209.375 596.875,209.375"/>
<polygon points="606.25,218.75 615.625,218.75 606.25,209.375"/>
<polygon points="615.625,218.75 615.625,209.375 606.25,209.375"/>
<polygon points="615.625,218.75 625,218.75 615.625,209.375"/>
<polygon points="625,218.75 625,209.375 615.625,209.375"/>
<polygon points="625,218.75 634.375,218.75 625,209.375"/>
<polygon points="634.375,218.75 634.375,209.375 625,209.375"/>
<polygon points="634.375,218.75 643.75,218.75 634.375,209.375"/>
<polygon points="643.75,218.75 643.75,209.375 634.375,209.375"/>
<polygon points="643.75,218.75 653.125,218.75 643.75,209.375"/>
<polygon points="653.125,218.75 653.125,209.375 643.75,209.375"/>
<polygon points="655.576,218.75 661.829,209.375 653.125,209.375"/>
<polygon points="653.125,209.375 653.125,218.75 655.576,218.75"/>
<polygon points="570.64,200 572.531,209.375 578.125,209.375"/>
<polygon points="578.125,209.375 578.125,200 570.64,200"/>
<polygon points="578.125,209.375 587.5,209.375 578.125,200"/>
<polygon points="587.5,209.375 587.5,200 578.125,200"/>
<polygon points="587.5,209.375 596.875,209.375 587.5,200"/>
<polygon points="596.875,209.375 596.875,200 587.5,200"/>
<polygon points="596.875,209.375 606.25,209.375 596.875,200"/>
<polygon points="606.25,209.375 606.25,200 596.875,200"/>
<polygon points="606.25,209.375 615.625,209.375 606.25,200"/>
<polygon points="615.625,209.375 615.625,200 606.25,200"/>
<polygon points="615.625,209.375 625,209.375 615.625,200"/>
<polygon points="625,209.375 625,200 615.625,200"/>
<polygon points="625,209.375 634.375,209.375 625,200"/>
<polygon points="634.375,209.375 634.375,200 625,200"/>
<polygon points="634.375,209.375 643.75,209.375 634.375,200"/>
<polygon points="643.75,209.375 643.75,200 634.375,200"/>
<polygon points="643.75,209.375 653.125,209.375 643.75,200"/>
<polygon points="653.125,209.375 653.125,200 643.75,200"/>
<polygon points="661.829,209.375 662.5,208.369 662.5,200"/>
<polygon points="662.5,200 653.125,200 653.125,209.375"/>
<polygon points="653.125,209.375 661.829,209.375 662.5,200"/>
<polygon points="663.656,206.637 671.875,204.248 671.875,200"/>
<polygon points="663.656,206.637 671.875,200 662.5,200"/>
<polygon points="662.5,208.369 663.656,206.637 662.5,200"/>
<polygon points="681.25,201.523 681.25,200 671.875,200"/>
<polygon points="671.875,200 671.875,204.248 681.25,201.523"/>
<polygon points="681.25,201.523 686.492,200 681.25,200"/>
<polygon points="570.64,200 578.125,200 578.125,190.625"/>
<polygon points="570.64,200 578.125,190.625 568.75,190.625"/>
<polygon points="578.125,200 587.5,200 578.125,190.625"/>
<polygon points="587.5,200 587.5,190.625 578.125,190.625"/>
<polygon points="587.5,200 596.875,200 587.5,190.625"/>
<polygon points="596.875,200 596.875,190.625 587.5,190.625"/>
<polygon points="596.875,200 606.25,200 596.875,190.625"/>
<polygon points="606.25,200 606.25,190.625 596.875,190.625"/>
<polygon points="606.25,200 615.625,200 606.25,190.625"/>
<polygon points="615.625,200 615.625,190.625 606.25,190.625"/>
<polygon points="615.625,200 625,200 615.625,190.625"/>
<polygon points="625,200 625,190.625 615.625,190.625"/>
<polygon points="625,200 634.375,200 625,190.625"/>
<polygon points="634.375,200 634.375,190.625 625,190.625"/>
<polygon points="634.375,200 643.75,200 634.375,190.625"/>
<polygon points="643.75,200 643.75,190.625 634.375,190.625"/>
<polygon points="643.75,200 653.125,200 643.75,190.625"/>
<polygon points="653.125,200 653.125,190.625 643.75,190.625"/>
<polygon points="653.125,200 662.5,200 653.125,190.625"/>
<polygon points="662.5,200 662.5,190.625 653.125,190.625"/>
<polygon points="662.5,200 671.875,200 662.5,190.625"/>
<polygon points="671.875,200 671.875,190.625 662.5,190.625"/>
<polygon points="671.875,200 681.25,200 671.875,190.625"/>
<polygon points="681.25,200 681.25,190.625 671.875,190.625"/>
<polygon points="690.625,198.799 690.625,190.625 681.25,190.625"/>
<polygon points="681.25,190.625 681.25,200 686.492,200"/>
<polygon points="686.492,200 690.625,198.799 681.25,190.625"/>
<polygon points="700,196.074 700,190.625 690.625,190.625"/>
<polygon points="690.625,190.625 690.625,198.799 700,196.074"/>
<polygon points="709.375,193.35 709.375,190.625 700,190.625"/>
<polygon points="700,190.625 700,196.074 709.375,193.35"/>
<polygon points="709.375,193.35 718.75,190.625 709.375,190.625"/>
<polygon points="558.857,181.25 559.375,181.741 559.375,181.25"/>
<polygon points="568.75,181.25 559.375,181.25 559.375,181.741"/>
<polygon points="568.75,181.25 559.375,181.741 568.75,190.625"/>
<polygon points="578.125,190.625 578.125,181.25 568.75,181.25"/>
<polygon points="578.125,190.625 568.75,181.25 568.75,190.625"/>
<polygon points="578.125,190.625 587.5,190.625 578.125,181.25"/>
<polygon points="587.5,190.625 587.5,181.25 578.125,181.25"/>
<polygon points="587.5,190.625 596.875,190.625 587.5,181.25"/>
<polygon points="596.875,190.625 596.875,181.25 587.5,181.25"/>
<polygon points="596.875,190.625 606.25,190.625 596.875,181.25"/>
<polygon points="606.25,190.625 606.25,181.25 596.875,181.25"/>
<polygon points="606.25,190.625 615.625,190.625 606.25,181.25"/>
<polygon points="615.625,190.625 615.625,181.25 606.25,181.25"/>
<polygon points="615.625,190.625 625,190.625 615.625,181.25"/>
<polygon points="625,190.625 625,181.25 615.625,181.25"/>
<polygon points="625,190.625 634.375,190.625 625,181.25"/>
<polygon points="634.375,190.625 634.375,181.25 625,181.25"/>
<polygon points="634.375,190.625 643.75,190.625 634.375,181.25"/>
<polygon points="643.75,190.625 643.75,181.25 634.375,181.25"/>
<polygon points="643.75,190.625 653.125,190.625 643.75,181.25"/>
<polygon points="653.125,190.625 653.125,181.25 643.75,181.25"/>
<polygon points="653.125,190.625 662.5,190.625 653.125,181.25"/>
<polygon points="662.5,190.625 662.5,181.25 653.125,181.25"/>
<polygon points="662.5,190.625 671.875,190.625 662.5,181.25"/>
<polygon points="671.875,190.625 671.875,181.25 662.5,181.25"/>
<polygon points="671.875,190.625 681.25,190.625 671.875,181.25"/>
<polygon points="681.25,190.625 681.25,181.25 671.875,181.25"/>
<polygon points="681.25,190.625 690.625,190.625 681.25,181.25"/>
<polygon points="690.625,190.625 690.625,181.25 681.25,181.25"/>
<polygon points="690.625,190.625 700,190.625 690.625,181.25"/>
<polygon points="700,190.625 700,181.25 690.625,181.25"/>
<polygon points="700,190.625 709.375,190.625 700,181.25"/>
<polygon points="709.375,190.625 709.375,181.25 700,181.25"/>
<polygon points="716.901,181.25 709.375,181.25 709.375,190.625"/>
<polygon points="716.901,181.25 709.375,190.625 718.75,190.625"/>
<polygon points="548.965,171.875 550,172.856 550,171.875"/>
<polygon points="550,172.856 558.857,181.25 559.375,181.25"/>
<polygon points="559.375,181.25 559.375,171.875 550,171.875"/>
<polygon points="550,171.875 550,172.856 559.375,181.25"/>
<polygon points="559.375,181.25 568.75,181.25 559.375,171.875"/>
<polygon points="568.75,181.25 568.75,171.875 559.375,171.875"/>
<polygon points="568.75,181.25 578.125,181.25 568.75,171.875"/>
<polygon points="578.125,181.25 578.125,171.875 568.75,171.875"/>
<polygon points="578.125,181.25 587.5,181.25 578.125,171.875"/>
<polygon points="587.5,181.25 587.5,171.875 578.125,171.875"/>
<polygon points="587.5,181.25 596.875,181.25 587.5,171.875"/>
<polygon points="596.875,181.25 596.875,171.875 587.5,171.875"/>
<polygon points="596.875,181.25 606.25,181.25 596.875,171.875"/>
<polygon points="606.25,181.25 606.25,171.875 596.875,171.875"/>
<polygon points="606.25,181.25 615.625,181.25 606.25,171.875"/>
<polygon points="615.625,181.25 615.625,171.875 606.25,171.875"/>
<polygon points="615.625,181.25 625,181.25 615.625,171.875"/>
<polygon points="625,181.25 625,171.875 615.625,171.875"/>
<polygon points="625,181.25 634.375,181.25 625,171.875"/>
<polygon points="634.375,181.25 634.375,171.875 625,171.875"/>
<polygon points="634.375,181.25 643.75,181.25 634.375,171.875"/>
<polygon points="643.75,181.25 643.75,171.875 634.375,171.875"/>
<polygon points="643.75,181.25 653.125,181.25 643.75,171.875"/>
<polygon points="653.125,181.25 653.125,171.875 643.75,171.875"/>
<polygon points="653.125,181.25 662.5,181.25 653.125,171.875"/>
<polygon points="662.5,181.25 662.5,171.875 653.125,171.875"/>
<polygon points="662.5,181.25 671.875,181.25 662.5,171.875"/>
<polygon points="671.875,181.25 671.875,171.875 662.5,171.875"/>
<polygon points="671.875,181.25 681.25,181.25 671.875,171.875"/>
<polygon points="681.25,181.25 681.25,171.875 671.875,171.875"/>
<polygon points="681.25,181.25 690.625,181.25 681.25,171.875"/>
<polygon points="690.625,181.25 690.625,171.875 681.25,171.875"/>
<polygon points="690.625,181.25 700,181.25 690.625,171.875"/>
<polygon points="700,181.25 700,171.875 690.625,171.875"/>
<polygon points="700,181.25 709.375,181.25 700,171.875"/>
<polygon points="709.375,181.25 709.375,171.875 700,171.875"/>
<polygon points="716.901,181.25 715.051,171.875 709.375,171.875"/>
<polygon points="709.375,171.875 709.375,181.25 716.901,181.25"/>
<polygon points="539.072,162.5 540.625,163.972 540.625,162.5"/>
<polygon points="540.625,163.972 548.965,171.875 550,171.875"/>
<polygon points="550,171.875 550,162.5 540.625,162.5"/>
<polygon points="540.625,162.5 540.625,163.972 550,171.875"/>
<polygon points="550,171.875 559.375,171.875 550,162.5"/>
<polygon points="559.375,171.875 559.375,162.5 550,162.5"/>
<polygon points="559.375,171.875 568.75,171.875 559.375,162.5"/>
<polygon points="568.75,171.875 568.75,162.5 559.375,162.5"/>
<polygon points="568.75,171.875 578.125,171.875 568.75,162.5"/>
<polygon points="578.125,171.875 578.125,162.5 568.75,162.5"/>
<polygon points="578.125,171.875 587.5,171.875 578.125,162.5"/>
<polygon points="587.5,171.875 587.5,162.5 578.125,162.5"/>
<polygon points="587.5,171.875 596.875,171.875 587.5,162.5"/>
<polygon points="596.875,171.875 596.875,162.5 587.5,162.5"/>
<polygon points="596.875,171.875 606.25,171.875 596.875,162.5"/>
<polygon points="606.25,171.875 606.25,162.5 596.875,162.5"/>
<polygon points="606.25,171.875 615.625,171.875 606.25,162.5"/>
<polygon points="615.625,171.875 615.625,162.5 606.25,162.5"/>
<polygon points="615.625,171.875 625,171.875 615.625,162.5"/>
<polygon points="625,171.875 625,162.5 615.625,162.5"/>
<polygon points="625,171.875 634.375,171.875 625,162.5"/>
<polygon points="634.375,171.875 634.375,162.5 625,162.5"/>
<polygon points="634.375,171.875 643.75,171.875 634.375,162.5"/>
<polygon points="643.75,171.875 643.75,162.5 634.375,162.5"/>
<polygon points="643.75,171.875 653.125,171.875 643.75,162.5"/>
<polygon points="653.125,171.875 653.125,162.5 643.75,162.5"/>
<polygon points="653.125,171.875 662.5,171.875 653.125,162.5"/>
<polygon points="662.5,171.875 662.5,162.5 653.125,162.5"/>
<polygon points="662.5,171.875 671.875,171.875 662.5,162.5"/>
<polygon points="671.875,171.875 671.875,162.5 662.5,162.5"/>
<polygon points="671.875,171.875 681.25,171.875 671.875,162.5"/>
<polygon points="681.25,171.875 681.25,162.5 671.875,162.5"/>
<polygon points="681.25,171.875 690.625,171.875 681.25,162.5"/>
<polygon points="690.625,171.875 690.625,162.5 681.25,162.5"/>
<polygon points="690.625,171.875 700,171.875 690.625,162.5"/>
<polygon points="700,171.875 700,162.5 690.625,162.5"/>
<polygon points="700,171.875 709.375,171.875 700,162.5"/>
<polygon points="709.375,171.875 709.375,162.5 700,162.5"/>
<polygon points="715.051,171.875 713.202,162.5 709.375,162.5"/>
<polygon points="709.375,162.5 709.375,171.875 715.051,171.875"/>
<polygon points="529.179,153.125 531.25,155.087 531.25,153.125"/>
<polygon points="531.25,155.087 539.072,162.5 540.625,162.5"/>
<polygon points="540.625,162.5 540.625,153.125 531.25,153.125"/>
<polygon points="531.25,153.125 531.25,155.087 540.625,162.5"/>
<polygon points="540.625,162.5 550,162.5 540.625,153.125"/>
<polygon points="550,162.5 550,153.125 540.625,153.125"/>
<polygon points="550,162.5 559.375,162.5 550,153.125"/>
<polygon points="559.375,162.5 559.375,153.125 550,153.125"/>
<polygon points="559.375,162.5 568.75,162.5 559.375,153.125"/>
<polygon points="568.75,162.5 568.75,153.125 559.375,153.125"/>
<polygon points="568.75,162.5 578.125,162.5 568.75,153.125"/>
<polygon points="578.125,162.5 578.125,153.125 568.75,153.125"/>
<polygon points="578.125,162.5 587.5,162.5 578.125,153.125"/>
<polygon points="587.5,162.5 587.5,153.125 578.125,153.125"/>
<polygon points="587.5,162.5 596.875,162.5 587.5,153.125"/>
<polygon points="596.875,162.5 596.875,153.125 587.5,153.125"/>
<polygon points="596.875,162.5 606.25,162.5 596.875,153.125"/>
<polygon points="606.25,162.5 606.25,153.125 596.875,153.125"/>
<polygon points="606.25,162.5 615.625,162.5 606.25,153.125"/>
<polygon points="615.625,162.5 615.625,153.125 606.25,153.125"/>
<polygon points="615.625,162.5 625,162.5 615.625,153.125"/>
<polygon points="625,162.5 625,153.125 615.625,153.125"/>
<polygon points="625,162.5 634.375,162.5 625,153.125"/>
<polygon points="634.375,162.5 634.375,153.125 625,153.125"/>
<polygon points="634.375,162.5 643.75,162.5 634.375,153.125"/>
<polygon points="643.75,162.5 643.75,153.125 634.375,153.125"/>
<polygon points="643.75,162.5 653.125,162.5 643.75,153.125"/>
<polygon points="653.125,162.5 653.125,153.125 643.75,153.125"/>
<polygon points="653.125,162.5 662.5,162.5 653.125,153.125"/>
<polygon points="662.5,162.5 662.5,153.125 653.125,153.125"/>
<polygon points="662.5,162.5 671.875,162.5 662.5,153.125"/>
<polygon points="671.875,162.5 671.875,153.125 662.5,153.125"/>
<polygon points="671.875,162.5 681.25,162.5 671.875,153.125"/>
<polygon points="681.25,162.5 681.25,153.125 671.875,153.125"/>
<polygon points="681.25,162.5 690.625,162.5 681.25,153.125"/>
<polygon points="690.625,162.5 690.625,153.125 681.25,153.125"/>
<polygon points="690.625,162.5 700,162.5 690.625,153.125"/>
<polygon points="700,162.5 700,153.125 690.625,153.125"/>
<polygon points="700,162.5 709.375,162.5 700,153.125"/>
<polygon points="709.375,162.5 709.375,153.125 700,153.125"/>
<polygon points="711.668,154.726 709.544,153.125 709.375,153.125"/>
<polygon points="709.375,153.125 709.375,162.5 713.202,162.5"/>
<polygon points="713.202,162.5 711.668,154.726 709.375,153.125"/>
<polygon points="525.074,149.234 529.179,153.125 531.25,153.125"/>
<polygon points="531.25,153.125 531.25,143.75 528.741,143.75"/>
<polygon points="528.741,143.75 525.074,149.234 531.25,153.125"/>
<polygon points="531.25,153.125 540.625,153.125 531.25,143.75"/>
<polygon points="540.625,153.125 540.625,143.75 531.25,143.75"/>
<polygon points="540.625,153.125 550,153.125 540.625,143.75"/>
<polygon points="550,153.125 550,143.75 540.625,143.75"/>
<polygon points="550,153.125 559.375,153.125 550,143.75"/>
<polygon points="559.375,153.125 559.375,143.75 550,143.75"/>
<polygon points="559.375,153.125 568.75,153.125 559.375,143.75"/>
<polygon points="568.75,153.125 568.75,143.75 559.375,143.75"/>
<polygon points="568.75,153.125 578.125,153.125 568.75,143.75"/>
<polygon points="578.125,153.125 578.125,143.75 568.75,143.75"/>
<polygon points="578.125,153.125 587.5,153.125 578.125,143.75"/>
<polygon points="587.5,153.125 587.5,143.75 578.125,143.75"/>
<polygon points="587.5,153.125 596.875,153.125 587.5,143.75"/>
<polygon points="596.875,153.125 596.875,143.75 587.5,143.75"/>
<polygon points="596.875,143.75 596.875,153.125 606.25,153.125"/>
<polygon points="606.25,153.125 606.25,146.831 600.808,143.75"/>
<polygon points="600.808,143.75 596.875,143.75 606.25,153.125"/>
<polygon points="606.25,146.831 606.25,153.125 615.625,153.125"/>
<polygon points="615.625,153.125 615.625,145.594 607.047,147.282"/>
<polygon points="607.047,147.282 606.25,146.831 615.625,153.125"/>
<polygon points="615.625,145.594 615.625,153.125 625,153.125"/>
<polygon points="615.625,145.594 625,153.125 625,143.75"/>
<polygon points="625,153.125 634.375,153.125 634.375,143.75"/>
<polygon points="625,153.125 634.375,143.75 625,143.75"/>
<polygon points="634.375,153.125 643.75,153.125 634.375,143.75"/>
<polygon points="643.75,153.125 643.75,143.75 634.375,143.75"/>
<polygon points="643.75,153.125 653.125,153.125 643.75,143.75"/>
<polygon points="653.125,153.125 653.125,143.75 643.75,143.75"/>
<polygon points="653.125,153.125 662.5,153.125 653.125,143.75"/>
<polygon points="662.5,153.125 662.5,143.75 653.125,143.75"/>
<polygon points="662.5,153.125 671.875,153.125 662.5,143.75"/>
<polygon points="671.875,153.125 671.875,143.75 662.5,143.75"/>
<polygon points="671.875,153.125 681.25,153.125 671.875,143.75"/>
<polygon points="681.25,153.125 681.25,143.75 671.875,143.75"/>
<polygon points="681.25,153.125 690.625,153.125 681.25,143.75"/>
<polygon points="690.625,153.125 690.625,143.75 681.25,143.75"/>
<polygon points="700,145.93 697.108,143.75 690.625,143.75"/>
<polygon points="690.625,143.75 690.625,153.125 700,153.125"/>
<polygon points="700,153.125 700,145.93 690.625,143.75"/>
<polygon points="709.375,152.997 700,145.93 700,153.125"/>
<polygon points="700,153.125 709.375,153.125 709.375,152.997"/>
<polygon points="709.544,153.125 709.375,152.997 709.375,153.125"/>
<polygon points="531.25,139.997 528.741,143.75 531.25,143.75"/>
<polygon points="531.25,139.997 531.25,143.75 540.625,143.75"/>
<polygon points="540.625,143.75 540.625,134.375 535.009,134.375"/>
<polygon points="535.009,134.375 531.25,139.997 540.625,143.75"/>
<polygon points="540.625,143.75 550,143.75 540.625,134.375"/>
<polygon points="550,143.75 550,134.375 540.625,134.375"/>
<polygon points="550,143.75 559.375,143.75 550,134.375"/>
<polygon points="559.375,143.75 559.375,134.375 550,134.375"/>
<polygon points="559.375,143.75 568.75,143.75 559.375,134.375"/>
<polygon points="568.75,143.75 568.75,134.375 559.375,134.375"/>
<polygon points="568.75,143.75 578.125,143.75 568.75,134.375"/>
<polygon points="578.125,143.75 578.125,134.375 568.75,134.375"/>
<polygon points="578.125,134.375 578.125,143.75 587.5,143.75"/>
<polygon points="587.5,143.75 587.5,136.216 584.248,134.375"/>
<polygon points="584.248,134.375 578.125,134.375 587.5,143.75"/>
<polygon points="587.5,136.216 587.5,143.75 596.875,143.75"/>
<polygon points="596.875,143.75 596.875,141.524 587.5,136.216"/>
<polygon points="596.875,141.524 596.875,143.75 600.808,143.75"/>
<polygon points="634.375,135.197 625,143.75 634.375,143.75"/>
<polygon points="634.375,135.197 634.375,143.75 643.75,143.75"/>
<polygon points="643.75,143.75 643.75,134.375 635.275,134.375"/>
<polygon points="635.275,134.375 634.375,135.197 643.75,143.75"/>
<polygon points="643.75,143.75 653.125,143.75 643.75,134.375"/>
<polygon points="653.125,143.75 653.125,134.375 643.75,134.375"/>
<polygon points="653.125,143.75 662.5,143.75 653.125,134.375"/>
<polygon points="662.5,143.75 662.5,134.375 653.125,134.375"/>
<polygon points="662.5,143.75 671.875,143.75 662.5,134.375"/>
<polygon points="671.875,143.75 671.875,134.375 662.5,134.375"/>
<polygon points="671.875,143.75 681.25,143.75 671.875,134.375"/>
<polygon points="681.25,143.75 681.25,134.375 671.875,134.375"/>
<polygon points="690.625,138.863 684.671,134.375 681.25,134.375"/>
<polygon points="681.25,134.375 681.25,143.75 690.625,143.75"/>
<polygon points="690.625,143.75 690.625,138.863 681.25,134.375"/>
<polygon points="697.108,143.75 690.625,138.863 690.625,143.75"/>
<polygon points="540.625,125.976 535.009,134.375 540.625,134.375"/>
<polygon points="540.625,125.976 540.625,134.375 550,134.375"/>
<polygon points="550,134.375 550,125 541.278,125"/>
<polygon points="541.278,125 540.625,125.976 550,134.375"/>
<polygon points="550,134.375 559.375,134.375 550,125"/>
<polygon points="559.375,134.375 559.375,125 550,125"/>
<polygon points="559.375,125 559.375,134.375 568.75,134.375"/>
<polygon points="568.75,134.375 568.75,125.602 567.687,125"/>
<polygon points="567.687,125 559.375,125 568.75,134.375"/>
<polygon points="568.75,125.602 568.75,134.375 578.125,134.375"/>
<polygon points="578.125,134.375 578.125,130.909 568.75,125.602"/>
<polygon points="578.125,130.909 578.125,134.375 584.248,134.375"/>
<polygon points="643.75,126.643 635.275,134.375 643.75,134.375"/>
<polygon points="643.75,126.643 643.75,134.375 653.125,134.375"/>
<polygon points="653.125,134.375 653.125,125 645.551,125"/>
<polygon points="645.551,125 643.75,126.643 653.125,134.375"/>
<polygon points="653.125,134.375 662.5,134.375 653.125,125"/>
<polygon points="662.5,134.375 662.5,125 653.125,125"/>
<polygon points="662.5,125 662.5,134.375 671.875,134.375"/>
<polygon points="671.875,134.375 671.875,125.691 670.836,125"/>
<polygon points="670.836,125 662.5,125 671.875,134.375"/>
<polygon points="681.25,131.926 671.875,125.691 671.875,134.375"/>
<polygon points="671.875,134.375 681.25,134.375 681.25,131.926"/>
<polygon points="682.721,132.904 681.25,131.926 681.25,134.375"/>
<polygon points="681.25,134.375 684.671,134.375 682.721,132.904"/>
<polygon points="547.546,115.625 541.278,125 550,125"/>
<polygon points="550,125 550,115.625 547.546,115.625"/>
<polygon points="550,115.625 550,125 559.375,125"/>
<polygon points="559.375,125 559.375,120.294 551.127,115.625"/>
<polygon points="551.127,115.625 550,115.625 559.375,125"/>
<polygon points="559.375,120.294 559.375,125 567.687,125"/>
<polygon points="653.125,118.09 645.551,125 653.125,125"/>
<polygon points="653.125,118.09 653.125,125 662.5,125"/>
<polygon points="662.5,125 662.5,119.456 656.74,115.625"/>
<polygon points="656.74,115.625 655.826,115.625 653.125,118.09"/>
<polygon points="653.125,118.09 662.5,125 656.74,115.625"/>
<polygon points="662.5,119.456 662.5,125 670.836,125"/>
<polygon points="548.529,114.154 547.546,115.625 550,115.625"/>
<polygon points="550,115.625 550,114.987 548.529,114.154"/>
<polygon points="550,114.987 550,115.625 551.127,115.625"/>
<polygon points="656.212,115.274 655.826,115.625 656.74,115.625"/>
</g>
<text x="625" y="370" text-anchor="middle" font-size="12">Triangles: 488, Vertices: 296</text>
</svg>
