<?xml version="1.0" encoding="UTF-8"?>
<svg xmlns="http://www.w3.org/2000/svg" width="900" height="500" viewBox="0 0 900 500">
<rect width="100%" height="100%" fill="white"/>
<text x="225" y="25" text-anchor="middle" font-size="16" font-weight="bold">Earcut (Sparse Triangulation)</text>
<text x="675" y="25" text-anchor="middle" font-size="16" font-weight="bold">MeshCut (Dense Grid)</text>
<line x1="450" y1="40" x2="450" y2="480" stroke="#ccc" stroke-width="2"/>
<polygon points="284.975,83.3333 365.771,83.3333 356.448,87.6839 312.114,112.337 263.015,149.627 213.917,201.212 177.662,253.004 168.961,260.255 157.152,280.972 138.507,322.405 119.862,358.66 93.1376,416.667 58.3333,400.508 102.874,318.055 144.308,239.538 151.973,227.937 165.854,202.662 184.291,174.073 188.642,173.244 190.507,166.822 203.144,153.356 229.868,129.739 266.744,95.1419 " fill="#4CAF50" fill-opacity="0.3" stroke="#4CAF50" stroke-width="2"/>
<g fill="none" stroke="#FF5722" stroke-width="0.5" opacity="0.8">
<polygon points="229.868,129.739 266.744,95.1419 284.975,83.3333"/>
<polygon points="284.975,83.3333 365.771,83.3333 356.448,87.6839"/>
<polygon points="213.917,201.212 177.662,253.004 168.961,260.255"/>
<polygon points="157.152,280.972 138.507,322.405 119.862,358.66"/>
<polygon points="119.862,358.66 93.1376,416.667 58.3333,400.508"/>
<polygon points="102.874,318.055 144.308,239.538 151.973,227.937"/>
<polygon points="151.973,227.937 165.854,202.662 184.291,174.073"/>
<polygon points="188.642,173.244 190.507,166.822 203.144,153.356"/>
<polygon points="203.144,153.356 229.868,129.739 284.975,83.3333"/>
<polygon points="284.975,83.3333 356.448,87.6839 312.114,112.337"/>
<polygon points="157.152,280.972 119.862,358.66 58.3333,400.508"/>
<polygon points="58.3333,400.508 102.874,318.055 151.973,227.937"/>
<polygon points="151.973,227.937 184.291,174.073 188.642,173.244"/>
<polygon points="188.642,173.244 203.144,153.356 284.975,83.3333"/>
<polygon points="284.975,83.3333 312.114,112.337 263.015,149.627"/>
<polygon points="168.961,260.255 157.152,280.972 58.3333,400.508"/>
<polygon points="58.3333,400.508 151.973,227.937 188.642,173.244"/>
<polygon points="188.642,173.244 284.975,83.3333 263.015,149.627"/>
<polygon points="213.917,201.212 168.961,260.255 58.3333,400.508"/>
<polygon points="188.642,173.244 263.015,149.627 213.917,201.212"/>
<polygon points="213.917,201.212 58.3333,400.508 188.642,173.244"/>
</g>
<g stroke="#e0e0e0" stroke-width="0.3" fill="none" opacity="0.5">
<line x1="475" y1="50" x2="475" y2="450"/>
<line x1="487.5" y1="50" x2="487.5" y2="450"/>
<line x1="500" y1="50" x2="500" y2="450"/>
<line x1="512.5" y1="50" x2="512.5" y2="450"/>
<line x1="525" y1="50" x2="525" y2="450"/>
<line x1="537.5" y1="50" x2="537.5" y2="450"/>
<line x1="550" y1="50" x2="550" y2="450"/>
<line x1="562.5" y1="50" x2="562.5" y2="450"/>
<line x1="575" y1="50" x2="575" y2="450"/>
<line x1="587.5" y1="50" x2="587.5" y2="450"/>
<line x1="600" y1="50" x2="600" y2="450"/>
<line x1="612.5" y1="50" x2="612.5" y2="450"/>
<line x1="625" y1="50" x2="625" y2="450"/>
<line x1="637.5" y1="50" x2="637.5" y2="450"/>
<line x1="650" y1="50" x2="650" y2="450"/>
<line x1="662.5" y1="50" x2="662.5" y2="450"/>
<line x1="675" y1="50" x2="675" y2="450"/>
<line x1="687.5" y1="50" x2="687.5" y2="450"/>
<line x1="700" y1="50" x2="700" y2="450"/>
<line x1="712.5" y1="50" x2="712.5" y2="450"/>
<line x1="725" y1="50" x2="725" y2="450"/>
<line x1="737.5" y1="50" x2="737.5" y2="450"/>
<line x1="750" y1="50" x2="750" y2="450"/>
<line x1="762.5" y1="50" x2="762.5" y2="450"/>
<line x1="775" y1="50" x2="775" y2="450"/>
<line x1="787.5" y1="50" x2="787.5" y2="450"/>
<line x1="800" y1="50" x2="800" y2="450"/>
<line x1="812.5" y1="50" x2="812.5" y2="450"/>
<line x1="825" y1="50" x2="825" y2="450"/>
<line x1="837.5" y1="50" x2="837.5" y2="450"/>
<line x1="850" y1="50" x2="850" y2="450"/>
<line x1="862.5" y1="50" x2="862.5" y2="450"/>
<line x1="875" y1="50" x2="875" y2="450"/>
<line x1="475" y1="50" x2="875" y2="50"/>
<line x1="475" y1="62.5" x2="875" y2="62.5"/>
<line x1="475" y1="75" x2="875" y2="75"/>
<line x1="475" y1="87.5" x2="875" y2="87.5"/>
<line x1="475" y1="100" x2="875" y2="100"/>
<line x1="475" y1="112.5" x2="875" y2="112.5"/>
<line x1="475" y1="125" x2="875" y2="125"/>
<line x1="475" y1="137.5" x2="875" y2="137.5"/>
<line x1="475" y1="150" x2="875" y2="150"/>
<line x1="475" y1="162.5" x2="875" y2="162.5"/>
<line x1="475" y1="175" x2="875" y2="175"/>
<line x1="475" y1="187.5" x2="875" y2="187.5"/>
<line x1="475" y1="200" x2="875" y2="200"/>
<line x1="475" y1="212.5" x2="875" y2="212.5"/>
<line x1="475" y1="225" x2="875" y2="225"/>
<line x1="475" y1="237.5" x2="875" y2="237.5"/>
<line x1="475" y1="250" x2="875" y2="250"/>
<line x1="475" y1="262.5" x2="875" y2="262.5"/>
<line x1="475" y1="275" x2="875" y2="275"/>
<line x1="475" y1="287.5" x2="875" y2="287.5"/>
<line x1="475" y1="300" x2="875" y2="300"/>
<line x1="475" y1="312.5" x2="875" y2="312.5"/>
<line x1="475" y1="325" x2="875" y2="325"/>
<line x1="475" y1="337.5" x2="875" y2="337.5"/>
<line x1="475" y1="350" x2="875" y2="350"/>
<line x1="475" y1="362.5" x2="875" y2="362.5"/>
<line x1="475" y1="375" x2="875" y2="375"/>
<line x1="475" y1="387.5" x2="875" y2="387.5"/>
<line x1="475" y1="400" x2="875" y2="400"/>
<line x1="475" y1="412.5" x2="875" y2="412.5"/>
<line x1="475" y1="425" x2="875" y2="425"/>
<line x1="475" y1="437.5" x2="875" y2="437.5"/>
<line x1="475" y1="450" x2="875" y2="450"/>
</g>
<polygon points="734.975,83.3333 815.771,83.3333 806.448,87.6839 762.114,112.337 713.015,149.627 663.917,201.212 627.662,253.004 618.961,260.255 607.152,280.972 588.507,322.405 569.862,358.66 543.138,416.667 508.333,400.508 552.874,318.055 594.308,239.538 601.973,227.937 615.854,202.662 634.291,174.073 638.642,173.244 640.507,166.822 653.144,153.356 679.868,129.739 716.744,95.1419 " fill="#4CAF50" fill-opacity="0.3" stroke="#4CAF50" stroke-width="2"/>
<g fill="none" stroke="#2196F3" stroke-width="0.5" opacity="0.8">
<polygon points="737.5,83.3333 737.5,87.5 728.542,87.5"/>
<polygon points="728.542,87.5 734.975,83.3333 737.5,83.3333"/>
<polygon points="750,83.3333 750,87.5 737.5,87.5"/>
<polygon points="737.5,87.5 737.5,83.3333 750,83.3333"/>
<polygon points="762.5,83.3333 762.5,87.5 750,87.5"/>
<polygon points="750,87.5 750,83.3333 762.5,83.3333"/>
<polygon points="775,83.3333 775,87.5 762.5,87.5"/>
<polygon points="762.5,87.5 762.5,83.3333 775,83.3333"/>
<polygon points="787.5,83.3333 787.5,87.5 775,87.5"/>
<polygon points="775,87.5 775,83.3333 787.5,83.3333"/>
<polygon points="800,83.3333 800,87.5 787.5,87.5"/>
<polygon points="787.5,87.5 787.5,83.3333 800,83.3333"/>
<polygon points="812.5,84.8596 806.842,87.5 800,87.5"/>
<polygon points="800,87.5 800,83.3333 812.5,83.3333"/>
<polygon points="812.5,83.3333 812.5,84.8596 800,87.5"/>
<polygon points="815.771,83.3333 812.5,84.8596 812.5,83.3333"/>
<polygon points="711.566,100 712.5,99.124 712.5,100"/>
<polygon points="712.5,99.124 716.744,95.1419 725,89.7945"/>
<polygon points="725,89.7945 725,100 712.5,100"/>
<polygon points="712.5,100 712.5,99.124 725,89.7945"/>
<polygon points="737.5,87.5 737.5,100 725,100"/>
<polygon points="725,100 725,89.7945 728.542,87.5"/>
<polygon points="728.542,87.5 737.5,87.5 725,100"/>
<polygon points="737.5,87.5 750,87.5 737.5,100"/>
<polygon points="750,87.5 750,100 737.5,100"/>
<polygon points="750,87.5 762.5,87.5 750,100"/>
<polygon points="762.5,87.5 762.5,100 750,100"/>
<polygon points="762.5,87.5 775,87.5 762.5,100"/>
<polygon points="775,87.5 775,100 762.5,100"/>
<polygon points="787.5,98.2204 784.3,100 775,100"/>
<polygon points="775,100 775,87.5 787.5,87.5"/>
<polygon points="787.5,87.5 787.5,98.2204 775,100"/>
<polygon points="800,91.2695 787.5,98.2204 787.5,87.5"/>
<polygon points="787.5,87.5 800,87.5 800,91.2695"/>
<polygon points="806.448,87.6839 800,91.2695 800,87.5"/>
<polygon points="800,87.5 806.842,87.5 806.448,87.6839"/>
<polygon points="698.243,112.5 700,110.852 700,112.5"/>
<polygon points="700,110.852 711.566,100 712.5,100"/>
<polygon points="712.5,100 712.5,112.5 700,112.5"/>
<polygon points="700,112.5 700,110.852 712.5,100"/>
<polygon points="712.5,100 725,100 712.5,112.5"/>
<polygon points="725,100 725,112.5 712.5,112.5"/>
<polygon points="725,100 737.5,100 725,112.5"/>
<polygon points="737.5,100 737.5,112.5 725,112.5"/>
<polygon points="737.5,100 750,100 737.5,112.5"/>
<polygon points="750,100 750,112.5 737.5,112.5"/>
<polygon points="750,100 762.5,100 750,112.5"/>
<polygon points="762.5,100 762.5,112.5 750,112.5"/>
<polygon points="775,105.171 762.5,112.122 762.5,100"/>
<polygon points="762.5,100 775,100 775,105.171"/>
<polygon points="784.3,100 775,105.171 775,100"/>
<polygon points="684.92,125 687.5,122.579 687.5,125"/>
<polygon points="687.5,122.579 698.243,112.5 700,112.5"/>
<polygon points="700,112.5 700,125 687.5,125"/>
<polygon points="687.5,125 687.5,122.579 700,112.5"/>
<polygon points="700,112.5 712.5,112.5 700,125"/>
<polygon points="712.5,112.5 712.5,125 700,125"/>
<polygon points="712.5,112.5 725,112.5 712.5,125"/>
<polygon points="725,112.5 725,125 712.5,125"/>
<polygon points="725,112.5 737.5,112.5 725,125"/>
<polygon points="737.5,112.5 737.5,125 725,125"/>
<polygon points="750,121.537 745.441,125 737.5,125"/>
<polygon points="737.5,125 737.5,112.5 750,112.5"/>
<polygon points="750,112.5 750,121.537 737.5,125"/>
<polygon points="761.899,112.5 750,121.537 750,112.5"/>
<polygon points="671.086,137.5 675,134.041 675,137.5"/>
<polygon points="679.868,129.739 684.92,125 687.5,125"/>
<polygon points="687.5,125 687.5,137.5 675,137.5"/>
<polygon points="675,137.5 675,134.041 679.868,129.739"/>
<polygon points="679.868,129.739 687.5,125 675,137.5"/>
<polygon points="687.5,125 700,125 687.5,137.5"/>
<polygon points="700,125 700,137.5 687.5,137.5"/>
<polygon points="700,125 712.5,125 700,137.5"/>
<polygon points="712.5,125 712.5,137.5 700,137.5"/>
<polygon points="712.5,125 725,125 712.5,137.5"/>
<polygon points="725,125 725,137.5 712.5,137.5"/>
<polygon points="737.5,131.031 728.983,137.5 725,137.5"/>
<polygon points="725,137.5 725,125 737.5,125"/>
<polygon points="737.5,125 737.5,131.031 725,137.5"/>
<polygon points="745.441,125 737.5,131.031 737.5,125"/>
<polygon points="656.941,150 662.5,145.088 662.5,150"/>
<polygon points="662.5,145.088 671.086,137.5 675,137.5"/>
<polygon points="675,137.5 675,150 662.5,150"/>
<polygon points="662.5,150 662.5,145.088 675,137.5"/>
<polygon points="675,137.5 687.5,137.5 675,150"/>
<polygon points="687.5,137.5 687.5,150 675,150"/>
<polygon points="687.5,137.5 700,137.5 687.5,150"/>
<polygon points="700,137.5 700,150 687.5,150"/>
<polygon points="700,137.5 712.5,137.5 700,150"/>
<polygon points="712.5,137.5 712.5,150 700,150"/>
<polygon points="712.5,150 712.5,137.5 725,137.5"/>
<polygon points="725,137.5 725,140.525 713.015,149.627"/>
<polygon points="713.015,149.627 712.66,150 712.5,150"/>
<polygon points="712.5,150 725,137.5 713.015,149.627"/>
<polygon points="728.983,137.5 725,140.525 725,137.5"/>
<polygon points="644.563,162.5 650,156.706 650,162.5"/>
<polygon points="653.144,153.356 656.941,150 662.5,150"/>
<polygon points="662.5,150 662.5,162.5 650,162.5"/>
<polygon points="650,162.5 650,156.706 653.144,153.356"/>
<polygon points="653.144,153.356 662.5,150 650,162.5"/>
<polygon points="662.5,150 675,150 662.5,162.5"/>
<polygon points="675,150 675,162.5 662.5,162.5"/>
<polygon points="675,150 687.5,150 675,162.5"/>
<polygon points="687.5,150 687.5,162.5 675,162.5"/>
<polygon points="687.5,150 700,150 687.5,162.5"/>
<polygon points="700,150 700,162.5 687.5,162.5"/>
<polygon points="700,162.5 700,150 712.5,150"/>
<polygon points="712.5,150 712.5,150.169 700.763,162.5"/>
<polygon points="700.763,162.5 700,162.5 712.5,150"/>
<polygon points="712.5,150.169 712.5,150 712.66,150"/>
<polygon points="634.291,174.073 637.5,173.462 637.5,175"/>
<polygon points="637.5,175 633.694,175 634.291,174.073"/>
<polygon points="640.507,166.822 644.563,162.5 650,162.5"/>
<polygon points="650,162.5 650,175 637.5,175"/>
<polygon points="637.5,175 637.5,173.462 638.642,173.244"/>
<polygon points="638.642,173.244 640.507,166.822 650,162.5"/>
<polygon points="650,162.5 637.5,175 638.642,173.244"/>
<polygon points="650,162.5 662.5,162.5 650,175"/>
<polygon points="662.5,162.5 662.5,175 650,175"/>
<polygon points="662.5,162.5 675,162.5 662.5,175"/>
<polygon points="675,162.5 675,175 662.5,175"/>
<polygon points="675,162.5 687.5,162.5 675,175"/>
<polygon points="687.5,162.5 687.5,175 675,175"/>
<polygon points="687.5,175 687.5,162.5 700,162.5"/>
<polygon points="700,162.5 700,163.301 688.865,175"/>
<polygon points="688.865,175 687.5,175 700,162.5"/>
<polygon points="700,163.301 700,162.5 700.763,162.5"/>
<polygon points="625.632,187.5 633.694,175 637.5,175"/>
<polygon points="637.5,175 637.5,187.5 625.632,187.5"/>
<polygon points="637.5,175 650,175 637.5,187.5"/>
<polygon points="650,175 650,187.5 637.5,187.5"/>
<polygon points="650,175 662.5,175 650,187.5"/>
<polygon points="662.5,175 662.5,187.5 650,187.5"/>
<polygon points="662.5,175 675,175 662.5,187.5"/>
<polygon points="675,175 675,187.5 662.5,187.5"/>
<polygon points="675,187.5 675,175 687.5,175"/>
<polygon points="687.5,175 687.5,176.434 676.968,187.5"/>
<polygon points="676.968,187.5 675,187.5 687.5,175"/>
<polygon points="687.5,176.434 687.5,175 688.865,175"/>
<polygon points="617.57,200 625,188.48 625,200"/>
<polygon points="625,188.48 625.632,187.5 637.5,187.5"/>
<polygon points="637.5,187.5 637.5,200 625,200"/>
<polygon points="625,200 625,188.48 637.5,187.5"/>
<polygon points="637.5,187.5 650,187.5 637.5,200"/>
<polygon points="650,187.5 650,200 637.5,200"/>
<polygon points="650,187.5 662.5,187.5 650,200"/>
<polygon points="662.5,187.5 662.5,200 650,200"/>
<polygon points="662.5,200 662.5,187.5 675,187.5"/>
<polygon points="675,187.5 675,189.567 665.07,200"/>
<polygon points="665.07,200 662.5,200 675,187.5"/>
<polygon points="675,189.567 675,187.5 676.968,187.5"/>
<polygon points="610.451,212.5 612.5,208.769 612.5,212.5"/>
<polygon points="615.854,202.662 617.57,200 625,200"/>
<polygon points="625,200 625,212.5 612.5,212.5"/>
<polygon points="612.5,212.5 612.5,208.769 615.854,202.662"/>
<polygon points="615.854,202.662 625,200 612.5,212.5"/>
<polygon points="625,200 637.5,200 625,212.5"/>
<polygon points="637.5,200 637.5,212.5 625,212.5"/>
<polygon points="637.5,200 650,200 637.5,212.5"/>
<polygon points="650,200 650,212.5 637.5,212.5"/>
<polygon points="650,212.5 650,200 662.5,200"/>
<polygon points="662.5,200 662.5,203.236 656.015,212.5"/>
<polygon points="656.015,212.5 650,212.5 662.5,200"/>
<polygon points="662.5,200 665.07,200 663.917,201.212"/>
<polygon points="663.917,201.212 662.5,203.236 662.5,200"/>
<polygon points="603.586,225 610.451,212.5 612.5,212.5"/>
<polygon points="612.5,212.5 612.5,225 603.586,225"/>
<polygon points="612.5,212.5 625,212.5 612.5,225"/>
<polygon points="625,212.5 625,225 612.5,225"/>
<polygon points="625,212.5 637.5,212.5 625,225"/>
<polygon points="637.5,212.5 637.5,225 625,225"/>
<polygon points="637.5,225 637.5,212.5 650,212.5"/>
<polygon points="650,212.5 650,221.093 647.265,225"/>
<polygon points="647.265,225 637.5,225 650,212.5"/>
<polygon points="650,221.093 650,212.5 656.015,212.5"/>
<polygon points="595.655,237.5 600,230.923 600,237.5"/>
<polygon points="601.973,227.937 603.586,225 612.5,225"/>
<polygon points="612.5,225 612.5,237.5 600,237.5"/>
<polygon points="600,237.5 600,230.923 601.973,227.937"/>
<polygon points="601.973,227.937 612.5,225 600,237.5"/>
<polygon points="612.5,225 625,225 612.5,237.5"/>
<polygon points="625,225 625,237.5 612.5,237.5"/>
<polygon points="625,225 637.5,225 625,237.5"/>
<polygon points="637.5,225 637.5,237.5 625,237.5"/>
<polygon points="637.5,237.5 637.5,225 647.265,225"/>
<polygon points="647.265,225 638.515,237.5 637.5,237.5"/>
<polygon points="594.308,239.538 595.655,237.5 600,237.5"/>
<polygon points="600,237.5 600,250 588.787,250"/>
<polygon points="588.787,250 594.308,239.538 600,237.5"/>
<polygon points="600,237.5 612.5,237.5 600,250"/>
<polygon points="612.5,237.5 612.5,250 600,250"/>
<polygon points="612.5,237.5 625,237.5 612.5,250"/>
<polygon points="625,237.5 625,250 612.5,250"/>
<polygon points="625,250 625,237.5 637.5,237.5"/>
<polygon points="637.5,237.5 637.5,238.95 629.765,250"/>
<polygon points="629.765,250 625,250 637.5,237.5"/>
<polygon points="637.5,238.95 637.5,237.5 638.515,237.5"/>
<polygon points="582.191,262.5 587.5,252.439 587.5,262.5"/>
<polygon points="587.5,252.439 588.787,250 600,250"/>
<polygon points="600,250 600,262.5 587.5,262.5"/>
<polygon points="587.5,262.5 587.5,252.439 600,250"/>
<polygon points="600,250 612.5,250 600,262.5"/>
<polygon points="612.5,250 612.5,262.5 600,262.5"/>
<polygon points="612.5,262.5 612.5,250 625,250"/>
<polygon points="625,250 625,255.222 618.961,260.255"/>
<polygon points="618.961,260.255 617.681,262.5 612.5,262.5"/>
<polygon points="612.5,262.5 625,250 618.961,260.255"/>
<polygon points="625,255.222 625,250 629.765,250"/>
<polygon points="629.765,250 627.662,253.004 625,255.222"/>
<polygon points="575.595,275 582.191,262.5 587.5,262.5"/>
<polygon points="587.5,262.5 587.5,275 575.595,275"/>
<polygon points="587.5,262.5 600,262.5 587.5,275"/>
<polygon points="600,262.5 600,275 587.5,275"/>
<polygon points="600,275 600,262.5 612.5,262.5"/>
<polygon points="612.5,262.5 612.5,271.59 610.556,275"/>
<polygon points="610.556,275 600,275 612.5,262.5"/>
<polygon points="612.5,271.59 612.5,262.5 617.681,262.5"/>
<polygon points="568.998,287.5 575,276.127 575,287.5"/>
<polygon points="575,276.127 575.595,275 587.5,275"/>
<polygon points="587.5,275 587.5,287.5 575,287.5"/>
<polygon points="575,287.5 575,276.127 587.5,275"/>
<polygon points="587.5,275 600,275 587.5,287.5"/>
<polygon points="600,275 600,287.5 587.5,287.5"/>
<polygon points="600,287.5 600,275 610.556,275"/>
<polygon points="607.152,280.972 604.215,287.5 600,287.5"/>
<polygon points="600,287.5 610.556,275 607.152,280.972"/>
<polygon points="562.402,300 562.5,299.814 562.5,300"/>
<polygon points="562.5,299.814 568.998,287.5 575,287.5"/>
<polygon points="575,287.5 575,300 562.5,300"/>
<polygon points="562.5,300 562.5,299.814 575,287.5"/>
<polygon points="575,287.5 587.5,287.5 575,300"/>
<polygon points="587.5,287.5 587.5,300 575,300"/>
<polygon points="587.5,300 587.5,287.5 600,287.5"/>
<polygon points="600,287.5 600,296.866 598.59,300"/>
<polygon points="598.59,300 587.5,300 600,287.5"/>
<polygon points="600,296.866 600,287.5 604.215,287.5"/>
<polygon points="555.806,312.5 562.402,300 562.5,300"/>
<polygon points="562.5,300 562.5,312.5 555.806,312.5"/>
<polygon points="562.5,312.5 562.5,300 575,300"/>
<polygon points="575,300 575,312.5 562.5,312.5"/>
<polygon points="575,300 587.5,300 575,312.5"/>
<polygon points="587.5,300 587.5,312.5 575,312.5"/>
<polygon points="587.5,312.5 587.5,300 598.59,300"/>
<polygon points="598.59,300 592.965,312.5 587.5,312.5"/>
<polygon points="549.123,325 550,323.376 550,325"/>
<polygon points="552.874,318.055 555.806,312.5 562.5,312.5"/>
<polygon points="562.5,312.5 562.5,325 550,325"/>
<polygon points="550,325 550,323.376 552.874,318.055"/>
<polygon points="552.874,318.055 562.5,312.5 550,325"/>
<polygon points="562.5,312.5 575,312.5 562.5,325"/>
<polygon points="575,312.5 575,325 562.5,325"/>
<polygon points="575,312.5 587.5,312.5 575,325"/>
<polygon points="587.5,312.5 587.5,325 575,325"/>
<polygon points="587.5,324.364 587.5,312.5 592.965,312.5"/>
<polygon points="592.965,312.5 588.507,322.405 587.5,324.364"/>
<polygon points="542.37,337.5 549.123,325 550,325"/>
<polygon points="550,325 550,337.5 542.37,337.5"/>
<polygon points="550,325 562.5,325 550,337.5"/>
<polygon points="562.5,325 562.5,337.5 550,337.5"/>
<polygon points="562.5,325 575,325 562.5,337.5"/>
<polygon points="575,325 575,337.5 562.5,337.5"/>
<polygon points="575,337.5 575,325 587.173,325"/>
<polygon points="587.173,325 580.744,337.5 575,337.5"/>
<polygon points="535.618,350 537.5,346.515 537.5,350"/>
<polygon points="537.5,346.515 542.37,337.5 550,337.5"/>
<polygon points="550,337.5 550,350 537.5,350"/>
<polygon points="537.5,350 537.5,346.515 550,337.5"/>
<polygon points="550,337.5 562.5,337.5 550,350"/>
<polygon points="562.5,337.5 562.5,350 550,350"/>
<polygon points="562.5,350 562.5,337.5 575,337.5"/>
<polygon points="575,337.5 575,348.67 574.316,350"/>
<polygon points="574.316,350 562.5,350 575,337.5"/>
<polygon points="575,348.67 575,337.5 580.744,337.5"/>
<polygon points="528.865,362.5 535.618,350 537.5,350"/>
<polygon points="537.5,350 537.5,362.5 528.865,362.5"/>
<polygon points="537.5,350 550,350 537.5,362.5"/>
<polygon points="550,350 550,362.5 537.5,362.5"/>
<polygon points="550,350 562.5,350 550,362.5"/>
<polygon points="562.5,350 562.5,362.5 550,362.5"/>
<polygon points="562.5,362.5 562.5,350 574.316,350"/>
<polygon points="569.862,358.66 568.093,362.5 562.5,362.5"/>
<polygon points="562.5,362.5 574.316,350 569.862,358.66"/>
<polygon points="522.113,375 525,369.655 525,375"/>
<polygon points="525,369.655 528.865,362.5 537.5,362.5"/>
<polygon points="537.5,362.5 537.5,375 525,375"/>
<polygon points="525,375 525,369.655 537.5,362.5"/>
<polygon points="537.5,362.5 550,362.5 537.5,375"/>
<polygon points="550,362.5 550,375 537.5,375"/>
<polygon points="550,362.5 562.5,362.5 550,375"/>
<polygon points="562.5,362.5 562.5,375 550,375"/>
<polygon points="562.5,374.64 562.5,362.5 568.093,362.5"/>
<polygon points="515.36,387.5 522.113,375 525,375"/>
<polygon points="525,375 525,387.5 515.36,387.5"/>
<polygon points="525,375 537.5,375 525,387.5"/>
<polygon points="537.5,375 537.5,387.5 525,387.5"/>
<polygon points="537.5,375 550,375 537.5,387.5"/>
<polygon points="550,375 550,387.5 537.5,387.5"/>
<polygon points="550,387.5 550,375 562.334,375"/>
<polygon points="562.334,375 556.575,387.5 550,387.5"/>
<polygon points="508.608,400 512.5,392.794 512.5,400"/>
<polygon points="512.5,392.794 515.36,387.5 525,387.5"/>
<polygon points="525,387.5 525,400 512.5,400"/>
<polygon points="512.5,400 512.5,392.794 525,387.5"/>
<polygon points="525,387.5 537.5,387.5 525,400"/>
<polygon points="537.5,387.5 537.5,400 525,400"/>
<polygon points="537.5,387.5 550,387.5 537.5,400"/>
<polygon points="550,387.5 550,400 537.5,400"/>
<polygon points="550,400 550,387.5 556.575,387.5"/>
<polygon points="556.575,387.5 550.816,400 550,400"/>
<polygon points="508.333,400.508 508.608,400 512.5,400"/>
<polygon points="512.5,400 512.5,402.442 508.333,400.508"/>
<polygon points="512.5,402.442 512.5,400 525,400"/>
<polygon points="525,400 525,408.246 512.5,402.442"/>
<polygon points="525,408.246 525,400 537.5,400"/>
<polygon points="537.5,400 537.5,412.5 534.163,412.5"/>
<polygon points="534.163,412.5 525,408.246 537.5,400"/>
<polygon points="537.5,412.5 537.5,400 550,400"/>
<polygon points="550,400 550,401.771 545.057,412.5"/>
<polygon points="545.057,412.5 537.5,412.5 550,400"/>
<polygon points="550,401.771 550,400 550.816,400"/>
<polygon points="537.5,414.049 534.163,412.5 537.5,412.5"/>
<polygon points="537.5,414.049 537.5,412.5 545.057,412.5"/>
<polygon points="545.057,412.5 543.138,416.667 537.5,414.049"/>
</g>
</svg>
