<?xml version="1.0" encoding="UTF-8"?>
<svg xmlns="http://www.w3.org/2000/svg" width="850" height="450" viewBox="0 0 850 450">
<rect width="100%" height="100%" fill="white"/>
<text x="200" y="25" text-anchor="middle" font-size="16" font-weight="bold">Earcut (Sparse)</text>
<text x="650" y="25" text-anchor="middle" font-size="16" font-weight="bold">MeshCut (Dense Grid)</text>
<line x1="425" y1="40" x2="425" y2="430" stroke="#ccc" stroke-width="2"/>
<polygon points="58.3333,333.333 391.667,333.333 391.667,83.3333 58.3333,83.3333 58.3333,333.333 " fill="#4CAF50" fill-opacity="0.3" stroke="#4CAF50" stroke-width="2"/>
<g fill="none" stroke="#FF5722" stroke-width="0.5" opacity="0.7">
<polygon points="58.3333,83.3333 58.3333,333.333 391.667,333.333"/>
<polygon points="391.667,333.333 391.667,83.3333 58.3333,83.3333"/>
</g>
<g stroke="#e0e0e0" stroke-width="0.3" fill="none" opacity="0.5">
<line x1="316.667" y1="500" x2="316.667" y2="-166.667"/>
<line x1="358.333" y1="500" x2="358.333" y2="-166.667"/>
<line x1="400" y1="500" x2="400" y2="-166.667"/>
<line x1="441.667" y1="500" x2="441.667" y2="-166.667"/>
<line x1="483.333" y1="500" x2="483.333" y2="-166.667"/>
<line x1="525" y1="500" x2="525" y2="-166.667"/>
<line x1="566.667" y1="500" x2="566.667" y2="-166.667"/>
<line x1="608.333" y1="500" x2="608.333" y2="-166.667"/>
<line x1="650" y1="500" x2="650" y2="-166.667"/>
<line x1="691.667" y1="500" x2="691.667" y2="-166.667"/>
<line x1="733.333" y1="500" x2="733.333" y2="-166.667"/>
<line x1="775" y1="500" x2="775" y2="-166.667"/>
<line x1="816.667" y1="500" x2="816.667" y2="-166.667"/>
<line x1="858.333" y1="500" x2="858.333" y2="-166.667"/>
<line x1="900" y1="500" x2="900" y2="-166.667"/>
<line x1="941.667" y1="500" x2="941.667" y2="-166.667"/>
<line x1="983.333" y1="500" x2="983.333" y2="-166.667"/>
<line x1="316.667" y1="500" x2="983.333" y2="500"/>
<line x1="316.667" y1="458.333" x2="983.333" y2="458.333"/>
<line x1="316.667" y1="416.667" x2="983.333" y2="416.667"/>
<line x1="316.667" y1="375" x2="983.333" y2="375"/>
<line x1="316.667" y1="333.333" x2="983.333" y2="333.333"/>
<line x1="316.667" y1="291.667" x2="983.333" y2="291.667"/>
<line x1="316.667" y1="250" x2="983.333" y2="250"/>
<line x1="316.667" y1="208.333" x2="983.333" y2="208.333"/>
<line x1="316.667" y1="166.667" x2="983.333" y2="166.667"/>
<line x1="316.667" y1="125" x2="983.333" y2="125"/>
<line x1="316.667" y1="83.3333" x2="983.333" y2="83.3333"/>
<line x1="316.667" y1="41.6667" x2="983.333" y2="41.6667"/>
<line x1="316.667" y1="0" x2="983.333" y2="0"/>
<line x1="316.667" y1="-41.6667" x2="983.333" y2="-41.6667"/>
<line x1="316.667" y1="-83.3333" x2="983.333" y2="-83.3333"/>
<line x1="316.667" y1="-125" x2="983.333" y2="-125"/>
<line x1="316.667" y1="-166.667" x2="983.333" y2="-166.667"/>
</g>
<polygon points="483.333,333.333 816.667,333.333 816.667,83.3333 483.333,83.3333 483.333,333.333 " fill="#4CAF50" fill-opacity="0.3" stroke="#4CAF50" stroke-width="2"/>
<g fill="none" stroke="#2196F3" stroke-width="0.5" opacity="0.7">
<polygon points="483.333,333.333 525,333.333 483.333,291.667"/>
<polygon points="525,333.333 525,291.667 483.333,291.667"/>
<polygon points="525,333.333 566.667,333.333 525,291.667"/>
<polygon points="566.667,333.333 566.667,291.667 525,291.667"/>
<polygon points="566.667,333.333 608.333,333.333 566.667,291.667"/>
<polygon points="608.333,333.333 608.333,291.667 566.667,291.667"/>
<polygon points="608.333,333.333 650,333.333 608.333,291.667"/>
<polygon points="650,333.333 650,291.667 608.333,291.667"/>
<polygon points="650,333.333 691.667,333.333 650,291.667"/>
<polygon points="691.667,333.333 691.667,291.667 650,291.667"/>
<polygon points="691.667,333.333 733.333,333.333 691.667,291.667"/>
<polygon points="733.333,333.333 733.333,291.667 691.667,291.667"/>
<polygon points="733.333,333.333 775,333.333 733.333,291.667"/>
<polygon points="775,333.333 775,291.667 733.333,291.667"/>
<polygon points="816.667,333.333 816.667,291.667 775,291.667"/>
<polygon points="775,291.667 775,333.333 816.667,333.333"/>
<polygon points="483.333,291.667 525,291.667 483.333,250"/>
<polygon points="525,291.667 525,250 483.333,250"/>
<polygon points="525,291.667 566.667,291.667 525,250"/>
<polygon points="566.667,291.667 566.667,250 525,250"/>
<polygon points="566.667,291.667 608.333,291.667 566.667,250"/>
<polygon points="608.333,291.667 608.333,250 566.667,250"/>
<polygon points="608.333,291.667 650,291.667 608.333,250"/>
<polygon points="650,291.667 650,250 608.333,250"/>
<polygon points="650,291.667 691.667,291.667 650,250"/>
<polygon points="691.667,291.667 691.667,250 650,250"/>
<polygon points="691.667,291.667 733.333,291.667 691.667,250"/>
<polygon points="733.333,291.667 733.333,250 691.667,250"/>
<polygon points="733.333,291.667 775,291.667 733.333,250"/>
<polygon points="775,291.667 775,250 733.333,250"/>
<polygon points="816.667,291.667 816.667,250 775,250"/>
<polygon points="775,250 775,291.667 816.667,291.667"/>
<polygon points="483.333,250 525,250 483.333,208.333"/>
<polygon points="525,250 525,208.333 483.333,208.333"/>
<polygon points="525,250 566.667,250 525,208.333"/>
<polygon points="566.667,250 566.667,208.333 525,208.333"/>
<polygon points="566.667,250 608.333,250 566.667,208.333"/>
<polygon points="608.333,250 608.333,208.333 566.667,208.333"/>
<polygon points="608.333,250 650,250 608.333,208.333"/>
<polygon points="650,250 650,208.333 608.333,208.333"/>
<polygon points="650,250 691.667,250 650,208.333"/>
<polygon points="691.667,250 691.667,208.333 650,208.333"/>
<polygon points="691.667,250 733.333,250 691.667,208.333"/>
<polygon points="733.333,250 733.333,208.333 691.667,208.333"/>
<polygon points="733.333,250 775,250 733.333,208.333"/>
<polygon points="775,250 775,208.333 733.333,208.333"/>
<polygon points="816.667,250 816.667,208.333 775,208.333"/>
<polygon points="775,208.333 775,250 816.667,250"/>
<polygon points="483.333,208.333 525,208.333 483.333,166.667"/>
<polygon points="525,208.333 525,166.667 483.333,166.667"/>
<polygon points="525,208.333 566.667,208.333 525,166.667"/>
<polygon points="566.667,208.333 566.667,166.667 525,166.667"/>
<polygon points="566.667,208.333 608.333,208.333 566.667,166.667"/>
<polygon points="608.333,208.333 608.333,166.667 566.667,166.667"/>
<polygon points="608.333,208.333 650,208.333 608.333,166.667"/>
<polygon points="650,208.333 650,166.667 608.333,166.667"/>
<polygon points="650,208.333 691.667,208.333 650,166.667"/>
<polygon points="691.667,208.333 691.667,166.667 650,166.667"/>
<polygon points="691.667,208.333 733.333,208.333 691.667,166.667"/>
<polygon points="733.333,208.333 733.333,166.667 691.667,166.667"/>
<polygon points="733.333,208.333 775,208.333 733.333,166.667"/>
<polygon points="775,208.333 775,166.667 733.333,166.667"/>
<polygon points="816.667,208.333 816.667,166.667 775,166.667"/>
<polygon points="775,166.667 775,208.333 816.667,208.333"/>
<polygon points="483.333,166.667 525,166.667 483.333,125"/>
<polygon points="525,166.667 525,125 483.333,125"/>
<polygon points="525,166.667 566.667,166.667 525,125"/>
<polygon points="566.667,166.667 566.667,125 525,125"/>
<polygon points="566.667,166.667 608.333,166.667 566.667,125"/>
<polygon points="608.333,166.667 608.333,125 566.667,125"/>
<polygon points="608.333,166.667 650,166.667 608.333,125"/>
<polygon points="650,166.667 650,125 608.333,125"/>
<polygon points="650,166.667 691.667,166.667 650,125"/>
<polygon points="691.667,166.667 691.667,125 650,125"/>
<polygon points="691.667,166.667 733.333,166.667 691.667,125"/>
<polygon points="733.333,166.667 733.333,125 691.667,125"/>
<polygon points="733.333,166.667 775,166.667 733.333,125"/>
<polygon points="775,166.667 775,125 733.333,125"/>
<polygon points="816.667,166.667 816.667,125 775,125"/>
<polygon points="775,125 775,166.667 816.667,166.667"/>
<polygon points="483.333,83.3333 483.333,125 525,125"/>
<polygon points="525,125 525,83.3333 483.333,83.3333"/>
<polygon points="566.667,83.3333 525,83.3333 525,125"/>
<polygon points="525,125 566.667,125 566.667,83.3333"/>
<polygon points="608.333,83.3333 566.667,83.3333 566.667,125"/>
<polygon points="566.667,125 608.333,125 608.333,83.3333"/>
<polygon points="650,83.3333 608.333,83.3333 608.333,125"/>
<polygon points="608.333,125 650,125 650,83.3333"/>
<polygon points="691.667,83.3333 650,83.3333 650,125"/>
<polygon points="650,125 691.667,125 691.667,83.3333"/>
<polygon points="733.333,83.3333 691.667,83.3333 691.667,125"/>
<polygon points="691.667,125 733.333,125 733.333,83.3333"/>
<polygon points="775,83.3333 733.333,83.3333 733.333,125"/>
<polygon points="733.333,125 775,125 775,83.3333"/>
<polygon points="816.667,83.3333 775,83.3333 775,125"/>
<polygon points="775,125 816.667,125 816.667,83.3333"/>
</g>
</svg>
