<?xml version="1.0" encoding="UTF-8"?>
<svg xmlns="http://www.w3.org/2000/svg" width="850" height="450" viewBox="0 0 850 450">
<rect width="100%" height="100%" fill="white"/>
<text x="200" y="30" text-anchor="middle" font-size="16" font-weight="bold">Earcut</text>
<text x="625" y="30" text-anchor="middle" font-size="16" font-weight="bold">MeshCut</text>
<line x1="412.5" y1="50" x2="412.5" y2="400" stroke="#ccc" stroke-width="1"/>
<g class="left-grid" stroke="#e0e0e0" stroke-width="0.5" fill="none">
<line x1="50" y1="350" x2="50" y2="50"/>
<line x1="59.375" y1="350" x2="59.375" y2="50"/>
<line x1="68.75" y1="350" x2="68.75" y2="50"/>
<line x1="78.125" y1="350" x2="78.125" y2="50"/>
<line x1="87.5" y1="350" x2="87.5" y2="50"/>
<line x1="96.875" y1="350" x2="96.875" y2="50"/>
<line x1="106.25" y1="350" x2="106.25" y2="50"/>
<line x1="115.625" y1="350" x2="115.625" y2="50"/>
<line x1="125" y1="350" x2="125" y2="50"/>
<line x1="134.375" y1="350" x2="134.375" y2="50"/>
<line x1="143.75" y1="350" x2="143.75" y2="50"/>
<line x1="153.125" y1="350" x2="153.125" y2="50"/>
<line x1="162.5" y1="350" x2="162.5" y2="50"/>
<line x1="171.875" y1="350" x2="171.875" y2="50"/>
<line x1="181.25" y1="350" x2="181.25" y2="50"/>
<line x1="190.625" y1="350" x2="190.625" y2="50"/>
<line x1="200" y1="350" x2="200" y2="50"/>
<line x1="209.375" y1="350" x2="209.375" y2="50"/>
<line x1="218.75" y1="350" x2="218.75" y2="50"/>
<line x1="228.125" y1="350" x2="228.125" y2="50"/>
<line x1="237.5" y1="350" x2="237.5" y2="50"/>
<line x1="246.875" y1="350" x2="246.875" y2="50"/>
<line x1="256.25" y1="350" x2="256.25" y2="50"/>
<line x1="265.625" y1="350" x2="265.625" y2="50"/>
<line x1="275" y1="350" x2="275" y2="50"/>
<line x1="284.375" y1="350" x2="284.375" y2="50"/>
<line x1="293.75" y1="350" x2="293.75" y2="50"/>
<line x1="303.125" y1="350" x2="303.125" y2="50"/>
<line x1="312.5" y1="350" x2="312.5" y2="50"/>
<line x1="321.875" y1="350" x2="321.875" y2="50"/>
<line x1="331.25" y1="350" x2="331.25" y2="50"/>
<line x1="340.625" y1="350" x2="340.625" y2="50"/>
<line x1="350" y1="350" x2="350" y2="50"/>
<line x1="50" y1="350" x2="350" y2="350"/>
<line x1="50" y1="340.625" x2="350" y2="340.625"/>
<line x1="50" y1="331.25" x2="350" y2="331.25"/>
<line x1="50" y1="321.875" x2="350" y2="321.875"/>
<line x1="50" y1="312.5" x2="350" y2="312.5"/>
<line x1="50" y1="303.125" x2="350" y2="303.125"/>
<line x1="50" y1="293.75" x2="350" y2="293.75"/>
<line x1="50" y1="284.375" x2="350" y2="284.375"/>
<line x1="50" y1="275" x2="350" y2="275"/>
<line x1="50" y1="265.625" x2="350" y2="265.625"/>
<line x1="50" y1="256.25" x2="350" y2="256.25"/>
<line x1="50" y1="246.875" x2="350" y2="246.875"/>
<line x1="50" y1="237.5" x2="350" y2="237.5"/>
<line x1="50" y1="228.125" x2="350" y2="228.125"/>
<line x1="50" y1="218.75" x2="350" y2="218.75"/>
<line x1="50" y1="209.375" x2="350" y2="209.375"/>
<line x1="50" y1="200" x2="350" y2="200"/>
<line x1="50" y1="190.625" x2="350" y2="190.625"/>
<line x1="50" y1="181.25" x2="350" y2="181.25"/>
<line x1="50" y1="171.875" x2="350" y2="171.875"/>
<line x1="50" y1="162.5" x2="350" y2="162.5"/>
<line x1="50" y1="153.125" x2="350" y2="153.125"/>
<line x1="50" y1="143.75" x2="350" y2="143.75"/>
<line x1="50" y1="134.375" x2="350" y2="134.375"/>
<line x1="50" y1="125" x2="350" y2="125"/>
<line x1="50" y1="115.625" x2="350" y2="115.625"/>
<line x1="50" y1="106.25" x2="350" y2="106.25"/>
<line x1="50" y1="96.875" x2="350" y2="96.875"/>
<line x1="50" y1="87.5" x2="350" y2="87.5"/>
<line x1="50" y1="78.125" x2="350" y2="78.125"/>
<line x1="50" y1="68.75" x2="350" y2="68.75"/>
<line x1="50" y1="59.375" x2="350" y2="59.375"/>
<line x1="50" y1="50" x2="350" y2="50"/>
</g>
<polygon points="96.875,303.125 284.375,303.125 284.375,115.625 96.875,115.625 96.875,303.125 125,256.25 162.5,256.25 162.5,218.75 125,218.75 125,256.25 218.75,190.625 256.25,190.625 256.25,153.125 218.75,153.125 218.75,190.625 " fill="#4CAF50" fill-opacity="0.3" stroke="#4CAF50" stroke-width="2"/>
<g fill="#FF5722" fill-opacity="0.2" stroke="#FF5722" stroke-width="0.5">
<polygon points="162.5,256.25 162.5,218.75 125,218.75"/>
<polygon points="162.5,256.25 125,218.75 125,256.25"/>
<polygon points="125,256.25 218.75,190.625 218.75,153.125"/>
<polygon points="256.25,190.625 218.75,190.625 125,256.25"/>
<polygon points="284.375,115.625 96.875,115.625 96.875,303.125"/>
<polygon points="96.875,303.125 284.375,303.125 284.375,115.625"/>
</g>
<text x="200" y="370" text-anchor="middle" font-size="12">Triangles: 6, Vertices: 15</text>
<g class="right-grid" stroke="#e0e0e0" stroke-width="0.5" fill="none">
<line x1="475" y1="350" x2="475" y2="50"/>
<line x1="484.375" y1="350" x2="484.375" y2="50"/>
<line x1="493.75" y1="350" x2="493.75" y2="50"/>
<line x1="503.125" y1="350" x2="503.125" y2="50"/>
<line x1="512.5" y1="350" x2="512.5" y2="50"/>
<line x1="521.875" y1="350" x2="521.875" y2="50"/>
<line x1="531.25" y1="350" x2="531.25" y2="50"/>
<line x1="540.625" y1="350" x2="540.625" y2="50"/>
<line x1="550" y1="350" x2="550" y2="50"/>
<line x1="559.375" y1="350" x2="559.375" y2="50"/>
<line x1="568.75" y1="350" x2="568.75" y2="50"/>
<line x1="578.125" y1="350" x2="578.125" y2="50"/>
<line x1="587.5" y1="350" x2="587.5" y2="50"/>
<line x1="596.875" y1="350" x2="596.875" y2="50"/>
<line x1="606.25" y1="350" x2="606.25" y2="50"/>
<line x1="615.625" y1="350" x2="615.625" y2="50"/>
<line x1="625" y1="350" x2="625" y2="50"/>
<line x1="634.375" y1="350" x2="634.375" y2="50"/>
<line x1="643.75" y1="350" x2="643.75" y2="50"/>
<line x1="653.125" y1="350" x2="653.125" y2="50"/>
<line x1="662.5" y1="350" x2="662.5" y2="50"/>
<line x1="671.875" y1="350" x2="671.875" y2="50"/>
<line x1="681.25" y1="350" x2="681.25" y2="50"/>
<line x1="690.625" y1="350" x2="690.625" y2="50"/>
<line x1="700" y1="350" x2="700" y2="50"/>
<line x1="709.375" y1="350" x2="709.375" y2="50"/>
<line x1="718.75" y1="350" x2="718.75" y2="50"/>
<line x1="728.125" y1="350" x2="728.125" y2="50"/>
<line x1="737.5" y1="350" x2="737.5" y2="50"/>
<line x1="746.875" y1="350" x2="746.875" y2="50"/>
<line x1="756.25" y1="350" x2="756.25" y2="50"/>
<line x1="765.625" y1="350" x2="765.625" y2="50"/>
<line x1="775" y1="350" x2="775" y2="50"/>
<line x1="475" y1="350" x2="775" y2="350"/>
<line x1="475" y1="340.625" x2="775" y2="340.625"/>
<line x1="475" y1="331.25" x2="775" y2="331.25"/>
<line x1="475" y1="321.875" x2="775" y2="321.875"/>
<line x1="475" y1="312.5" x2="775" y2="312.5"/>
<line x1="475" y1="303.125" x2="775" y2="303.125"/>
<line x1="475" y1="293.75" x2="775" y2="293.75"/>
<line x1="475" y1="284.375" x2="775" y2="284.375"/>
<line x1="475" y1="275" x2="775" y2="275"/>
<line x1="475" y1="265.625" x2="775" y2="265.625"/>
<line x1="475" y1="256.25" x2="775" y2="256.25"/>
<line x1="475" y1="246.875" x2="775" y2="246.875"/>
<line x1="475" y1="237.5" x2="775" y2="237.5"/>
<line x1="475" y1="228.125" x2="775" y2="228.125"/>
<line x1="475" y1="218.75" x2="775" y2="218.75"/>
<line x1="475" y1="209.375" x2="775" y2="209.375"/>
<line x1="475" y1="200" x2="775" y2="200"/>
<line x1="475" y1="190.625" x2="775" y2="190.625"/>
<line x1="475" y1="181.25" x2="775" y2="181.25"/>
<line x1="475" y1="171.875" x2="775" y2="171.875"/>
<line x1="475" y1="162.5" x2="775" y2="162.5"/>
<line x1="475" y1="153.125" x2="775" y2="153.125"/>
<line x1="475" y1="143.75" x2="775" y2="143.75"/>
<line x1="475" y1="134.375" x2="775" y2="134.375"/>
<line x1="475" y1="125" x2="775" y2="125"/>
<line x1="475" y1="115.625" x2="775" y2="115.625"/>
<line x1="475" y1="106.25" x2="775" y2="106.25"/>
<line x1="475" y1="96.875" x2="775" y2="96.875"/>
<line x1="475" y1="87.5" x2="775" y2="87.5"/>
<line x1="475" y1="78.125" x2="775" y2="78.125"/>
<line x1="475" y1="68.75" x2="775" y2="68.75"/>
<line x1="475" y1="59.375" x2="775" y2="59.375"/>
<line x1="475" y1="50" x2="775" y2="50"/>
</g>
<polygon points="521.875,303.125 709.375,303.125 709.375,115.625 521.875,115.625 521.875,303.125 550,256.25 587.5,256.25 587.5,218.75 550,218.75 550,256.25 643.75,190.625 681.25,190.625 681.25,153.125 643.75,153.125 643.75,190.625 " fill="#4CAF50" fill-opacity="0.3" stroke="#4CAF50" stroke-width="2"/>
<g fill="#2196F3" fill-opacity="0.2" stroke="#2196F3" stroke-width="0.5">
<polygon points="531.25,294.471 521.875,303.125 531.25,303.125"/>
<polygon points="521.875,293.75 521.875,303.125 527.5,293.75"/>
<polygon points="540.625,303.125 540.625,293.75 532.031,293.75"/>
<polygon points="532.031,293.75 531.25,294.471 531.25,303.125"/>
<polygon points="531.25,303.125 540.625,303.125 532.031,293.75"/>
<polygon points="540.625,303.125 550,303.125 540.625,293.75"/>
<polygon points="550,303.125 550,293.75 540.625,293.75"/>
<polygon points="550,303.125 559.375,303.125 550,293.75"/>
<polygon points="559.375,303.125 559.375,293.75 550,293.75"/>
<polygon points="559.375,303.125 568.75,303.125 559.375,293.75"/>
<polygon points="568.75,303.125 568.75,293.75 559.375,293.75"/>
<polygon points="568.75,303.125 578.125,303.125 568.75,293.75"/>
<polygon points="578.125,303.125 578.125,293.75 568.75,293.75"/>
<polygon points="578.125,303.125 587.5,303.125 578.125,293.75"/>
<polygon points="587.5,303.125 587.5,293.75 578.125,293.75"/>
<polygon points="587.5,303.125 596.875,303.125 587.5,293.75"/>
<polygon points="596.875,303.125 596.875,293.75 587.5,293.75"/>
<polygon points="596.875,303.125 606.25,303.125 596.875,293.75"/>
<polygon points="606.25,303.125 606.25,293.75 596.875,293.75"/>
<polygon points="606.25,303.125 615.625,303.125 606.25,293.75"/>
<polygon points="615.625,303.125 615.625,293.75 606.25,293.75"/>
<polygon points="615.625,303.125 625,303.125 615.625,293.75"/>
<polygon points="625,303.125 625,293.75 615.625,293.75"/>
<polygon points="625,303.125 634.375,303.125 625,293.75"/>
<polygon points="634.375,303.125 634.375,293.75 625,293.75"/>
<polygon points="634.375,303.125 643.75,303.125 634.375,293.75"/>
<polygon points="643.75,303.125 643.75,293.75 634.375,293.75"/>
<polygon points="643.75,303.125 653.125,303.125 643.75,293.75"/>
<polygon points="653.125,303.125 653.125,293.75 643.75,293.75"/>
<polygon points="653.125,303.125 662.5,303.125 653.125,293.75"/>
<polygon points="662.5,303.125 662.5,293.75 653.125,293.75"/>
<polygon points="662.5,303.125 671.875,303.125 662.5,293.75"/>
<polygon points="671.875,303.125 671.875,293.75 662.5,293.75"/>
<polygon points="671.875,303.125 681.25,303.125 671.875,293.75"/>
<polygon points="681.25,303.125 681.25,293.75 671.875,293.75"/>
<polygon points="681.25,303.125 690.625,303.125 681.25,293.75"/>
<polygon points="690.625,303.125 690.625,293.75 681.25,293.75"/>
<polygon points="690.625,303.125 700,303.125 690.625,293.75"/>
<polygon points="700,303.125 700,293.75 690.625,293.75"/>
<polygon points="700,303.125 709.375,303.125 700,293.75"/>
<polygon points="709.375,303.125 709.375,293.75 700,293.75"/>
<polygon points="531.25,284.375 521.875,284.375 521.875,293.75"/>
<polygon points="521.875,293.75 527.5,293.75 531.25,287.5"/>
<polygon points="531.25,284.375 521.875,293.75 531.25,287.5"/>
<polygon points="540.625,285.817 532.031,293.75 540.625,293.75"/>
<polygon points="531.25,284.375 531.25,287.5 533.125,284.375"/>
<polygon points="550,293.75 550,284.375 542.187,284.375"/>
<polygon points="542.187,284.375 540.625,285.817 540.625,293.75"/>
<polygon points="540.625,293.75 550,293.75 542.187,284.375"/>
<polygon points="550,293.75 559.375,293.75 550,284.375"/>
<polygon points="559.375,293.75 559.375,284.375 550,284.375"/>
<polygon points="559.375,293.75 568.75,293.75 559.375,284.375"/>
<polygon points="568.75,293.75 568.75,284.375 559.375,284.375"/>
<polygon points="568.75,293.75 578.125,293.75 568.75,284.375"/>
<polygon points="578.125,293.75 578.125,284.375 568.75,284.375"/>
<polygon points="578.125,293.75 587.5,293.75 578.125,284.375"/>
<polygon points="587.5,293.75 587.5,284.375 578.125,284.375"/>
<polygon points="587.5,293.75 596.875,293.75 587.5,284.375"/>
<polygon points="596.875,293.75 596.875,284.375 587.5,284.375"/>
<polygon points="596.875,293.75 606.25,293.75 596.875,284.375"/>
<polygon points="606.25,293.75 606.25,284.375 596.875,284.375"/>
<polygon points="606.25,293.75 615.625,293.75 606.25,284.375"/>
<polygon points="615.625,293.75 615.625,284.375 606.25,284.375"/>
<polygon points="615.625,293.75 625,293.75 615.625,284.375"/>
<polygon points="625,293.75 625,284.375 615.625,284.375"/>
<polygon points="625,293.75 634.375,293.75 625,284.375"/>
<polygon points="634.375,293.75 634.375,284.375 625,284.375"/>
<polygon points="634.375,293.75 643.75,293.75 634.375,284.375"/>
<polygon points="643.75,293.75 643.75,284.375 634.375,284.375"/>
<polygon points="643.75,293.75 653.125,293.75 643.75,284.375"/>
<polygon points="653.125,293.75 653.125,284.375 643.75,284.375"/>
<polygon points="653.125,293.75 662.5,293.75 653.125,284.375"/>
<polygon points="662.5,293.75 662.5,284.375 653.125,284.375"/>
<polygon points="662.5,293.75 671.875,293.75 662.5,284.375"/>
<polygon points="671.875,293.75 671.875,284.375 662.5,284.375"/>
<polygon points="671.875,293.75 681.25,293.75 671.875,284.375"/>
<polygon points="681.25,293.75 681.25,284.375 671.875,284.375"/>
<polygon points="681.25,293.75 690.625,293.75 681.25,284.375"/>
<polygon points="690.625,293.75 690.625,284.375 681.25,284.375"/>
<polygon points="690.625,293.75 700,293.75 690.625,284.375"/>
<polygon points="700,293.75 700,284.375 690.625,284.375"/>
<polygon points="700,293.75 709.375,293.75 700,284.375"/>
<polygon points="709.375,293.75 709.375,284.375 700,284.375"/>
<polygon points="521.875,284.375 531.25,284.375 521.875,275"/>
<polygon points="531.25,284.375 531.25,275 521.875,275"/>
<polygon points="531.25,275 531.25,284.375 533.125,284.375"/>
<polygon points="531.25,275 533.125,284.375 538.75,275"/>
<polygon points="550,277.163 542.187,284.375 550,284.375"/>
<polygon points="559.375,284.375 559.375,275 552.344,275"/>
<polygon points="552.344,275 550,277.163 550,284.375"/>
<polygon points="550,284.375 559.375,284.375 552.344,275"/>
<polygon points="559.375,284.375 568.75,284.375 559.375,275"/>
<polygon points="568.75,284.375 568.75,275 559.375,275"/>
<polygon points="568.75,284.375 578.125,284.375 568.75,275"/>
<polygon points="578.125,284.375 578.125,275 568.75,275"/>
<polygon points="578.125,284.375 587.5,284.375 578.125,275"/>
<polygon points="587.5,284.375 587.5,275 578.125,275"/>
<polygon points="587.5,284.375 596.875,284.375 587.5,275"/>
<polygon points="596.875,284.375 596.875,275 587.5,275"/>
<polygon points="596.875,284.375 606.25,284.375 596.875,275"/>
<polygon points="606.25,284.375 606.25,275 596.875,275"/>
<polygon points="606.25,284.375 615.625,284.375 606.25,275"/>
<polygon points="615.625,284.375 615.625,275 606.25,275"/>
<polygon points="615.625,284.375 625,284.375 615.625,275"/>
<polygon points="625,284.375 625,275 615.625,275"/>
<polygon points="625,284.375 634.375,284.375 625,275"/>
<polygon points="634.375,284.375 634.375,275 625,275"/>
<polygon points="634.375,284.375 643.75,284.375 634.375,275"/>
<polygon points="643.75,284.375 643.75,275 634.375,275"/>
<polygon points="643.75,284.375 653.125,284.375 643.75,275"/>
<polygon points="653.125,284.375 653.125,275 643.75,275"/>
<polygon points="653.125,284.375 662.5,284.375 653.125,275"/>
<polygon points="662.5,284.375 662.5,275 653.125,275"/>
<polygon points="662.5,284.375 671.875,284.375 662.5,275"/>
<polygon points="671.875,284.375 671.875,275 662.5,275"/>
<polygon points="671.875,284.375 681.25,284.375 671.875,275"/>
<polygon points="681.25,284.375 681.25,275 671.875,275"/>
<polygon points="681.25,284.375 690.625,284.375 681.25,275"/>
<polygon points="690.625,284.375 690.625,275 681.25,275"/>
<polygon points="690.625,284.375 700,284.375 690.625,275"/>
<polygon points="700,284.375 700,275 690.625,275"/>
<polygon points="700,284.375 709.375,284.375 700,275"/>
<polygon points="709.375,284.375 709.375,275 700,275"/>
<polygon points="521.875,275 531.25,275 521.875,265.625"/>
<polygon points="531.25,275 531.25,265.625 521.875,265.625"/>
<polygon points="540.625,265.625 531.25,265.625 531.25,275"/>
<polygon points="531.25,275 538.75,275 540.625,271.875"/>
<polygon points="540.625,265.625 531.25,275 540.625,271.875"/>
<polygon points="540.625,265.625 540.625,271.875 544.375,265.625"/>
<polygon points="559.375,268.51 552.344,275 559.375,275"/>
<polygon points="568.75,275 568.75,265.625 562.5,265.625"/>
<polygon points="562.5,265.625 559.375,268.51 559.375,275"/>
<polygon points="559.375,275 568.75,275 562.5,265.625"/>
<polygon points="568.75,275 578.125,275 568.75,265.625"/>
<polygon points="578.125,275 578.125,265.625 568.75,265.625"/>
<polygon points="578.125,275 587.5,275 578.125,265.625"/>
<polygon points="587.5,275 587.5,265.625 578.125,265.625"/>
<polygon points="587.5,275 596.875,275 587.5,265.625"/>
<polygon points="596.875,275 596.875,265.625 587.5,265.625"/>
<polygon points="596.875,275 606.25,275 596.875,265.625"/>
<polygon points="606.25,275 606.25,265.625 596.875,265.625"/>
<polygon points="606.25,275 615.625,275 606.25,265.625"/>
<polygon points="615.625,275 615.625,265.625 606.25,265.625"/>
<polygon points="615.625,275 625,275 615.625,265.625"/>
<polygon points="625,275 625,265.625 615.625,265.625"/>
<polygon points="625,275 634.375,275 625,265.625"/>
<polygon points="634.375,275 634.375,265.625 625,265.625"/>
<polygon points="634.375,275 643.75,275 634.375,265.625"/>
<polygon points="643.75,275 643.75,265.625 634.375,265.625"/>
<polygon points="643.75,275 653.125,275 643.75,265.625"/>
<polygon points="653.125,275 653.125,265.625 643.75,265.625"/>
<polygon points="653.125,275 662.5,275 653.125,265.625"/>
<polygon points="662.5,275 662.5,265.625 653.125,265.625"/>
<polygon points="662.5,275 671.875,275 662.5,265.625"/>
<polygon points="671.875,275 671.875,265.625 662.5,265.625"/>
<polygon points="671.875,275 681.25,275 671.875,265.625"/>
<polygon points="681.25,275 681.25,265.625 671.875,265.625"/>
<polygon points="681.25,275 690.625,275 681.25,265.625"/>
<polygon points="690.625,275 690.625,265.625 681.25,265.625"/>
<polygon points="690.625,275 700,275 690.625,265.625"/>
<polygon points="700,275 700,265.625 690.625,265.625"/>
<polygon points="700,275 709.375,275 700,265.625"/>
<polygon points="709.375,275 709.375,265.625 700,265.625"/>
<polygon points="521.875,265.625 531.25,265.625 521.875,256.25"/>
<polygon points="531.25,265.625 531.25,256.25 521.875,256.25"/>
<polygon points="531.25,265.625 540.625,265.625 531.25,256.25"/>
<polygon points="540.625,265.625 540.625,256.25 531.25,256.25"/>
<polygon points="540.625,256.25 540.625,265.625 544.375,265.625"/>
<polygon points="540.625,256.25 544.375,265.625 550,256.25"/>
<polygon points="568.75,259.856 562.5,265.625 568.75,265.625"/>
<polygon points="572.656,256.25 568.75,259.856 568.75,265.625"/>
<polygon points="572.656,256.25 568.75,265.625 578.125,265.625"/>
<polygon points="572.656,256.25 578.125,265.625 578.125,256.25"/>
<polygon points="587.5,265.625 587.5,256.25 578.125,256.25"/>
<polygon points="578.125,256.25 578.125,265.625 587.5,265.625"/>
<polygon points="587.5,265.625 596.875,265.625 596.875,256.25"/>
<polygon points="587.5,265.625 596.875,256.25 587.5,256.25"/>
<polygon points="596.875,265.625 606.25,265.625 596.875,256.25"/>
<polygon points="606.25,265.625 606.25,256.25 596.875,256.25"/>
<polygon points="606.25,265.625 615.625,265.625 606.25,256.25"/>
<polygon points="615.625,265.625 615.625,256.25 606.25,256.25"/>
<polygon points="615.625,265.625 625,265.625 615.625,256.25"/>
<polygon points="625,265.625 625,256.25 615.625,256.25"/>
<polygon points="625,265.625 634.375,265.625 625,256.25"/>
<polygon points="634.375,265.625 634.375,256.25 625,256.25"/>
<polygon points="634.375,265.625 643.75,265.625 634.375,256.25"/>
<polygon points="643.75,265.625 643.75,256.25 634.375,256.25"/>
<polygon points="643.75,265.625 653.125,265.625 643.75,256.25"/>
<polygon points="653.125,265.625 653.125,256.25 643.75,256.25"/>
<polygon points="653.125,265.625 662.5,265.625 653.125,256.25"/>
<polygon points="662.5,265.625 662.5,256.25 653.125,256.25"/>
<polygon points="662.5,265.625 671.875,265.625 662.5,256.25"/>
<polygon points="671.875,265.625 671.875,256.25 662.5,256.25"/>
<polygon points="671.875,265.625 681.25,265.625 671.875,256.25"/>
<polygon points="681.25,265.625 681.25,256.25 671.875,256.25"/>
<polygon points="681.25,265.625 690.625,265.625 681.25,256.25"/>
<polygon points="690.625,265.625 690.625,256.25 681.25,256.25"/>
<polygon points="690.625,265.625 700,265.625 690.625,256.25"/>
<polygon points="700,265.625 700,256.25 690.625,256.25"/>
<polygon points="700,265.625 709.375,265.625 700,256.25"/>
<polygon points="709.375,265.625 709.375,256.25 700,256.25"/>
<polygon points="521.875,256.25 531.25,256.25 521.875,246.875"/>
<polygon points="531.25,256.25 531.25,246.875 521.875,246.875"/>
<polygon points="531.25,256.25 540.625,256.25 531.25,246.875"/>
<polygon points="540.625,256.25 540.625,246.875 531.25,246.875"/>
<polygon points="540.625,256.25 550,256.25 540.625,246.875"/>
<polygon points="550,256.25 550,246.875 540.625,246.875"/>
<polygon points="559.375,246.875 550,246.875 550,256.25"/>
<polygon points="550,256.25 559.375,256.25 559.375,246.875"/>
<polygon points="559.375,249.688 559.375,246.875 550,256.25"/>
<polygon points="550,256.25 559.375,246.875 550,246.875"/>
<polygon points="559.375,246.875 559.375,249.688 563.393,246.875"/>
<polygon points="559.375,256.25 568.75,256.25 568.75,246.875"/>
<polygon points="568.75,246.875 559.375,246.875 559.375,256.25"/>
<polygon points="578.125,251.202 572.656,256.25 578.125,256.25"/>
<polygon points="568.75,246.875 568.75,256.25 578.125,256.25"/>
<polygon points="578.125,256.25 578.125,246.875 568.75,246.875"/>
<polygon points="587.5,256.25 587.5,246.875 582.812,246.875"/>
<polygon points="582.812,246.875 578.125,251.202 578.125,256.25"/>
<polygon points="578.125,256.25 587.5,256.25 587.5,246.875"/>
<polygon points="587.5,246.875 578.125,246.875 578.125,256.25"/>
<polygon points="578.125,256.25 587.5,256.25 582.812,246.875"/>
<polygon points="596.875,246.875 587.5,246.875 587.5,256.25"/>
<polygon points="587.5,256.25 596.875,256.25 596.875,246.875"/>
<polygon points="596.875,256.25 606.25,256.25 596.875,246.875"/>
<polygon points="606.25,256.25 606.25,246.875 596.875,246.875"/>
<polygon points="606.25,256.25 615.625,256.25 606.25,246.875"/>
<polygon points="615.625,256.25 615.625,246.875 606.25,246.875"/>
<polygon points="615.625,256.25 625,256.25 615.625,246.875"/>
<polygon points="625,256.25 625,246.875 615.625,246.875"/>
<polygon points="625,256.25 634.375,256.25 625,246.875"/>
<polygon points="634.375,256.25 634.375,246.875 625,246.875"/>
<polygon points="634.375,256.25 643.75,256.25 634.375,246.875"/>
<polygon points="643.75,256.25 643.75,246.875 634.375,246.875"/>
<polygon points="643.75,256.25 653.125,256.25 643.75,246.875"/>
<polygon points="653.125,256.25 653.125,246.875 643.75,246.875"/>
<polygon points="653.125,256.25 662.5,256.25 653.125,246.875"/>
<polygon points="662.5,256.25 662.5,246.875 653.125,246.875"/>
<polygon points="662.5,256.25 671.875,256.25 662.5,246.875"/>
<polygon points="671.875,256.25 671.875,246.875 662.5,246.875"/>
<polygon points="671.875,256.25 681.25,256.25 671.875,246.875"/>
<polygon points="681.25,256.25 681.25,246.875 671.875,246.875"/>
<polygon points="681.25,256.25 690.625,256.25 681.25,246.875"/>
<polygon points="690.625,256.25 690.625,246.875 681.25,246.875"/>
<polygon points="690.625,256.25 700,256.25 690.625,246.875"/>
<polygon points="700,256.25 700,246.875 690.625,246.875"/>
<polygon points="700,256.25 709.375,256.25 700,246.875"/>
<polygon points="709.375,256.25 709.375,246.875 700,246.875"/>
<polygon points="521.875,246.875 531.25,246.875 521.875,237.5"/>
<polygon points="531.25,246.875 531.25,237.5 521.875,237.5"/>
<polygon points="531.25,246.875 540.625,246.875 531.25,237.5"/>
<polygon points="540.625,246.875 540.625,237.5 531.25,237.5"/>
<polygon points="540.625,246.875 550,246.875 540.625,237.5"/>
<polygon points="550,246.875 550,237.5 540.625,237.5"/>
<polygon points="550,237.5 550,246.875 559.375,246.875"/>
<polygon points="559.375,246.875 559.375,237.5 550,237.5"/>
<polygon points="559.375,237.5 550,237.5 559.375,246.875"/>
<polygon points="559.375,246.875 550,237.5 550,246.875"/>
<polygon points="568.75,237.5 559.375,237.5 559.375,246.875"/>
<polygon points="568.75,237.5 559.375,237.5 559.375,246.875"/>
<polygon points="559.375,246.875 563.393,246.875 568.75,243.125"/>
<polygon points="568.75,237.5 559.375,246.875 568.75,243.125"/>
<polygon points="568.75,237.5 559.375,246.875 568.75,246.875"/>
<polygon points="568.75,237.5 568.75,243.125 576.786,237.5"/>
<polygon points="568.75,246.875 578.125,246.875 578.125,237.5"/>
<polygon points="578.125,237.5 568.75,237.5 568.75,246.875"/>
<polygon points="587.5,242.548 582.812,246.875 587.5,246.875"/>
<polygon points="578.125,237.5 578.125,246.875 587.5,246.875"/>
<polygon points="587.5,246.875 587.5,237.5 578.125,237.5"/>
<polygon points="596.875,246.875 596.875,237.5 592.969,237.5"/>
<polygon points="592.969,237.5 587.5,242.548 587.5,246.875"/>
<polygon points="587.5,246.875 596.875,246.875 592.969,237.5"/>
<polygon points="596.875,246.875 606.25,246.875 596.875,237.5"/>
<polygon points="606.25,246.875 606.25,237.5 596.875,237.5"/>
<polygon points="606.25,246.875 615.625,246.875 606.25,237.5"/>
<polygon points="615.625,246.875 615.625,237.5 606.25,237.5"/>
<polygon points="615.625,246.875 625,246.875 615.625,237.5"/>
<polygon points="625,246.875 625,237.5 615.625,237.5"/>
<polygon points="625,246.875 634.375,246.875 625,237.5"/>
<polygon points="634.375,246.875 634.375,237.5 625,237.5"/>
<polygon points="634.375,246.875 643.75,246.875 634.375,237.5"/>
<polygon points="643.75,246.875 643.75,237.5 634.375,237.5"/>
<polygon points="643.75,246.875 653.125,246.875 643.75,237.5"/>
<polygon points="653.125,246.875 653.125,237.5 643.75,237.5"/>
<polygon points="653.125,246.875 662.5,246.875 653.125,237.5"/>
<polygon points="662.5,246.875 662.5,237.5 653.125,237.5"/>
<polygon points="662.5,246.875 671.875,246.875 662.5,237.5"/>
<polygon points="671.875,246.875 671.875,237.5 662.5,237.5"/>
<polygon points="671.875,246.875 681.25,246.875 671.875,237.5"/>
<polygon points="681.25,246.875 681.25,237.5 671.875,237.5"/>
<polygon points="681.25,246.875 690.625,246.875 681.25,237.5"/>
<polygon points="690.625,246.875 690.625,237.5 681.25,237.5"/>
<polygon points="690.625,246.875 700,246.875 690.625,237.5"/>
<polygon points="700,246.875 700,237.5 690.625,237.5"/>
<polygon points="700,246.875 709.375,246.875 700,237.5"/>
<polygon points="709.375,246.875 709.375,237.5 700,237.5"/>
<polygon points="521.875,237.5 531.25,237.5 521.875,228.125"/>
<polygon points="531.25,237.5 531.25,228.125 521.875,228.125"/>
<polygon points="531.25,237.5 540.625,237.5 531.25,228.125"/>
<polygon points="540.625,237.5 540.625,228.125 531.25,228.125"/>
<polygon points="540.625,237.5 550,237.5 540.625,228.125"/>
<polygon points="550,237.5 550,228.125 540.625,228.125"/>
<polygon points="550,228.125 550,237.5 559.375,237.5"/>
<polygon points="559.375,237.5 559.375,228.125 550,228.125"/>
<polygon points="559.375,228.125 550,228.125 559.375,237.5"/>
<polygon points="559.375,237.5 550,228.125 550,237.5"/>
<polygon points="578.125,228.125 568.75,228.125 568.75,237.5"/>
<polygon points="578.125,228.125 568.75,228.125 568.75,237.5"/>
<polygon points="568.75,237.5 576.786,237.5 578.125,236.563"/>
<polygon points="578.125,228.125 568.75,237.5 578.125,236.563"/>
<polygon points="578.125,228.125 568.75,237.5 578.125,237.5"/>
<polygon points="587.5,228.125 578.125,228.125 578.125,237.5"/>
<polygon points="587.5,228.125 578.125,228.125 578.125,236.563"/>
<polygon points="587.5,228.125 578.125,236.563 587.5,230"/>
<polygon points="587.5,228.125 578.125,237.5 587.5,237.5"/>
<polygon points="596.875,233.894 592.969,237.5 596.875,237.5"/>
<polygon points="587.5,230 590.179,228.125 587.5,228.125"/>
<polygon points="606.25,237.5 606.25,228.125 603.125,228.125"/>
<polygon points="603.125,228.125 596.875,233.894 596.875,237.5"/>
<polygon points="596.875,237.5 606.25,237.5 603.125,228.125"/>
<polygon points="606.25,237.5 615.625,237.5 606.25,228.125"/>
<polygon points="615.625,237.5 615.625,228.125 606.25,228.125"/>
<polygon points="615.625,237.5 625,237.5 615.625,228.125"/>
<polygon points="625,237.5 625,228.125 615.625,228.125"/>
<polygon points="625,237.5 634.375,237.5 625,228.125"/>
<polygon points="634.375,237.5 634.375,228.125 625,228.125"/>
<polygon points="634.375,237.5 643.75,237.5 634.375,228.125"/>
<polygon points="643.75,237.5 643.75,228.125 634.375,228.125"/>
<polygon points="643.75,237.5 653.125,237.5 643.75,228.125"/>
<polygon points="653.125,237.5 653.125,228.125 643.75,228.125"/>
<polygon points="653.125,237.5 662.5,237.5 653.125,228.125"/>
<polygon points="662.5,237.5 662.5,228.125 653.125,228.125"/>
<polygon points="662.5,237.5 671.875,237.5 662.5,228.125"/>
<polygon points="671.875,237.5 671.875,228.125 662.5,228.125"/>
<polygon points="671.875,237.5 681.25,237.5 671.875,228.125"/>
<polygon points="681.25,237.5 681.25,228.125 671.875,228.125"/>
<polygon points="681.25,237.5 690.625,237.5 681.25,228.125"/>
<polygon points="690.625,237.5 690.625,228.125 681.25,228.125"/>
<polygon points="690.625,237.5 700,237.5 690.625,228.125"/>
<polygon points="700,237.5 700,228.125 690.625,228.125"/>
<polygon points="700,237.5 709.375,237.5 700,228.125"/>
<polygon points="709.375,237.5 709.375,228.125 700,228.125"/>
<polygon points="521.875,228.125 531.25,228.125 521.875,218.75"/>
<polygon points="531.25,228.125 531.25,218.75 521.875,218.75"/>
<polygon points="531.25,228.125 540.625,228.125 531.25,218.75"/>
<polygon points="540.625,228.125 540.625,218.75 531.25,218.75"/>
<polygon points="540.625,228.125 550,228.125 540.625,218.75"/>
<polygon points="550,228.125 550,218.75 540.625,218.75"/>
<polygon points="550,218.75 550,228.125 559.375,228.125"/>
<polygon points="559.375,228.125 559.375,218.75 550,218.75"/>
<polygon points="559.375,218.75 550,218.75 559.375,228.125"/>
<polygon points="559.375,228.125 550,218.75 550,228.125"/>
<polygon points="559.375,218.75 559.375,228.125 568.75,228.125"/>
<polygon points="568.75,228.125 568.75,218.75 559.375,218.75"/>
<polygon points="568.75,218.75 559.375,218.75 568.75,228.125"/>
<polygon points="568.75,228.125 559.375,218.75 559.375,228.125"/>
<polygon points="568.75,218.75 568.75,228.125 578.125,228.125"/>
<polygon points="578.125,228.125 578.125,218.75 568.75,218.75"/>
<polygon points="578.125,218.75 568.75,218.75 578.125,228.125"/>
<polygon points="578.125,228.125 568.75,218.75 568.75,228.125"/>
<polygon points="578.125,218.75 578.125,228.125 587.5,228.125"/>
<polygon points="587.5,228.125 587.5,218.75 578.125,218.75"/>
<polygon points="587.5,218.75 578.125,218.75 587.5,228.125"/>
<polygon points="587.5,228.125 578.125,218.75 578.125,228.125"/>
<polygon points="596.875,223.438 596.875,218.75 587.5,218.75"/>
<polygon points="587.5,218.75 587.5,228.125 590.179,228.125"/>
<polygon points="590.179,228.125 596.875,223.438 587.5,218.75"/>
<polygon points="606.25,225.24 603.125,228.125 606.25,228.125"/>
<polygon points="596.875,218.75 596.875,223.438 603.571,218.75"/>
<polygon points="615.625,228.125 615.625,218.75 613.281,218.75"/>
<polygon points="613.281,218.75 606.25,225.24 606.25,228.125"/>
<polygon points="606.25,228.125 615.625,228.125 613.281,218.75"/>
<polygon points="615.625,228.125 625,228.125 615.625,218.75"/>
<polygon points="625,228.125 625,218.75 615.625,218.75"/>
<polygon points="625,228.125 634.375,228.125 625,218.75"/>
<polygon points="634.375,228.125 634.375,218.75 625,218.75"/>
<polygon points="634.375,228.125 643.75,228.125 634.375,218.75"/>
<polygon points="643.75,228.125 643.75,218.75 634.375,218.75"/>
<polygon points="643.75,228.125 653.125,228.125 643.75,218.75"/>
<polygon points="653.125,228.125 653.125,218.75 643.75,218.75"/>
<polygon points="653.125,228.125 662.5,228.125 653.125,218.75"/>
<polygon points="662.5,228.125 662.5,218.75 653.125,218.75"/>
<polygon points="662.5,228.125 671.875,228.125 662.5,218.75"/>
<polygon points="671.875,228.125 671.875,218.75 662.5,218.75"/>
<polygon points="671.875,228.125 681.25,228.125 671.875,218.75"/>
<polygon points="681.25,228.125 681.25,218.75 671.875,218.75"/>
<polygon points="681.25,228.125 690.625,228.125 681.25,218.75"/>
<polygon points="690.625,228.125 690.625,218.75 681.25,218.75"/>
<polygon points="690.625,228.125 700,228.125 690.625,218.75"/>
<polygon points="700,228.125 700,218.75 690.625,218.75"/>
<polygon points="700,228.125 709.375,228.125 700,218.75"/>
<polygon points="709.375,228.125 709.375,218.75 700,218.75"/>
<polygon points="521.875,218.75 531.25,218.75 521.875,209.375"/>
<polygon points="531.25,218.75 531.25,209.375 521.875,209.375"/>
<polygon points="531.25,218.75 540.625,218.75 531.25,209.375"/>
<polygon points="540.625,218.75 540.625,209.375 531.25,209.375"/>
<polygon points="540.625,218.75 550,218.75 540.625,209.375"/>
<polygon points="550,218.75 550,209.375 540.625,209.375"/>
<polygon points="550,218.75 559.375,218.75 550,209.375"/>
<polygon points="559.375,218.75 559.375,209.375 550,209.375"/>
<polygon points="559.375,218.75 568.75,218.75 559.375,209.375"/>
<polygon points="568.75,218.75 568.75,209.375 559.375,209.375"/>
<polygon points="568.75,218.75 578.125,218.75 568.75,209.375"/>
<polygon points="578.125,218.75 578.125,209.375 568.75,209.375"/>
<polygon points="578.125,218.75 587.5,218.75 578.125,209.375"/>
<polygon points="587.5,218.75 587.5,209.375 578.125,209.375"/>
<polygon points="587.5,218.75 596.875,218.75 587.5,209.375"/>
<polygon points="596.875,218.75 596.875,209.375 587.5,209.375"/>
<polygon points="606.25,209.375 596.875,209.375 596.875,218.75"/>
<polygon points="596.875,218.75 603.571,218.75 606.25,216.875"/>
<polygon points="606.25,209.375 596.875,218.75 606.25,216.875"/>
<polygon points="615.625,216.587 613.281,218.75 615.625,218.75"/>
<polygon points="615.625,209.375 606.25,209.375 606.25,216.875"/>
<polygon points="615.625,209.375 606.25,216.875 615.625,210.313"/>
<polygon points="615.625,218.75 625,218.75 615.625,209.375"/>
<polygon points="625,218.75 625,209.375 615.625,209.375"/>
<polygon points="625,218.75 634.375,218.75 625,209.375"/>
<polygon points="634.375,218.75 634.375,209.375 625,209.375"/>
<polygon points="634.375,218.75 643.75,218.75 634.375,209.375"/>
<polygon points="643.75,218.75 643.75,209.375 634.375,209.375"/>
<polygon points="643.75,218.75 653.125,218.75 643.75,209.375"/>
<polygon points="653.125,218.75 653.125,209.375 643.75,209.375"/>
<polygon points="653.125,218.75 662.5,218.75 653.125,209.375"/>
<polygon points="662.5,218.75 662.5,209.375 653.125,209.375"/>
<polygon points="662.5,218.75 671.875,218.75 662.5,209.375"/>
<polygon points="671.875,218.75 671.875,209.375 662.5,209.375"/>
<polygon points="671.875,218.75 681.25,218.75 671.875,209.375"/>
<polygon points="681.25,218.75 681.25,209.375 671.875,209.375"/>
<polygon points="681.25,218.75 690.625,218.75 681.25,209.375"/>
<polygon points="690.625,218.75 690.625,209.375 681.25,209.375"/>
<polygon points="690.625,218.75 700,218.75 690.625,209.375"/>
<polygon points="700,218.75 700,209.375 690.625,209.375"/>
<polygon points="700,218.75 709.375,218.75 700,209.375"/>
<polygon points="709.375,218.75 709.375,209.375 700,209.375"/>
<polygon points="521.875,209.375 531.25,209.375 521.875,200"/>
<polygon points="531.25,209.375 531.25,200 521.875,200"/>
<polygon points="531.25,209.375 540.625,209.375 531.25,200"/>
<polygon points="540.625,209.375 540.625,200 531.25,200"/>
<polygon points="540.625,209.375 550,209.375 540.625,200"/>
<polygon points="550,209.375 550,200 540.625,200"/>
<polygon points="550,209.375 559.375,209.375 550,200"/>
<polygon points="559.375,209.375 559.375,200 550,200"/>
<polygon points="559.375,209.375 568.75,209.375 559.375,200"/>
<polygon points="568.75,209.375 568.75,200 559.375,200"/>
<polygon points="568.75,209.375 578.125,209.375 568.75,200"/>
<polygon points="578.125,209.375 578.125,200 568.75,200"/>
<polygon points="578.125,209.375 587.5,209.375 578.125,200"/>
<polygon points="587.5,209.375 587.5,200 578.125,200"/>
<polygon points="587.5,209.375 596.875,209.375 587.5,200"/>
<polygon points="596.875,209.375 596.875,200 587.5,200"/>
<polygon points="596.875,209.375 606.25,209.375 596.875,200"/>
<polygon points="606.25,209.375 606.25,200 596.875,200"/>
<polygon points="606.25,209.375 615.625,209.375 606.25,200"/>
<polygon points="615.625,209.375 615.625,200 606.25,200"/>
<polygon points="615.625,209.375 625,209.375 615.625,200"/>
<polygon points="625,209.375 625,200 615.625,200"/>
<polygon points="625,209.375 634.375,209.375 625,200"/>
<polygon points="634.375,209.375 634.375,200 625,200"/>
<polygon points="634.375,209.375 643.75,209.375 634.375,200"/>
<polygon points="643.75,209.375 643.75,200 634.375,200"/>
<polygon points="643.75,209.375 653.125,209.375 643.75,200"/>
<polygon points="653.125,209.375 653.125,200 643.75,200"/>
<polygon points="653.125,209.375 662.5,209.375 653.125,200"/>
<polygon points="662.5,209.375 662.5,200 653.125,200"/>
<polygon points="662.5,209.375 671.875,209.375 662.5,200"/>
<polygon points="671.875,209.375 671.875,200 662.5,200"/>
<polygon points="671.875,209.375 681.25,209.375 671.875,200"/>
<polygon points="681.25,209.375 681.25,200 671.875,200"/>
<polygon points="681.25,209.375 690.625,209.375 681.25,200"/>
<polygon points="690.625,209.375 690.625,200 681.25,200"/>
<polygon points="690.625,209.375 700,209.375 690.625,200"/>
<polygon points="700,209.375 700,200 690.625,200"/>
<polygon points="700,209.375 709.375,209.375 700,200"/>
<polygon points="709.375,209.375 709.375,200 700,200"/>
<polygon points="521.875,200 531.25,200 521.875,190.625"/>
<polygon points="531.25,200 531.25,190.625 521.875,190.625"/>
<polygon points="531.25,200 540.625,200 531.25,190.625"/>
<polygon points="540.625,200 540.625,190.625 531.25,190.625"/>
<polygon points="540.625,200 550,200 540.625,190.625"/>
<polygon points="550,200 550,190.625 540.625,190.625"/>
<polygon points="550,200 559.375,200 550,190.625"/>
<polygon points="559.375,200 559.375,190.625 550,190.625"/>
<polygon points="559.375,200 568.75,200 559.375,190.625"/>
<polygon points="568.75,200 568.75,190.625 559.375,190.625"/>
<polygon points="568.75,200 578.125,200 568.75,190.625"/>
<polygon points="578.125,200 578.125,190.625 568.75,190.625"/>
<polygon points="578.125,200 587.5,200 578.125,190.625"/>
<polygon points="587.5,200 587.5,190.625 578.125,190.625"/>
<polygon points="587.5,200 596.875,200 587.5,190.625"/>
<polygon points="596.875,200 596.875,190.625 587.5,190.625"/>
<polygon points="596.875,200 606.25,200 596.875,190.625"/>
<polygon points="606.25,200 606.25,190.625 596.875,190.625"/>
<polygon points="606.25,200 615.625,200 606.25,190.625"/>
<polygon points="615.625,200 615.625,190.625 606.25,190.625"/>
<polygon points="615.625,200 625,200 615.625,190.625"/>
<polygon points="625,200 625,190.625 615.625,190.625"/>
<polygon points="625,200 634.375,200 625,190.625"/>
<polygon points="634.375,200 634.375,190.625 625,190.625"/>
<polygon points="634.375,200 643.75,200 634.375,190.625"/>
<polygon points="643.75,200 643.75,190.625 634.375,190.625"/>
<polygon points="643.75,200 653.125,200 653.125,190.625"/>
<polygon points="653.125,190.625 643.75,190.625 643.75,200"/>
<polygon points="662.5,200 662.5,190.625 653.125,190.625"/>
<polygon points="653.125,190.625 653.125,200 662.5,200"/>
<polygon points="671.875,200 671.875,190.625 662.5,190.625"/>
<polygon points="662.5,190.625 662.5,200 671.875,200"/>
<polygon points="681.25,200 681.25,190.625 671.875,190.625"/>
<polygon points="671.875,190.625 671.875,200 681.25,200"/>
<polygon points="681.25,200 690.625,200 690.625,190.625"/>
<polygon points="681.25,200 690.625,190.625 681.25,190.625"/>
<polygon points="690.625,200 700,200 690.625,190.625"/>
<polygon points="700,200 700,190.625 690.625,190.625"/>
<polygon points="700,200 709.375,200 700,190.625"/>
<polygon points="709.375,200 709.375,190.625 700,190.625"/>
<polygon points="521.875,190.625 531.25,190.625 521.875,181.25"/>
<polygon points="531.25,190.625 531.25,181.25 521.875,181.25"/>
<polygon points="531.25,190.625 540.625,190.625 531.25,181.25"/>
<polygon points="540.625,190.625 540.625,181.25 531.25,181.25"/>
<polygon points="540.625,190.625 550,190.625 540.625,181.25"/>
<polygon points="550,190.625 550,181.25 540.625,181.25"/>
<polygon points="550,190.625 559.375,190.625 550,181.25"/>
<polygon points="559.375,190.625 559.375,181.25 550,181.25"/>
<polygon points="559.375,190.625 568.75,190.625 559.375,181.25"/>
<polygon points="568.75,190.625 568.75,181.25 559.375,181.25"/>
<polygon points="568.75,190.625 578.125,190.625 568.75,181.25"/>
<polygon points="578.125,190.625 578.125,181.25 568.75,181.25"/>
<polygon points="578.125,190.625 587.5,190.625 578.125,181.25"/>
<polygon points="587.5,190.625 587.5,181.25 578.125,181.25"/>
<polygon points="587.5,190.625 596.875,190.625 587.5,181.25"/>
<polygon points="596.875,190.625 596.875,181.25 587.5,181.25"/>
<polygon points="596.875,190.625 606.25,190.625 596.875,181.25"/>
<polygon points="606.25,190.625 606.25,181.25 596.875,181.25"/>
<polygon points="606.25,190.625 615.625,190.625 606.25,181.25"/>
<polygon points="615.625,190.625 615.625,181.25 606.25,181.25"/>
<polygon points="615.625,190.625 625,190.625 615.625,181.25"/>
<polygon points="625,190.625 625,181.25 615.625,181.25"/>
<polygon points="625,190.625 634.375,190.625 625,181.25"/>
<polygon points="634.375,190.625 634.375,181.25 625,181.25"/>
<polygon points="634.375,190.625 643.75,190.625 634.375,181.25"/>
<polygon points="643.75,190.625 643.75,181.25 634.375,181.25"/>
<polygon points="653.125,190.625 653.125,181.25 643.75,181.25"/>
<polygon points="653.125,190.625 653.125,181.25 643.75,181.25"/>
<polygon points="653.125,190.625 643.75,181.25 643.75,190.625"/>
<polygon points="653.125,190.625 643.75,181.25 643.75,190.625"/>
<polygon points="662.5,190.625 662.5,181.25 653.125,181.25"/>
<polygon points="653.125,181.25 653.125,190.625 662.5,190.625"/>
<polygon points="653.125,190.625 662.5,190.625 653.125,181.25"/>
<polygon points="653.125,181.25 662.5,190.625 662.5,181.25"/>
<polygon points="671.875,190.625 671.875,181.25 662.5,181.25"/>
<polygon points="662.5,181.25 662.5,190.625 671.875,190.625"/>
<polygon points="662.5,190.625 671.875,190.625 662.5,181.25"/>
<polygon points="662.5,181.25 671.875,190.625 671.875,181.25"/>
<polygon points="681.25,190.625 681.25,181.25 671.875,181.25"/>
<polygon points="671.875,181.25 671.875,190.625 681.25,190.625"/>
<polygon points="671.875,190.625 681.25,190.625 671.875,181.25"/>
<polygon points="671.875,181.25 681.25,190.625 681.25,181.25"/>
<polygon points="690.625,181.25 681.25,181.25 681.25,190.625"/>
<polygon points="681.25,190.625 690.625,190.625 690.625,181.25"/>
<polygon points="690.625,190.625 700,190.625 690.625,181.25"/>
<polygon points="700,190.625 700,181.25 690.625,181.25"/>
<polygon points="700,190.625 709.375,190.625 700,181.25"/>
<polygon points="709.375,190.625 709.375,181.25 700,181.25"/>
<polygon points="521.875,181.25 531.25,181.25 521.875,171.875"/>
<polygon points="531.25,181.25 531.25,171.875 521.875,171.875"/>
<polygon points="531.25,181.25 540.625,181.25 531.25,171.875"/>
<polygon points="540.625,181.25 540.625,171.875 531.25,171.875"/>
<polygon points="540.625,181.25 550,181.25 540.625,171.875"/>
<polygon points="550,181.25 550,171.875 540.625,171.875"/>
<polygon points="550,181.25 559.375,181.25 550,171.875"/>
<polygon points="559.375,181.25 559.375,171.875 550,171.875"/>
<polygon points="559.375,181.25 568.75,181.25 559.375,171.875"/>
<polygon points="568.75,181.25 568.75,171.875 559.375,171.875"/>
<polygon points="568.75,181.25 578.125,181.25 568.75,171.875"/>
<polygon points="578.125,181.25 578.125,171.875 568.75,171.875"/>
<polygon points="578.125,181.25 587.5,181.25 578.125,171.875"/>
<polygon points="587.5,181.25 587.5,171.875 578.125,171.875"/>
<polygon points="587.5,181.25 596.875,181.25 587.5,171.875"/>
<polygon points="596.875,181.25 596.875,171.875 587.5,171.875"/>
<polygon points="596.875,181.25 606.25,181.25 596.875,171.875"/>
<polygon points="606.25,181.25 606.25,171.875 596.875,171.875"/>
<polygon points="606.25,181.25 615.625,181.25 606.25,171.875"/>
<polygon points="615.625,181.25 615.625,171.875 606.25,171.875"/>
<polygon points="615.625,181.25 625,181.25 615.625,171.875"/>
<polygon points="625,181.25 625,171.875 615.625,171.875"/>
<polygon points="625,181.25 634.375,181.25 625,171.875"/>
<polygon points="634.375,181.25 634.375,171.875 625,171.875"/>
<polygon points="634.375,181.25 643.75,181.25 634.375,171.875"/>
<polygon points="643.75,181.25 643.75,171.875 634.375,171.875"/>
<polygon points="643.75,171.875 643.75,181.25 653.125,181.25"/>
<polygon points="653.125,181.25 653.125,171.875 643.75,171.875"/>
<polygon points="653.125,171.875 643.75,171.875 653.125,181.25"/>
<polygon points="653.125,181.25 643.75,171.875 643.75,181.25"/>
<polygon points="681.25,181.25 681.25,171.875 671.875,171.875"/>
<polygon points="671.875,171.875 671.875,181.25 681.25,181.25"/>
<polygon points="671.875,181.25 681.25,181.25 671.875,171.875"/>
<polygon points="671.875,171.875 681.25,181.25 681.25,171.875"/>
<polygon points="690.625,171.875 681.25,171.875 681.25,181.25"/>
<polygon points="681.25,181.25 690.625,181.25 690.625,171.875"/>
<polygon points="690.625,181.25 700,181.25 690.625,171.875"/>
<polygon points="700,181.25 700,171.875 690.625,171.875"/>
<polygon points="700,181.25 709.375,181.25 700,171.875"/>
<polygon points="709.375,181.25 709.375,171.875 700,171.875"/>
<polygon points="521.875,171.875 531.25,171.875 521.875,162.5"/>
<polygon points="531.25,171.875 531.25,162.5 521.875,162.5"/>
<polygon points="531.25,171.875 540.625,171.875 531.25,162.5"/>
<polygon points="540.625,171.875 540.625,162.5 531.25,162.5"/>
<polygon points="540.625,171.875 550,171.875 540.625,162.5"/>
<polygon points="550,171.875 550,162.5 540.625,162.5"/>
<polygon points="550,171.875 559.375,171.875 550,162.5"/>
<polygon points="559.375,171.875 559.375,162.5 550,162.5"/>
<polygon points="559.375,171.875 568.75,171.875 559.375,162.5"/>
<polygon points="568.75,171.875 568.75,162.5 559.375,162.5"/>
<polygon points="568.75,171.875 578.125,171.875 568.75,162.5"/>
<polygon points="578.125,171.875 578.125,162.5 568.75,162.5"/>
<polygon points="578.125,171.875 587.5,171.875 578.125,162.5"/>
<polygon points="587.5,171.875 587.5,162.5 578.125,162.5"/>
<polygon points="587.5,171.875 596.875,171.875 587.5,162.5"/>
<polygon points="596.875,171.875 596.875,162.5 587.5,162.5"/>
<polygon points="596.875,171.875 606.25,171.875 596.875,162.5"/>
<polygon points="606.25,171.875 606.25,162.5 596.875,162.5"/>
<polygon points="606.25,171.875 615.625,171.875 606.25,162.5"/>
<polygon points="615.625,171.875 615.625,162.5 606.25,162.5"/>
<polygon points="615.625,171.875 625,171.875 615.625,162.5"/>
<polygon points="625,171.875 625,162.5 615.625,162.5"/>
<polygon points="625,171.875 634.375,171.875 625,162.5"/>
<polygon points="634.375,171.875 634.375,162.5 625,162.5"/>
<polygon points="634.375,171.875 643.75,171.875 634.375,162.5"/>
<polygon points="643.75,171.875 643.75,162.5 634.375,162.5"/>
<polygon points="643.75,162.5 643.75,171.875 653.125,171.875"/>
<polygon points="653.125,171.875 653.125,162.5 643.75,162.5"/>
<polygon points="653.125,162.5 643.75,162.5 653.125,171.875"/>
<polygon points="653.125,171.875 643.75,162.5 643.75,171.875"/>
<polygon points="681.25,171.875 681.25,162.5 671.875,162.5"/>
<polygon points="671.875,162.5 671.875,171.875 681.25,171.875"/>
<polygon points="671.875,171.875 681.25,171.875 671.875,162.5"/>
<polygon points="671.875,162.5 681.25,171.875 681.25,162.5"/>
<polygon points="690.625,162.5 681.25,162.5 681.25,171.875"/>
<polygon points="681.25,171.875 690.625,171.875 690.625,162.5"/>
<polygon points="690.625,171.875 700,171.875 690.625,162.5"/>
<polygon points="700,171.875 700,162.5 690.625,162.5"/>
<polygon points="700,171.875 709.375,171.875 700,162.5"/>
<polygon points="709.375,171.875 709.375,162.5 700,162.5"/>
<polygon points="521.875,162.5 531.25,162.5 521.875,153.125"/>
<polygon points="531.25,162.5 531.25,153.125 521.875,153.125"/>
<polygon points="531.25,162.5 540.625,162.5 531.25,153.125"/>
<polygon points="540.625,162.5 540.625,153.125 531.25,153.125"/>
<polygon points="540.625,162.5 550,162.5 540.625,153.125"/>
<polygon points="550,162.5 550,153.125 540.625,153.125"/>
<polygon points="550,162.5 559.375,162.5 550,153.125"/>
<polygon points="559.375,162.5 559.375,153.125 550,153.125"/>
<polygon points="559.375,162.5 568.75,162.5 559.375,153.125"/>
<polygon points="568.75,162.5 568.75,153.125 559.375,153.125"/>
<polygon points="568.75,162.5 578.125,162.5 568.75,153.125"/>
<polygon points="578.125,162.5 578.125,153.125 568.75,153.125"/>
<polygon points="578.125,162.5 587.5,162.5 578.125,153.125"/>
<polygon points="587.5,162.5 587.5,153.125 578.125,153.125"/>
<polygon points="587.5,162.5 596.875,162.5 587.5,153.125"/>
<polygon points="596.875,162.5 596.875,153.125 587.5,153.125"/>
<polygon points="596.875,162.5 606.25,162.5 596.875,153.125"/>
<polygon points="606.25,162.5 606.25,153.125 596.875,153.125"/>
<polygon points="606.25,162.5 615.625,162.5 606.25,153.125"/>
<polygon points="615.625,162.5 615.625,153.125 606.25,153.125"/>
<polygon points="615.625,162.5 625,162.5 615.625,153.125"/>
<polygon points="625,162.5 625,153.125 615.625,153.125"/>
<polygon points="625,162.5 634.375,162.5 625,153.125"/>
<polygon points="634.375,162.5 634.375,153.125 625,153.125"/>
<polygon points="634.375,162.5 643.75,162.5 634.375,153.125"/>
<polygon points="643.75,162.5 643.75,153.125 634.375,153.125"/>
<polygon points="643.75,153.125 643.75,162.5 653.125,162.5"/>
<polygon points="653.125,162.5 653.125,153.125 643.75,153.125"/>
<polygon points="653.125,153.125 643.75,153.125 653.125,162.5"/>
<polygon points="653.125,162.5 643.75,153.125 643.75,162.5"/>
<polygon points="662.5,153.125 653.125,153.125 653.125,162.5"/>
<polygon points="653.125,162.5 662.5,162.5 662.5,153.125"/>
<polygon points="662.5,162.5 662.5,153.125 653.125,162.5"/>
<polygon points="653.125,162.5 662.5,153.125 653.125,153.125"/>
<polygon points="671.875,153.125 662.5,153.125 662.5,162.5"/>
<polygon points="662.5,162.5 671.875,162.5 671.875,153.125"/>
<polygon points="671.875,162.5 671.875,153.125 662.5,162.5"/>
<polygon points="662.5,162.5 671.875,153.125 662.5,153.125"/>
<polygon points="681.25,153.125 671.875,153.125 671.875,162.5"/>
<polygon points="671.875,162.5 681.25,162.5 681.25,153.125"/>
<polygon points="681.25,162.5 681.25,153.125 671.875,162.5"/>
<polygon points="671.875,162.5 681.25,153.125 671.875,153.125"/>
<polygon points="690.625,153.125 681.25,153.125 681.25,162.5"/>
<polygon points="681.25,162.5 690.625,162.5 690.625,153.125"/>
<polygon points="690.625,162.5 700,162.5 690.625,153.125"/>
<polygon points="700,162.5 700,153.125 690.625,153.125"/>
<polygon points="700,162.5 709.375,162.5 700,153.125"/>
<polygon points="709.375,162.5 709.375,153.125 700,153.125"/>
<polygon points="521.875,153.125 531.25,153.125 521.875,143.75"/>
<polygon points="531.25,153.125 531.25,143.75 521.875,143.75"/>
<polygon points="531.25,153.125 540.625,153.125 531.25,143.75"/>
<polygon points="540.625,153.125 540.625,143.75 531.25,143.75"/>
<polygon points="540.625,153.125 550,153.125 540.625,143.75"/>
<polygon points="550,153.125 550,143.75 540.625,143.75"/>
<polygon points="550,153.125 559.375,153.125 550,143.75"/>
<polygon points="559.375,153.125 559.375,143.75 550,143.75"/>
<polygon points="559.375,153.125 568.75,153.125 559.375,143.75"/>
<polygon points="568.75,153.125 568.75,143.75 559.375,143.75"/>
<polygon points="568.75,153.125 578.125,153.125 568.75,143.75"/>
<polygon points="578.125,153.125 578.125,143.75 568.75,143.75"/>
<polygon points="578.125,153.125 587.5,153.125 578.125,143.75"/>
<polygon points="587.5,153.125 587.5,143.75 578.125,143.75"/>
<polygon points="587.5,153.125 596.875,153.125 587.5,143.75"/>
<polygon points="596.875,153.125 596.875,143.75 587.5,143.75"/>
<polygon points="596.875,153.125 606.25,153.125 596.875,143.75"/>
<polygon points="606.25,153.125 606.25,143.75 596.875,143.75"/>
<polygon points="606.25,153.125 615.625,153.125 606.25,143.75"/>
<polygon points="615.625,153.125 615.625,143.75 606.25,143.75"/>
<polygon points="615.625,153.125 625,153.125 615.625,143.75"/>
<polygon points="625,153.125 625,143.75 615.625,143.75"/>
<polygon points="625,153.125 634.375,153.125 625,143.75"/>
<polygon points="634.375,153.125 634.375,143.75 625,143.75"/>
<polygon points="634.375,153.125 643.75,153.125 634.375,143.75"/>
<polygon points="643.75,153.125 643.75,143.75 634.375,143.75"/>
<polygon points="643.75,153.125 653.125,153.125 643.75,143.75"/>
<polygon points="653.125,153.125 653.125,143.75 643.75,143.75"/>
<polygon points="653.125,153.125 662.5,153.125 653.125,143.75"/>
<polygon points="662.5,153.125 662.5,143.75 653.125,143.75"/>
<polygon points="662.5,153.125 671.875,153.125 662.5,143.75"/>
<polygon points="671.875,153.125 671.875,143.75 662.5,143.75"/>
<polygon points="671.875,153.125 681.25,153.125 671.875,143.75"/>
<polygon points="681.25,153.125 681.25,143.75 671.875,143.75"/>
<polygon points="681.25,153.125 690.625,153.125 681.25,143.75"/>
<polygon points="690.625,153.125 690.625,143.75 681.25,143.75"/>
<polygon points="690.625,153.125 700,153.125 690.625,143.75"/>
<polygon points="700,153.125 700,143.75 690.625,143.75"/>
<polygon points="700,153.125 709.375,153.125 700,143.75"/>
<polygon points="709.375,153.125 709.375,143.75 700,143.75"/>
<polygon points="521.875,143.75 531.25,143.75 521.875,134.375"/>
<polygon points="531.25,143.75 531.25,134.375 521.875,134.375"/>
<polygon points="531.25,143.75 540.625,143.75 531.25,134.375"/>
<polygon points="540.625,143.75 540.625,134.375 531.25,134.375"/>
<polygon points="540.625,143.75 550,143.75 540.625,134.375"/>
<polygon points="550,143.75 550,134.375 540.625,134.375"/>
<polygon points="550,143.75 559.375,143.75 550,134.375"/>
<polygon points="559.375,143.75 559.375,134.375 550,134.375"/>
<polygon points="559.375,143.75 568.75,143.75 559.375,134.375"/>
<polygon points="568.75,143.75 568.75,134.375 559.375,134.375"/>
<polygon points="568.75,143.75 578.125,143.75 568.75,134.375"/>
<polygon points="578.125,143.75 578.125,134.375 568.75,134.375"/>
<polygon points="578.125,143.75 587.5,143.75 578.125,134.375"/>
<polygon points="587.5,143.75 587.5,134.375 578.125,134.375"/>
<polygon points="587.5,143.75 596.875,143.75 587.5,134.375"/>
<polygon points="596.875,143.75 596.875,134.375 587.5,134.375"/>
<polygon points="596.875,143.75 606.25,143.75 596.875,134.375"/>
<polygon points="606.25,143.75 606.25,134.375 596.875,134.375"/>
<polygon points="606.25,143.75 615.625,143.75 606.25,134.375"/>
<polygon points="615.625,143.75 615.625,134.375 606.25,134.375"/>
<polygon points="615.625,143.75 625,143.75 615.625,134.375"/>
<polygon points="625,143.75 625,134.375 615.625,134.375"/>
<polygon points="625,143.75 634.375,143.75 625,134.375"/>
<polygon points="634.375,143.75 634.375,134.375 625,134.375"/>
<polygon points="634.375,143.75 643.75,143.75 634.375,134.375"/>
<polygon points="643.75,143.75 643.75,134.375 634.375,134.375"/>
<polygon points="643.75,143.75 653.125,143.75 643.75,134.375"/>
<polygon points="653.125,143.75 653.125,134.375 643.75,134.375"/>
<polygon points="653.125,143.75 662.5,143.75 653.125,134.375"/>
<polygon points="662.5,143.75 662.5,134.375 653.125,134.375"/>
<polygon points="662.5,143.75 671.875,143.75 662.5,134.375"/>
<polygon points="671.875,143.75 671.875,134.375 662.5,134.375"/>
<polygon points="671.875,143.75 681.25,143.75 671.875,134.375"/>
<polygon points="681.25,143.75 681.25,134.375 671.875,134.375"/>
<polygon points="681.25,143.75 690.625,143.75 681.25,134.375"/>
<polygon points="690.625,143.75 690.625,134.375 681.25,134.375"/>
<polygon points="690.625,143.75 700,143.75 690.625,134.375"/>
<polygon points="700,143.75 700,134.375 690.625,134.375"/>
<polygon points="700,143.75 709.375,143.75 700,134.375"/>
<polygon points="709.375,143.75 709.375,134.375 700,134.375"/>
<polygon points="521.875,134.375 531.25,134.375 521.875,125"/>
<polygon points="531.25,134.375 531.25,125 521.875,125"/>
<polygon points="531.25,134.375 540.625,134.375 531.25,125"/>
<polygon points="540.625,134.375 540.625,125 531.25,125"/>
<polygon points="540.625,134.375 550,134.375 540.625,125"/>
<polygon points="550,134.375 550,125 540.625,125"/>
<polygon points="550,134.375 559.375,134.375 550,125"/>
<polygon points="559.375,134.375 559.375,125 550,125"/>
<polygon points="559.375,134.375 568.75,134.375 559.375,125"/>
<polygon points="568.75,134.375 568.75,125 559.375,125"/>
<polygon points="568.75,134.375 578.125,134.375 568.75,125"/>
<polygon points="578.125,134.375 578.125,125 568.75,125"/>
<polygon points="578.125,134.375 587.5,134.375 578.125,125"/>
<polygon points="587.5,134.375 587.5,125 578.125,125"/>
<polygon points="587.5,134.375 596.875,134.375 587.5,125"/>
<polygon points="596.875,134.375 596.875,125 587.5,125"/>
<polygon points="596.875,134.375 606.25,134.375 596.875,125"/>
<polygon points="606.25,134.375 606.25,125 596.875,125"/>
<polygon points="606.25,134.375 615.625,134.375 606.25,125"/>
<polygon points="615.625,134.375 615.625,125 606.25,125"/>
<polygon points="615.625,134.375 625,134.375 615.625,125"/>
<polygon points="625,134.375 625,125 615.625,125"/>
<polygon points="625,134.375 634.375,134.375 625,125"/>
<polygon points="634.375,134.375 634.375,125 625,125"/>
<polygon points="634.375,134.375 643.75,134.375 634.375,125"/>
<polygon points="643.75,134.375 643.75,125 634.375,125"/>
<polygon points="643.75,134.375 653.125,134.375 643.75,125"/>
<polygon points="653.125,134.375 653.125,125 643.75,125"/>
<polygon points="653.125,134.375 662.5,134.375 653.125,125"/>
<polygon points="662.5,134.375 662.5,125 653.125,125"/>
<polygon points="662.5,134.375 671.875,134.375 662.5,125"/>
<polygon points="671.875,134.375 671.875,125 662.5,125"/>
<polygon points="671.875,134.375 681.25,134.375 671.875,125"/>
<polygon points="681.25,134.375 681.25,125 671.875,125"/>
<polygon points="681.25,134.375 690.625,134.375 681.25,125"/>
<polygon points="690.625,134.375 690.625,125 681.25,125"/>
<polygon points="690.625,134.375 700,134.375 690.625,125"/>
<polygon points="700,134.375 700,125 690.625,125"/>
<polygon points="700,134.375 709.375,134.375 700,125"/>
<polygon points="709.375,134.375 709.375,125 700,125"/>
<polygon points="521.875,115.625 521.875,125 531.25,125"/>
<polygon points="531.25,125 531.25,115.625 521.875,115.625"/>
<polygon points="531.25,115.625 531.25,125 540.625,125"/>
<polygon points="540.625,125 540.625,115.625 531.25,115.625"/>
<polygon points="540.625,115.625 540.625,125 550,125"/>
<polygon points="550,125 550,115.625 540.625,115.625"/>
<polygon points="550,115.625 550,125 559.375,125"/>
<polygon points="559.375,125 559.375,115.625 550,115.625"/>
<polygon points="559.375,115.625 559.375,125 568.75,125"/>
<polygon points="568.75,125 568.75,115.625 559.375,115.625"/>
<polygon points="568.75,115.625 568.75,125 578.125,125"/>
<polygon points="578.125,125 578.125,115.625 568.75,115.625"/>
<polygon points="578.125,115.625 578.125,125 587.5,125"/>
<polygon points="587.5,125 587.5,115.625 578.125,115.625"/>
<polygon points="587.5,115.625 587.5,125 596.875,125"/>
<polygon points="596.875,125 596.875,115.625 587.5,115.625"/>
<polygon points="596.875,115.625 596.875,125 606.25,125"/>
<polygon points="606.25,125 606.25,115.625 596.875,115.625"/>
<polygon points="606.25,115.625 606.25,125 615.625,125"/>
<polygon points="615.625,125 615.625,115.625 606.25,115.625"/>
<polygon points="615.625,115.625 615.625,125 625,125"/>
<polygon points="625,125 625,115.625 615.625,115.625"/>
<polygon points="625,115.625 625,125 634.375,125"/>
<polygon points="634.375,125 634.375,115.625 625,115.625"/>
<polygon points="634.375,115.625 634.375,125 643.75,125"/>
<polygon points="643.75,125 643.75,115.625 634.375,115.625"/>
<polygon points="643.75,115.625 643.75,125 653.125,125"/>
<polygon points="653.125,125 653.125,115.625 643.75,115.625"/>
<polygon points="653.125,115.625 653.125,125 662.5,125"/>
<polygon points="662.5,125 662.5,115.625 653.125,115.625"/>
<polygon points="662.5,115.625 662.5,125 671.875,125"/>
<polygon points="671.875,125 671.875,115.625 662.5,115.625"/>
<polygon points="671.875,115.625 671.875,125 681.25,125"/>
<polygon points="681.25,125 681.25,115.625 671.875,115.625"/>
<polygon points="681.25,115.625 681.25,125 690.625,125"/>
<polygon points="690.625,125 690.625,115.625 681.25,115.625"/>
<polygon points="700,115.625 690.625,115.625 690.625,125"/>
<polygon points="690.625,125 700,125 700,115.625"/>
<polygon points="709.375,115.625 700,115.625 700,125"/>
<polygon points="700,125 709.375,125 709.375,115.625"/>
</g>
<text x="625" y="370" text-anchor="middle" font-size="12">Triangles: 850, Vertices: 476</text>
</svg>
